<svg width="1081" height="514" viewBox="0 0 1081 514" fill="none" xmlns="http://www.w3.org/2000/svg">
<g filter="url(#filter0_d_122_844)">
<path d="M54.3199 38.3889C55.7631 24.6574 68.0647 14.6959 81.7962 16.1391L1015.65 114.291C1029.38 115.735 1039.35 128.036 1037.9 141.768L1003.72 466.976C1002.28 480.708 989.976 490.669 976.245 489.226L42.3889 391.074C28.6574 389.631 18.6958 377.329 20.1391 363.598L54.3199 38.3889Z" fill="#F5F1E8"/>
</g>
<g filter="url(#filter1_d_122_844)">
<path d="M65.0798 55.3798C66.043 41.6063 77.9893 31.2214 91.7628 32.1846L1028.48 97.6859C1042.25 98.649 1052.63 110.595 1051.67 124.369L1028.86 450.572C1027.9 464.346 1015.95 474.731 1002.18 473.768L65.4646 408.266C51.6911 407.303 41.3063 395.357 42.2695 381.583L65.0798 55.3798Z" fill="#F5F1E8"/>
</g>
<g filter="url(#filter2_d_122_844)">
<path d="M72.1719 69.3666C72.6538 55.5679 84.2305 44.7725 98.0292 45.2543L1036.46 78.025C1050.26 78.5068 1061.05 90.0835 1060.57 103.882L1049.16 430.683C1048.68 444.482 1037.1 455.277 1023.3 454.795L84.8721 422.025C71.0734 421.543 60.2779 409.966 60.7598 396.167L72.1719 69.3666Z" fill="#F5F1E8"/>
</g>
<g filter="url(#filter3_d_122_844)">
<path d="M70.5264 86.4895C70.5264 72.6824 81.7192 61.4895 95.5264 61.4895L1034.53 61.4895C1048.33 61.4895 1059.53 72.6824 1059.53 86.4895L1059.53 413.49C1059.53 427.297 1048.33 438.49 1034.53 438.49L95.5263 438.49C81.7192 438.49 70.5264 427.297 70.5264 413.49L70.5264 86.4895Z" fill="#F5F1E8" shape-rendering="crispEdges"/>
<path d="M510.026 90.9895C510.026 90.1611 510.698 89.4895 511.526 89.4895H528.526C529.355 89.4895 530.026 90.1611 530.026 90.9895C530.026 91.8179 529.355 92.4895 528.526 92.4895H511.526C510.698 92.4895 510.026 91.8179 510.026 90.9895Z" fill="#D1B577"/>
<path d="M540.026 90.9895C540.026 90.1611 540.698 89.4895 541.526 89.4895H558.526C559.355 89.4895 560.026 90.1611 560.026 90.9895C560.026 91.8179 559.355 92.4895 558.526 92.4895H541.526C540.698 92.4895 540.026 91.8179 540.026 90.9895Z" fill="#E1E1E1"/>
<path d="M570.026 90.9895C570.026 90.1611 570.698 89.4895 571.526 89.4895H588.526C589.355 89.4895 590.026 90.1611 590.026 90.9895C590.026 91.8179 589.355 92.4895 588.526 92.4895H571.526C570.698 92.4895 570.026 91.8179 570.026 90.9895Z" fill="#E1E1E1"/>
<path d="M600.026 90.9895C600.026 90.1611 600.698 89.4895 601.526 89.4895H618.526C619.355 89.4895 620.026 90.1611 620.026 90.9895C620.026 91.8179 619.355 92.4895 618.526 92.4895H601.526C600.698 92.4895 600.026 91.8179 600.026 90.9895Z" fill="#E1E1E1"/>
<path d="M483.75 152.258C483.441 152.258 483.174 152.236 482.95 152.194C482.726 152.151 482.524 152.082 482.342 151.986C482.172 151.9 482.017 151.783 481.878 151.634C481.74 151.495 481.601 151.324 481.462 151.122L480.438 149.618C479.809 149.522 479.244 149.324 478.742 149.026C478.241 148.716 477.809 148.322 477.446 147.842C477.084 147.351 476.806 146.775 476.614 146.114C476.422 145.452 476.326 144.716 476.326 143.906C476.326 143.01 476.444 142.21 476.678 141.506C476.913 140.791 477.244 140.183 477.67 139.682C478.108 139.18 478.63 138.796 479.238 138.53C479.846 138.263 480.518 138.13 481.254 138.13C481.99 138.13 482.662 138.263 483.27 138.53C483.878 138.796 484.396 139.18 484.822 139.682C485.26 140.183 485.596 140.791 485.83 141.506C486.065 142.21 486.182 143.01 486.182 143.906C486.182 144.727 486.081 145.474 485.878 146.146C485.676 146.818 485.388 147.399 485.014 147.89C484.652 148.38 484.209 148.775 483.686 149.074C483.164 149.372 482.577 149.559 481.926 149.634L482.646 150.626C482.764 150.796 482.87 150.935 482.966 151.042C483.073 151.159 483.18 151.25 483.286 151.314C483.404 151.388 483.526 151.442 483.654 151.474C483.782 151.506 483.937 151.522 484.118 151.522H484.598V152.258H483.75ZM481.254 148.834C481.798 148.834 482.278 148.738 482.694 148.546C483.121 148.343 483.478 148.066 483.766 147.714C484.054 147.351 484.273 146.924 484.422 146.434C484.572 145.943 484.646 145.404 484.646 144.818V142.994C484.646 142.407 484.572 141.868 484.422 141.378C484.273 140.887 484.054 140.466 483.766 140.114C483.478 139.751 483.121 139.474 482.694 139.282C482.278 139.079 481.798 138.978 481.254 138.978C480.71 138.978 480.225 139.079 479.798 139.282C479.382 139.474 479.03 139.751 478.742 140.114C478.454 140.466 478.236 140.887 478.086 141.378C477.937 141.868 477.862 142.407 477.862 142.994V144.818C477.862 145.404 477.937 145.943 478.086 146.434C478.236 146.924 478.454 147.351 478.742 147.714C479.03 148.066 479.382 148.343 479.798 148.546C480.225 148.738 480.71 148.834 481.254 148.834ZM488.561 149.682C488.252 149.682 488.006 149.591 487.825 149.41C487.654 149.218 487.569 148.988 487.569 148.722V148.626C487.569 148.359 487.654 148.135 487.825 147.954C488.006 147.762 488.252 147.666 488.561 147.666C488.87 147.666 489.11 147.762 489.281 147.954C489.462 148.135 489.553 148.359 489.553 148.626V148.722C489.553 148.988 489.462 149.218 489.281 149.41C489.11 149.591 488.87 149.682 488.561 149.682ZM495.498 148.898C495.946 148.898 496.325 148.812 496.634 148.642C496.954 148.46 497.21 148.204 497.402 147.874C497.605 147.543 497.749 147.143 497.834 146.674C497.93 146.194 497.978 145.66 497.978 145.074V142.738C497.978 142.151 497.93 141.623 497.834 141.154C497.749 140.674 497.605 140.268 497.402 139.938C497.21 139.607 496.954 139.356 496.634 139.186C496.325 139.004 495.946 138.914 495.498 138.914C495.05 138.914 494.666 139.004 494.346 139.186C494.037 139.356 493.781 139.607 493.578 139.938C493.386 140.268 493.242 140.674 493.146 141.154C493.061 141.623 493.018 142.151 493.018 142.738V145.074C493.018 145.66 493.061 146.194 493.146 146.674C493.242 147.143 493.386 147.543 493.578 147.874C493.781 148.204 494.037 148.46 494.346 148.642C494.666 148.812 495.05 148.898 495.498 148.898ZM495.498 149.682C494.218 149.682 493.232 149.191 492.538 148.21C491.856 147.228 491.514 145.794 491.514 143.906C491.514 142.018 491.856 140.583 492.538 139.602C493.232 138.62 494.218 138.13 495.498 138.13C496.778 138.13 497.76 138.62 498.442 139.602C499.136 140.583 499.482 142.018 499.482 143.906C499.482 145.794 499.136 147.228 498.442 148.21C497.76 149.191 496.778 149.682 495.498 149.682ZM501.7 148.77H504.468V139.426L501.588 140.754L501.348 140.066L504.612 138.322H505.844V148.77H508.516V149.49H501.7V148.77Z" fill="#767677"/>
<path d="M482.606 183.778C481.598 183.778 480.774 183.626 480.134 183.322C479.51 183.002 479.07 182.578 478.814 182.05H478.694V183.49H476.966V178.57H478.694V179.674C478.694 180.074 478.75 180.45 478.862 180.802C478.99 181.138 479.19 181.434 479.462 181.69C479.75 181.946 480.118 182.146 480.566 182.29C481.03 182.434 481.59 182.506 482.246 182.506C483.638 182.506 484.638 182.21 485.246 181.618C485.87 181.026 486.182 180.234 486.182 179.242C486.182 178.394 485.942 177.73 485.462 177.25C484.998 176.77 484.262 176.394 483.254 176.122L481.934 175.786C480.446 175.402 479.294 174.826 478.478 174.058C477.662 173.29 477.254 172.234 477.254 170.89C477.254 170.218 477.382 169.61 477.638 169.066C477.894 168.506 478.254 168.034 478.718 167.65C479.182 167.266 479.734 166.97 480.374 166.762C481.03 166.554 481.75 166.45 482.534 166.45C483.446 166.45 484.19 166.594 484.766 166.882C485.358 167.154 485.774 167.538 486.014 168.034H486.158V166.738H487.886V171.418H486.158V170.314C486.158 169.914 486.094 169.554 485.966 169.234C485.854 168.914 485.654 168.642 485.366 168.418C485.078 168.194 484.702 168.026 484.238 167.914C483.774 167.786 483.206 167.722 482.534 167.722C481.414 167.722 480.574 167.978 480.014 168.49C479.454 169.002 479.174 169.674 479.174 170.506C479.174 171.37 479.422 172.05 479.918 172.546C480.43 173.026 481.23 173.41 482.318 173.698L483.542 174.01C484.998 174.394 486.118 174.97 486.902 175.738C487.686 176.506 488.078 177.514 488.078 178.762C488.078 179.482 487.958 180.154 487.718 180.778C487.478 181.386 487.126 181.914 486.662 182.362C486.198 182.81 485.622 183.162 484.934 183.418C484.262 183.658 483.486 183.778 482.606 183.778ZM491.076 172.21H489.828V171.106H494.796V172.21H493.068L495.54 181.57H495.636L498.636 171.106H500.292L503.052 181.57H503.148L505.668 172.21H503.94V171.106H508.092V172.21H506.844L503.7 183.49H501.78L499.116 173.77H499.02L496.116 183.49H494.196L491.076 172.21ZM514.824 183.778C513.944 183.778 513.152 183.626 512.448 183.322C511.76 183.002 511.176 182.562 510.696 182.002C510.216 181.442 509.848 180.762 509.592 179.962C509.336 179.162 509.208 178.274 509.208 177.298C509.208 176.338 509.344 175.466 509.616 174.682C509.904 173.882 510.288 173.194 510.768 172.618C511.264 172.042 511.848 171.602 512.52 171.298C513.192 170.978 513.928 170.818 514.728 170.818C515.544 170.818 516.272 170.962 516.912 171.25C517.552 171.538 518.088 171.946 518.52 172.474C518.968 172.986 519.312 173.602 519.552 174.322C519.792 175.042 519.912 175.826 519.912 176.674V177.226H511.392V177.85C511.392 179.21 511.728 180.282 512.4 181.066C513.088 181.85 514 182.242 515.136 182.242C516.128 182.242 516.912 182.042 517.488 181.642C518.08 181.226 518.544 180.69 518.88 180.034L519.672 180.538C519.512 180.954 519.288 181.362 519 181.762C518.728 182.146 518.392 182.49 517.992 182.794C517.592 183.082 517.128 183.314 516.6 183.49C516.072 183.682 515.48 183.778 514.824 183.778ZM511.392 176.122H517.848V175.882C517.848 175.322 517.784 174.802 517.656 174.322C517.544 173.842 517.36 173.426 517.104 173.074C516.848 172.722 516.52 172.45 516.12 172.258C515.736 172.05 515.272 171.946 514.728 171.946C514.184 171.946 513.704 172.042 513.288 172.234C512.872 172.426 512.52 172.698 512.232 173.05C511.96 173.402 511.752 173.818 511.608 174.298C511.464 174.762 511.392 175.274 511.392 175.834V176.122ZM527.691 183.778C526.811 183.778 526.019 183.626 525.315 183.322C524.627 183.002 524.043 182.562 523.563 182.002C523.083 181.442 522.715 180.762 522.459 179.962C522.203 179.162 522.075 178.274 522.075 177.298C522.075 176.338 522.211 175.466 522.483 174.682C522.771 173.882 523.155 173.194 523.635 172.618C524.131 172.042 524.715 171.602 525.387 171.298C526.059 170.978 526.795 170.818 527.595 170.818C528.411 170.818 529.139 170.962 529.779 171.25C530.419 171.538 530.955 171.946 531.387 172.474C531.835 172.986 532.179 173.602 532.419 174.322C532.659 175.042 532.779 175.826 532.779 176.674V177.226H524.259V177.85C524.259 179.21 524.595 180.282 525.267 181.066C525.955 181.85 526.867 182.242 528.003 182.242C528.995 182.242 529.779 182.042 530.355 181.642C530.947 181.226 531.411 180.69 531.747 180.034L532.539 180.538C532.379 180.954 532.155 181.362 531.867 181.762C531.595 182.146 531.259 182.49 530.859 182.794C530.459 183.082 529.995 183.314 529.467 183.49C528.939 183.682 528.347 183.778 527.691 183.778ZM524.259 176.122H530.715V175.882C530.715 175.322 530.651 174.802 530.523 174.322C530.411 173.842 530.227 173.426 529.971 173.074C529.715 172.722 529.387 172.45 528.987 172.258C528.603 172.05 528.139 171.946 527.595 171.946C527.051 171.946 526.571 172.042 526.155 172.234C525.739 172.426 525.387 172.698 525.099 173.05C524.827 173.402 524.619 173.818 524.475 174.298C524.331 174.762 524.259 175.274 524.259 175.834V176.122ZM538.71 183.634C537.862 183.634 537.278 183.466 536.958 183.13C536.638 182.778 536.478 182.186 536.478 181.354V172.282H534.894V171.106H535.11C535.446 171.106 535.71 171.082 535.902 171.034C536.11 170.986 536.27 170.922 536.382 170.842C536.51 170.746 536.598 170.634 536.646 170.506C536.71 170.362 536.766 170.202 536.814 170.026L537.366 167.89H538.446V171.106H541.638V172.282H538.446V182.314H541.638V183.106C541.494 183.186 541.31 183.258 541.086 183.322C540.878 183.386 540.638 183.442 540.366 183.49C540.11 183.538 539.838 183.57 539.55 183.586C539.262 183.618 538.982 183.634 538.71 183.634ZM554.669 182.602C555.261 182.602 555.773 182.506 556.205 182.314C556.653 182.106 557.013 181.826 557.285 181.474C557.573 181.106 557.781 180.682 557.909 180.202C558.053 179.706 558.125 179.17 558.125 178.594V176.002C558.125 175.426 558.053 174.898 557.909 174.418C557.781 173.922 557.573 173.498 557.285 173.146C557.013 172.778 556.653 172.498 556.205 172.306C555.773 172.098 555.261 171.994 554.669 171.994C554.061 171.994 553.541 172.098 553.109 172.306C552.677 172.498 552.317 172.778 552.029 173.146C551.757 173.498 551.549 173.922 551.405 174.418C551.277 174.898 551.213 175.426 551.213 176.002V178.594C551.213 179.17 551.277 179.706 551.405 180.202C551.549 180.682 551.757 181.106 552.029 181.474C552.317 181.826 552.677 182.106 553.109 182.314C553.541 182.506 554.061 182.602 554.669 182.602ZM554.669 183.778C553.821 183.778 553.045 183.626 552.341 183.322C551.637 183.018 551.037 182.586 550.541 182.026C550.045 181.45 549.661 180.77 549.389 179.986C549.117 179.186 548.981 178.29 548.981 177.298C548.981 176.322 549.117 175.434 549.389 174.634C549.661 173.834 550.045 173.154 550.541 172.594C551.037 172.018 551.637 171.578 552.341 171.274C553.045 170.97 553.821 170.818 554.669 170.818C555.517 170.818 556.293 170.97 556.997 171.274C557.701 171.578 558.301 172.018 558.797 172.594C559.293 173.154 559.677 173.834 559.949 174.634C560.221 175.434 560.357 176.322 560.357 177.298C560.357 178.29 560.221 179.186 559.949 179.986C559.677 180.77 559.293 181.45 558.797 182.026C558.301 182.586 557.701 183.018 556.997 183.322C556.293 183.626 555.517 183.778 554.669 183.778ZM562.648 182.386H564.424V172.666L562.648 172.354V171.538L566.344 170.818V172.978H566.464C566.576 172.722 566.712 172.466 566.872 172.21C567.048 171.954 567.256 171.722 567.496 171.514C567.752 171.306 568.04 171.138 568.36 171.01C568.696 170.882 569.08 170.818 569.512 170.818C570.216 170.818 570.776 170.986 571.192 171.322C571.624 171.658 571.84 172.146 571.84 172.786C571.84 173.266 571.72 173.642 571.48 173.914C571.24 174.186 570.928 174.322 570.544 174.322C570.112 174.322 569.768 174.21 569.512 173.986C569.256 173.746 569.128 173.442 569.128 173.074C569.128 172.754 569.192 172.498 569.32 172.306C569.464 172.098 569.624 171.978 569.8 171.946V171.898C569.736 171.882 569.656 171.874 569.56 171.874C569.464 171.858 569.344 171.85 569.2 171.85C568.864 171.85 568.528 171.938 568.192 172.114C567.856 172.274 567.552 172.49 567.28 172.762C567.024 173.018 566.808 173.314 566.632 173.65C566.472 173.986 566.392 174.322 566.392 174.658V182.386H568.648V183.49H562.648V182.386ZM578.987 182.386H580.787V167.842H578.987V166.738H591.371V170.77H589.643V167.914H582.851V174.634H587.603V172.714H589.043V177.73H587.603V175.81H582.851V182.386H585.131V183.49H578.987V182.386ZM593.281 182.386H595.057V172.666L593.281 172.354V171.538L596.977 170.818V172.978H597.097C597.209 172.722 597.345 172.466 597.505 172.21C597.681 171.954 597.889 171.722 598.129 171.514C598.385 171.306 598.673 171.138 598.993 171.01C599.329 170.882 599.713 170.818 600.145 170.818C600.849 170.818 601.409 170.986 601.825 171.322C602.257 171.658 602.473 172.146 602.473 172.786C602.473 173.266 602.353 173.642 602.113 173.914C601.873 174.186 601.561 174.322 601.177 174.322C600.745 174.322 600.401 174.21 600.145 173.986C599.889 173.746 599.761 173.442 599.761 173.074C599.761 172.754 599.825 172.498 599.953 172.306C600.097 172.098 600.257 171.978 600.433 171.946V171.898C600.369 171.882 600.289 171.874 600.193 171.874C600.097 171.858 599.977 171.85 599.833 171.85C599.497 171.85 599.161 171.938 598.825 172.114C598.489 172.274 598.185 172.49 597.913 172.762C597.657 173.018 597.441 173.314 597.265 173.65C597.105 173.986 597.025 174.322 597.025 174.658V182.386H599.281V183.49H593.281V182.386ZM609.418 183.778C608.538 183.778 607.746 183.626 607.042 183.322C606.354 183.002 605.77 182.562 605.29 182.002C604.81 181.442 604.442 180.762 604.186 179.962C603.93 179.162 603.802 178.274 603.802 177.298C603.802 176.338 603.938 175.466 604.21 174.682C604.498 173.882 604.882 173.194 605.362 172.618C605.858 172.042 606.442 171.602 607.114 171.298C607.786 170.978 608.522 170.818 609.322 170.818C610.138 170.818 610.866 170.962 611.506 171.25C612.146 171.538 612.682 171.946 613.114 172.474C613.562 172.986 613.906 173.602 614.146 174.322C614.386 175.042 614.506 175.826 614.506 176.674V177.226H605.986V177.85C605.986 179.21 606.322 180.282 606.994 181.066C607.682 181.85 608.594 182.242 609.73 182.242C610.722 182.242 611.506 182.042 612.082 181.642C612.674 181.226 613.138 180.69 613.474 180.034L614.266 180.538C614.106 180.954 613.882 181.362 613.594 181.762C613.322 182.146 612.986 182.49 612.586 182.794C612.186 183.082 611.722 183.314 611.194 183.49C610.666 183.682 610.074 183.778 609.418 183.778ZM605.986 176.122H612.442V175.882C612.442 175.322 612.378 174.802 612.25 174.322C612.138 173.842 611.954 173.426 611.698 173.074C611.442 172.722 611.114 172.45 610.714 172.258C610.33 172.05 609.866 171.946 609.322 171.946C608.778 171.946 608.298 172.042 607.882 172.234C607.466 172.426 607.114 172.698 606.826 173.05C606.554 173.402 606.346 173.818 606.202 174.298C606.058 174.762 605.986 175.274 605.986 175.834V176.122ZM621.637 183.778C620.885 183.778 620.229 183.626 619.669 183.322C619.109 183.002 618.741 182.65 618.565 182.266H618.469V183.49H617.029V179.77H618.469V180.274C618.469 180.962 618.685 181.522 619.117 181.954C619.549 182.386 620.261 182.602 621.253 182.602C622.165 182.602 622.869 182.442 623.365 182.122C623.877 181.786 624.133 181.258 624.133 180.538C624.133 179.418 623.453 178.706 622.093 178.402L620.653 178.09C619.469 177.834 618.573 177.402 617.965 176.794C617.373 176.186 617.077 175.354 617.077 174.298C617.077 173.21 617.453 172.362 618.205 171.754C618.957 171.13 619.965 170.818 621.229 170.818C621.997 170.818 622.621 170.938 623.101 171.178C623.597 171.418 623.925 171.73 624.085 172.114H624.181V171.106H625.621V174.826H624.181V173.914C624.181 172.634 623.285 171.994 621.493 171.994C620.677 171.994 620.037 172.154 619.573 172.474C619.125 172.778 618.901 173.266 618.901 173.938C618.901 174.498 619.085 174.97 619.453 175.354C619.821 175.722 620.325 175.978 620.965 176.122L622.309 176.41C623.541 176.666 624.461 177.09 625.069 177.682C625.693 178.274 626.005 179.098 626.005 180.154C626.005 180.666 625.901 181.146 625.693 181.594C625.501 182.026 625.213 182.41 624.829 182.746C624.461 183.066 624.005 183.314 623.461 183.49C622.933 183.682 622.325 183.778 621.637 183.778ZM628.148 182.386H629.924V167.098L628.148 166.786V165.946L631.892 165.25V172.954H631.988C632.084 172.714 632.228 172.466 632.42 172.21C632.612 171.954 632.852 171.722 633.14 171.514C633.444 171.306 633.788 171.138 634.172 171.01C634.572 170.882 635.02 170.818 635.516 170.818C637.004 170.818 638.068 171.21 638.708 171.994C639.348 172.762 639.668 173.922 639.668 175.474V182.386H641.444V183.49H635.924V182.386H637.7V175.642C637.7 174.474 637.468 173.61 637.004 173.05C636.54 172.474 635.804 172.186 634.796 172.186C634.444 172.186 634.092 172.234 633.74 172.33C633.404 172.426 633.092 172.578 632.804 172.786C632.532 172.994 632.308 173.25 632.132 173.554C631.972 173.858 631.892 174.218 631.892 174.634V182.386H633.668V183.49H628.148V182.386ZM646.364 174.586C647.676 174.538 648.74 174.226 649.556 173.65C650.388 173.058 650.804 172.226 650.804 171.154V170.602C650.804 169.642 650.524 168.906 649.964 168.394C649.404 167.882 648.668 167.626 647.756 167.626C647.164 167.626 646.676 167.682 646.292 167.794C645.908 167.89 645.58 168.018 645.308 168.178V168.226C645.484 168.29 645.668 168.45 645.86 168.706C646.068 168.946 646.172 169.242 646.172 169.594C646.172 170.01 646.044 170.362 645.788 170.65C645.548 170.922 645.204 171.058 644.756 171.058C644.308 171.058 643.948 170.922 643.676 170.65C643.42 170.378 643.292 169.986 643.292 169.474C643.292 169.074 643.42 168.698 643.676 168.346C643.932 167.978 644.276 167.658 644.708 167.386C645.14 167.098 645.644 166.874 646.22 166.714C646.796 166.538 647.404 166.45 648.044 166.45C648.764 166.45 649.428 166.554 650.036 166.762C650.644 166.97 651.164 167.266 651.596 167.65C652.028 168.034 652.364 168.498 652.604 169.042C652.844 169.57 652.964 170.162 652.964 170.818C652.964 171.538 652.828 172.194 652.556 172.786C652.284 173.362 651.908 173.858 651.428 174.274C650.948 174.69 650.388 175.026 649.748 175.282C649.108 175.538 648.42 175.698 647.684 175.762V178.57H646.364V174.586ZM647.036 183.778C646.572 183.778 646.204 183.642 645.932 183.37C645.676 183.082 645.548 182.738 645.548 182.338V182.194C645.548 181.794 645.676 181.458 645.932 181.186C646.204 180.898 646.572 180.754 647.036 180.754C647.5 180.754 647.86 180.898 648.116 181.186C648.388 181.458 648.524 181.794 648.524 182.194V182.338C648.524 182.738 648.388 183.082 648.116 183.37C647.86 183.642 647.5 183.778 647.036 183.778Z" fill="#313134"/>
<path d="M478.476 234.61C478.056 234.61 477.713 234.546 477.446 234.42C477.186 234.286 477.003 234.11 476.896 233.89H476.846V234.49H476.126V232.44H476.846V232.9C476.846 233.066 476.87 233.223 476.916 233.37C476.97 233.51 477.053 233.633 477.166 233.74C477.286 233.846 477.44 233.93 477.626 233.99C477.82 234.05 478.053 234.08 478.326 234.08C478.906 234.08 479.323 233.956 479.576 233.71C479.836 233.463 479.966 233.133 479.966 232.72C479.966 232.366 479.866 232.09 479.666 231.89C479.473 231.69 479.166 231.533 478.746 231.42L478.196 231.28C477.576 231.12 477.096 230.88 476.756 230.56C476.416 230.24 476.246 229.8 476.246 229.24C476.246 228.96 476.3 228.706 476.406 228.48C476.513 228.246 476.663 228.05 476.856 227.89C477.05 227.73 477.28 227.606 477.546 227.52C477.82 227.433 478.12 227.39 478.446 227.39C478.826 227.39 479.136 227.45 479.376 227.57C479.623 227.683 479.796 227.843 479.896 228.05H479.956V227.51H480.676V229.46H479.956V229C479.956 228.833 479.93 228.683 479.876 228.55C479.83 228.416 479.746 228.303 479.626 228.21C479.506 228.116 479.35 228.046 479.156 228C478.963 227.946 478.726 227.92 478.446 227.92C477.98 227.92 477.63 228.026 477.396 228.24C477.163 228.453 477.046 228.733 477.046 229.08C477.046 229.44 477.15 229.723 477.356 229.93C477.57 230.13 477.903 230.29 478.356 230.41L478.866 230.54C479.473 230.7 479.94 230.94 480.266 231.26C480.593 231.58 480.756 232 480.756 232.52C480.756 232.82 480.706 233.1 480.606 233.36C480.506 233.613 480.36 233.833 480.166 234.02C479.973 234.206 479.733 234.353 479.446 234.46C479.166 234.56 478.843 234.61 478.476 234.61ZM481.955 234.03H482.705V227.97H481.955V227.51H487.115V229.19H486.395V228H483.565V230.65H485.545V229.85H486.145V231.94H485.545V231.14H483.565V234H486.495V232.72H487.215V234.49H481.955V234.03ZM488.362 234.03H489.112V227.97H488.362V227.51H490.722V227.97H489.972V234H492.532V232.72H493.252V234.49H488.362V234.03ZM494.299 234.03H495.049V227.97H494.299V227.51H499.459V229.19H498.739V228H495.909V230.65H497.889V229.85H498.489V231.94H497.889V231.14H495.909V234H498.839V232.72H499.559V234.49H494.299V234.03ZM503.575 234.61C503.135 234.61 502.735 234.526 502.375 234.36C502.015 234.193 501.709 233.953 501.455 233.64C501.202 233.326 501.005 232.946 500.865 232.5C500.725 232.053 500.655 231.553 500.655 231C500.655 230.42 500.725 229.906 500.865 229.46C501.005 229.013 501.199 228.636 501.445 228.33C501.699 228.023 502.002 227.79 502.355 227.63C502.709 227.47 503.099 227.39 503.525 227.39C503.959 227.39 504.319 227.463 504.605 227.61C504.899 227.75 505.092 227.926 505.185 228.14H505.225V227.51H505.945V229.55H505.225V229.03C505.225 228.696 505.079 228.43 504.785 228.23C504.492 228.023 504.109 227.92 503.635 227.92C503.282 227.92 502.975 227.986 502.715 228.12C502.462 228.246 502.252 228.423 502.085 228.65C501.925 228.87 501.805 229.13 501.725 229.43C501.652 229.723 501.615 230.033 501.615 230.36V231.57C501.615 231.936 501.662 232.266 501.755 232.56C501.855 232.853 501.995 233.106 502.175 233.32C502.362 233.526 502.589 233.686 502.855 233.8C503.122 233.913 503.425 233.97 503.765 233.97C504.239 233.97 504.635 233.846 504.955 233.6C505.275 233.353 505.509 233.04 505.655 232.66L506.045 232.85C505.985 233.043 505.889 233.243 505.755 233.45C505.622 233.656 505.452 233.846 505.245 234.02C505.045 234.193 504.805 234.336 504.525 234.45C504.245 234.556 503.929 234.61 503.575 234.61ZM508.529 234.03H509.479V228H507.719V229.19H506.999V227.51H512.819V229.19H512.099V228H510.339V234.03H511.289V234.49H508.529V234.03ZM519.077 234.08C519.417 234.08 519.717 234.02 519.977 233.9C520.244 233.773 520.467 233.6 520.647 233.38C520.827 233.153 520.964 232.886 521.057 232.58C521.15 232.273 521.197 231.936 521.197 231.57V230.43C521.197 230.063 521.15 229.726 521.057 229.42C520.964 229.113 520.827 228.85 520.647 228.63C520.467 228.403 520.244 228.23 519.977 228.11C519.717 227.983 519.417 227.92 519.077 227.92C518.737 227.92 518.434 227.983 518.167 228.11C517.907 228.23 517.687 228.403 517.507 228.63C517.327 228.85 517.19 229.113 517.097 229.42C517.004 229.726 516.957 230.063 516.957 230.43V231.57C516.957 231.936 517.004 232.273 517.097 232.58C517.19 232.886 517.327 233.153 517.507 233.38C517.687 233.6 517.907 233.773 518.167 233.9C518.434 234.02 518.737 234.08 519.077 234.08ZM519.077 234.61C518.617 234.61 518.197 234.526 517.817 234.36C517.437 234.193 517.11 233.953 516.837 233.64C516.57 233.326 516.364 232.95 516.217 232.51C516.07 232.063 515.997 231.56 515.997 231C515.997 230.44 516.07 229.94 516.217 229.5C516.364 229.053 516.57 228.673 516.837 228.36C517.11 228.046 517.437 227.806 517.817 227.64C518.197 227.473 518.617 227.39 519.077 227.39C519.537 227.39 519.957 227.473 520.337 227.64C520.717 227.806 521.04 228.046 521.307 228.36C521.58 228.673 521.79 229.053 521.937 229.5C522.084 229.94 522.157 230.44 522.157 231C522.157 231.56 522.084 232.063 521.937 232.51C521.79 232.95 521.58 233.326 521.307 233.64C521.04 233.953 520.717 234.193 520.337 234.36C519.957 234.526 519.537 234.61 519.077 234.61ZM523.205 234.03H523.955V227.97H523.205V227.51H524.895L528.645 233.11H528.685V227.97H527.935V227.51H529.985V227.97H529.235V234.49H528.565L524.545 228.48H524.505V234.03H525.255V234.49H523.205V234.03ZM530.988 234.03H531.738V227.97H530.988V227.51H533.348V227.97H532.598V234H535.158V232.72H535.878V234.49H530.988V234.03ZM537.424 234.03H538.374V231.68L536.364 227.97H535.834V227.51H538.244V227.97H537.344L538.954 231.07H538.994L540.644 227.97H539.744V227.51H541.774V227.97H541.244L539.234 231.63V234.03H540.184V234.49H537.424V234.03ZM545.176 234.04H546.906V228.2L545.106 229.03L544.956 228.6L546.996 227.51H547.766V234.04H549.436V234.49H545.176V234.04Z" fill="#767677"/>
<rect width="20" height="20" transform="translate(491.026 257.99)" fill="#F5F1E8"/>
<circle cx="501.026" cy="267.99" r="9.5" stroke="#5F5F61"/>
<path d="M525.746 274.682C525.074 274.682 524.525 274.58 524.098 274.378C523.682 274.164 523.389 273.882 523.218 273.53H523.138V274.49H521.986V271.21H523.138V271.946C523.138 272.212 523.176 272.463 523.25 272.698C523.336 272.922 523.469 273.119 523.65 273.29C523.842 273.46 524.088 273.594 524.386 273.69C524.696 273.786 525.069 273.834 525.506 273.834C526.434 273.834 527.101 273.636 527.506 273.242C527.922 272.847 528.13 272.319 528.13 271.658C528.13 271.092 527.97 270.65 527.65 270.33C527.341 270.01 526.85 269.759 526.178 269.578L525.298 269.354C524.306 269.098 523.538 268.714 522.994 268.202C522.45 267.69 522.178 266.986 522.178 266.09C522.178 265.642 522.264 265.236 522.434 264.874C522.605 264.5 522.845 264.186 523.154 263.93C523.464 263.674 523.832 263.476 524.258 263.338C524.696 263.199 525.176 263.13 525.698 263.13C526.306 263.13 526.802 263.226 527.186 263.418C527.581 263.599 527.858 263.855 528.018 264.186H528.114V263.322H529.266V266.442H528.114V265.706C528.114 265.439 528.072 265.199 527.986 264.986C527.912 264.772 527.778 264.591 527.586 264.442C527.394 264.292 527.144 264.18 526.834 264.106C526.525 264.02 526.146 263.978 525.698 263.978C524.952 263.978 524.392 264.148 524.018 264.49C523.645 264.831 523.458 265.279 523.458 265.834C523.458 266.41 523.624 266.863 523.954 267.194C524.296 267.514 524.829 267.77 525.554 267.962L526.37 268.17C527.341 268.426 528.088 268.81 528.61 269.322C529.133 269.834 529.394 270.506 529.394 271.338C529.394 271.818 529.314 272.266 529.154 272.682C528.994 273.087 528.76 273.439 528.45 273.738C528.141 274.036 527.757 274.271 527.298 274.442C526.85 274.602 526.333 274.682 525.746 274.682ZM531.393 266.97H530.561V266.234H533.873V266.97H532.721L534.369 273.21H534.433L536.433 266.234H537.537L539.377 273.21H539.441L541.121 266.97H539.969V266.234H542.737V266.97H541.905L539.809 274.49H538.529L536.753 268.01H536.689L534.753 274.49H533.473L531.393 266.97ZM547.225 274.682C546.638 274.682 546.11 274.58 545.641 274.378C545.182 274.164 544.793 273.871 544.473 273.498C544.153 273.124 543.907 272.671 543.737 272.138C543.566 271.604 543.481 271.012 543.481 270.362C543.481 269.722 543.571 269.14 543.753 268.618C543.945 268.084 544.201 267.626 544.521 267.242C544.851 266.858 545.241 266.564 545.689 266.362C546.137 266.148 546.627 266.042 547.161 266.042C547.705 266.042 548.19 266.138 548.617 266.33C549.043 266.522 549.401 266.794 549.689 267.146C549.987 267.487 550.217 267.898 550.377 268.378C550.537 268.858 550.617 269.38 550.617 269.946V270.314H544.937V270.73C544.937 271.636 545.161 272.351 545.609 272.874C546.067 273.396 546.675 273.658 547.433 273.658C548.094 273.658 548.617 273.524 549.001 273.258C549.395 272.98 549.705 272.623 549.929 272.186L550.457 272.522C550.35 272.799 550.201 273.071 550.009 273.338C549.827 273.594 549.603 273.823 549.337 274.026C549.07 274.218 548.761 274.372 548.409 274.49C548.057 274.618 547.662 274.682 547.225 274.682ZM544.937 269.578H549.241V269.418C549.241 269.044 549.198 268.698 549.113 268.378C549.038 268.058 548.915 267.78 548.745 267.546C548.574 267.311 548.355 267.13 548.089 267.002C547.833 266.863 547.523 266.794 547.161 266.794C546.798 266.794 546.478 266.858 546.201 266.986C545.923 267.114 545.689 267.295 545.497 267.53C545.315 267.764 545.177 268.042 545.081 268.362C544.985 268.671 544.937 269.012 544.937 269.386V269.578ZM555.803 274.682C555.216 274.682 554.688 274.58 554.219 274.378C553.76 274.164 553.371 273.871 553.051 273.498C552.731 273.124 552.486 272.671 552.315 272.138C552.144 271.604 552.059 271.012 552.059 270.362C552.059 269.722 552.15 269.14 552.331 268.618C552.523 268.084 552.779 267.626 553.099 267.242C553.43 266.858 553.819 266.564 554.267 266.362C554.715 266.148 555.206 266.042 555.739 266.042C556.283 266.042 556.768 266.138 557.195 266.33C557.622 266.522 557.979 266.794 558.267 267.146C558.566 267.487 558.795 267.898 558.955 268.378C559.115 268.858 559.195 269.38 559.195 269.946V270.314H553.515V270.73C553.515 271.636 553.739 272.351 554.187 272.874C554.646 273.396 555.254 273.658 556.011 273.658C556.672 273.658 557.195 273.524 557.579 273.258C557.974 272.98 558.283 272.623 558.507 272.186L559.035 272.522C558.928 272.799 558.779 273.071 558.587 273.338C558.406 273.594 558.182 273.823 557.915 274.026C557.648 274.218 557.339 274.372 556.987 274.49C556.635 274.618 556.24 274.682 555.803 274.682ZM553.515 269.578H557.819V269.418C557.819 269.044 557.776 268.698 557.691 268.378C557.616 268.058 557.494 267.78 557.323 267.546C557.152 267.311 556.934 267.13 556.667 267.002C556.411 266.863 556.102 266.794 555.739 266.794C555.376 266.794 555.056 266.858 554.779 266.986C554.502 267.114 554.267 267.295 554.075 267.53C553.894 267.764 553.755 268.042 553.659 268.362C553.563 268.671 553.515 269.012 553.515 269.386V269.578ZM563.149 274.586C562.584 274.586 562.194 274.474 561.981 274.25C561.768 274.015 561.661 273.62 561.661 273.066V267.018H560.605V266.234H560.749C560.973 266.234 561.149 266.218 561.277 266.186C561.416 266.154 561.522 266.111 561.597 266.058C561.682 265.994 561.741 265.919 561.773 265.834C561.816 265.738 561.853 265.631 561.885 265.514L562.253 264.09H562.973V266.234H565.101V267.018H562.973V273.706H565.101V274.234C565.005 274.287 564.882 274.335 564.733 274.378C564.594 274.42 564.434 274.458 564.253 274.49C564.082 274.522 563.901 274.543 563.709 274.554C563.517 274.575 563.33 274.586 563.149 274.586Z" fill="#313134"/>
<rect width="20" height="20" transform="translate(491.526 298.99)" fill="#F5F1E8"/>
<circle cx="501.526" cy="308.99" r="9.5" stroke="#5F5F61"/>
<path d="M522.406 314.754H523.606V305.058H522.406V304.322H530.662V307.01H529.51V305.106H524.982V309.586H528.15V308.306H529.11V311.65H528.15V310.37H524.982V314.754H526.502V315.49H522.406V314.754ZM531.936 314.754H533.12V308.274L531.936 308.066V307.522L534.4 307.042V308.482H534.48C534.554 308.311 534.645 308.14 534.752 307.97C534.869 307.799 535.008 307.644 535.168 307.506C535.338 307.367 535.53 307.255 535.744 307.17C535.968 307.084 536.224 307.042 536.512 307.042C536.981 307.042 537.354 307.154 537.632 307.378C537.92 307.602 538.064 307.927 538.064 308.354C538.064 308.674 537.984 308.924 537.824 309.106C537.664 309.287 537.456 309.378 537.2 309.378C536.912 309.378 536.682 309.303 536.512 309.154C536.341 308.994 536.256 308.791 536.256 308.546C536.256 308.332 536.298 308.162 536.384 308.034C536.48 307.895 536.586 307.815 536.704 307.794V307.762C536.661 307.751 536.608 307.746 536.544 307.746C536.48 307.735 536.4 307.73 536.304 307.73C536.08 307.73 535.856 307.788 535.632 307.906C535.408 308.012 535.205 308.156 535.024 308.338C534.853 308.508 534.709 308.706 534.592 308.93C534.485 309.154 534.432 309.378 534.432 309.602V314.754H535.936V315.49H531.936V314.754ZM542.693 315.682C542.107 315.682 541.579 315.58 541.109 315.378C540.651 315.164 540.261 314.871 539.941 314.498C539.621 314.124 539.376 313.671 539.205 313.138C539.035 312.604 538.949 312.012 538.949 311.362C538.949 310.722 539.04 310.14 539.221 309.618C539.413 309.084 539.669 308.626 539.989 308.242C540.32 307.858 540.709 307.564 541.157 307.362C541.605 307.148 542.096 307.042 542.629 307.042C543.173 307.042 543.659 307.138 544.085 307.33C544.512 307.522 544.869 307.794 545.157 308.146C545.456 308.487 545.685 308.898 545.845 309.378C546.005 309.858 546.085 310.38 546.085 310.946V311.314H540.405V311.73C540.405 312.636 540.629 313.351 541.077 313.874C541.536 314.396 542.144 314.658 542.901 314.658C543.563 314.658 544.085 314.524 544.469 314.258C544.864 313.98 545.173 313.623 545.397 313.186L545.925 313.522C545.819 313.799 545.669 314.071 545.477 314.338C545.296 314.594 545.072 314.823 544.805 315.026C544.539 315.218 544.229 315.372 543.877 315.49C543.525 315.618 543.131 315.682 542.693 315.682ZM540.405 310.578H544.709V310.418C544.709 310.044 544.667 309.698 544.581 309.378C544.507 309.058 544.384 308.78 544.213 308.546C544.043 308.311 543.824 308.13 543.557 308.002C543.301 307.863 542.992 307.794 542.629 307.794C542.267 307.794 541.947 307.858 541.669 307.986C541.392 308.114 541.157 308.295 540.965 308.53C540.784 308.764 540.645 309.042 540.549 309.362C540.453 309.671 540.405 310.012 540.405 310.386V310.578ZM550.84 315.682C550.338 315.682 549.901 315.58 549.528 315.378C549.154 315.164 548.909 314.93 548.792 314.674H548.728V315.49H547.768V313.01H548.728V313.346C548.728 313.804 548.872 314.178 549.16 314.466C549.448 314.754 549.922 314.898 550.584 314.898C551.192 314.898 551.661 314.791 551.992 314.578C552.333 314.354 552.504 314.002 552.504 313.522C552.504 312.775 552.05 312.3 551.144 312.098L550.184 311.89C549.394 311.719 548.797 311.431 548.392 311.026C547.997 310.62 547.8 310.066 547.8 309.362C547.8 308.636 548.05 308.071 548.552 307.666C549.053 307.25 549.725 307.042 550.568 307.042C551.08 307.042 551.496 307.122 551.816 307.282C552.146 307.442 552.365 307.65 552.472 307.906H552.536V307.234H553.496V309.714H552.536V309.106C552.536 308.252 551.938 307.826 550.744 307.826C550.2 307.826 549.773 307.932 549.464 308.146C549.165 308.348 549.016 308.674 549.016 309.122C549.016 309.495 549.138 309.81 549.384 310.066C549.629 310.311 549.965 310.482 550.392 310.578L551.288 310.77C552.109 310.94 552.722 311.223 553.128 311.618C553.544 312.012 553.752 312.562 553.752 313.266C553.752 313.607 553.682 313.927 553.544 314.226C553.416 314.514 553.224 314.77 552.968 314.994C552.722 315.207 552.418 315.372 552.056 315.49C551.704 315.618 551.298 315.682 550.84 315.682ZM555.18 314.754H556.364V304.562L555.18 304.354V303.794L557.676 303.33V308.466H557.74C557.804 308.306 557.9 308.14 558.028 307.97C558.156 307.799 558.316 307.644 558.508 307.506C558.711 307.367 558.94 307.255 559.196 307.17C559.463 307.084 559.761 307.042 560.092 307.042C561.084 307.042 561.793 307.303 562.22 307.826C562.647 308.338 562.86 309.111 562.86 310.146V314.754H564.044V315.49H560.364V314.754H561.548V310.258C561.548 309.479 561.393 308.903 561.084 308.53C560.775 308.146 560.284 307.954 559.612 307.954C559.377 307.954 559.143 307.986 558.908 308.05C558.684 308.114 558.476 308.215 558.284 308.354C558.103 308.492 557.953 308.663 557.836 308.866C557.729 309.068 557.676 309.308 557.676 309.586V314.754H558.86V315.49H555.18V314.754Z" fill="#313134"/>
<path d="M598.526 368.49C598.526 362.967 603.004 358.49 608.526 358.49L644.526 358.49C650.049 358.49 654.526 362.967 654.526 368.49L654.526 379.49C654.526 385.012 650.049 389.49 644.526 389.49L608.526 389.49C603.004 389.49 598.526 385.012 598.526 379.49L598.526 368.49Z" fill="#313134"/>
<path d="M609.406 379.754H610.606V370.058H609.406V369.322H612.11L618.11 378.282H618.174V370.058H616.974V369.322H620.254V370.058H619.054V380.49H617.982L611.55 370.874H611.486V379.754H612.686V380.49H609.406V379.754ZM625.365 380.682C624.779 380.682 624.251 380.58 623.781 380.378C623.323 380.164 622.933 379.871 622.613 379.498C622.293 379.124 622.048 378.671 621.877 378.138C621.707 377.604 621.621 377.012 621.621 376.362C621.621 375.722 621.712 375.14 621.893 374.618C622.085 374.084 622.341 373.626 622.661 373.242C622.992 372.858 623.381 372.564 623.829 372.362C624.277 372.148 624.768 372.042 625.301 372.042C625.845 372.042 626.331 372.138 626.757 372.33C627.184 372.522 627.541 372.794 627.829 373.146C628.128 373.487 628.357 373.898 628.517 374.378C628.677 374.858 628.757 375.38 628.757 375.946V376.314H623.077V376.73C623.077 377.636 623.301 378.351 623.749 378.874C624.208 379.396 624.816 379.658 625.573 379.658C626.235 379.658 626.757 379.524 627.141 379.258C627.536 378.98 627.845 378.623 628.069 378.186L628.597 378.522C628.491 378.799 628.341 379.071 628.149 379.338C627.968 379.594 627.744 379.823 627.477 380.026C627.211 380.218 626.901 380.372 626.549 380.49C626.197 380.618 625.803 380.682 625.365 380.682ZM623.077 375.578H627.381V375.418C627.381 375.044 627.339 374.698 627.253 374.378C627.179 374.058 627.056 373.78 626.885 373.546C626.715 373.311 626.496 373.13 626.229 373.002C625.973 372.863 625.664 372.794 625.301 372.794C624.939 372.794 624.619 372.858 624.341 372.986C624.064 373.114 623.829 373.295 623.637 373.53C623.456 373.764 623.317 374.042 623.221 374.362C623.125 374.671 623.077 375.012 623.077 375.386V375.578ZM629.819 379.754H630.731L633.147 376.458L630.699 372.97H629.867V372.234H633.227V372.97H632.283L634.075 375.594H634.139L635.835 372.97H634.843V372.234H637.739V372.97H636.827L634.539 376.218L636.987 379.754H637.819V380.49H634.443V379.754H635.387L633.611 377.082H633.547L631.723 379.754H632.715V380.49H629.819V379.754ZM641.524 380.586C640.959 380.586 640.569 380.474 640.356 380.25C640.143 380.015 640.036 379.62 640.036 379.066V373.018H638.98V372.234H639.124C639.348 372.234 639.524 372.218 639.652 372.186C639.791 372.154 639.897 372.111 639.972 372.058C640.057 371.994 640.116 371.919 640.148 371.834C640.191 371.738 640.228 371.631 640.26 371.514L640.628 370.09H641.348V372.234H643.476V373.018H641.348V379.706H643.476V380.234C643.38 380.287 643.257 380.335 643.108 380.378C642.969 380.42 642.809 380.458 642.628 380.49C642.457 380.522 642.276 380.543 642.084 380.554C641.892 380.575 641.705 380.586 641.524 380.586Z" fill="#F5F1E8"/>
</g>
<defs>
<filter id="filter0_d_122_844" x="-2.47412" y="-2.47412" width="1062.99" height="518.313" filterUnits="userSpaceOnUse" color-interpolation-filters="sRGB">
<feFlood flood-opacity="0" result="BackgroundImageFix"/>
<feColorMatrix in="SourceAlpha" type="matrix" values="0 0 0 0 0 0 0 0 0 0 0 0 0 0 0 0 0 0 127 0" result="hardAlpha"/>
<feOffset dy="4"/>
<feGaussianBlur stdDeviation="10"/>
<feComposite in2="hardAlpha" operator="out"/>
<feColorMatrix type="matrix" values="0 0 0 0 0 0 0 0 0 0 0 0 0 0 0 0 0 0 0.1 0"/>
<feBlend mode="normal" in2="BackgroundImageFix" result="effect1_dropShadow_122_844"/>
<feBlend mode="normal" in="SourceGraphic" in2="effect1_dropShadow_122_844" result="shape"/>
</filter>
<filter id="filter1_d_122_844" x="20.5256" y="14.4407" width="1052.89" height="485.071" filterUnits="userSpaceOnUse" color-interpolation-filters="sRGB">
<feFlood flood-opacity="0" result="BackgroundImageFix"/>
<feColorMatrix in="SourceAlpha" type="matrix" values="0 0 0 0 0 0 0 0 0 0 0 0 0 0 0 0 0 0 127 0" result="hardAlpha"/>
<feOffset dy="4"/>
<feGaussianBlur stdDeviation="10"/>
<feComposite in2="hardAlpha" operator="out"/>
<feColorMatrix type="matrix" values="0 0 0 0 0 0 0 0 0 0 0 0 0 0 0 0 0 0 0.1 0"/>
<feBlend mode="normal" in2="BackgroundImageFix" result="effect1_dropShadow_122_844"/>
<feBlend mode="normal" in="SourceGraphic" in2="effect1_dropShadow_122_844" result="shape"/>
</filter>
<filter id="filter2_d_122_844" x="39.8872" y="28.3818" width="1041.55" height="451.286" filterUnits="userSpaceOnUse" color-interpolation-filters="sRGB">
<feFlood flood-opacity="0" result="BackgroundImageFix"/>
<feColorMatrix in="SourceAlpha" type="matrix" values="0 0 0 0 0 0 0 0 0 0 0 0 0 0 0 0 0 0 127 0" result="hardAlpha"/>
<feOffset dy="4"/>
<feGaussianBlur stdDeviation="10"/>
<feComposite in2="hardAlpha" operator="out"/>
<feColorMatrix type="matrix" values="0 0 0 0 0 0 0 0 0 0 0 0 0 0 0 0 0 0 0.1 0"/>
<feBlend mode="normal" in2="BackgroundImageFix" result="effect1_dropShadow_122_844"/>
<feBlend mode="normal" in="SourceGraphic" in2="effect1_dropShadow_122_844" result="shape"/>
</filter>
<filter id="filter3_d_122_844" x="50.5264" y="45.4895" width="1029" height="417" filterUnits="userSpaceOnUse" color-interpolation-filters="sRGB">
<feFlood flood-opacity="0" result="BackgroundImageFix"/>
<feColorMatrix in="SourceAlpha" type="matrix" values="0 0 0 0 0 0 0 0 0 0 0 0 0 0 0 0 0 0 127 0" result="hardAlpha"/>
<feOffset dy="4"/>
<feGaussianBlur stdDeviation="10"/>
<feComposite in2="hardAlpha" operator="out"/>
<feColorMatrix type="matrix" values="0 0 0 0 0 0 0 0 0 0 0 0 0 0 0 0 0 0 0.1 0"/>
<feBlend mode="normal" in2="BackgroundImageFix" result="effect1_dropShadow_122_844"/>
<feBlend mode="normal" in="SourceGraphic" in2="effect1_dropShadow_122_844" result="shape"/>
</filter>
</defs>
</svg>
