<svg width="1040" height="450" viewBox="0 0 1040 450" fill="none" xmlns="http://www.w3.org/2000/svg">
<g filter="url(#filter0_d_122_842)">
<path d="M31.4276 40.1278C31.9094 26.3291 43.4861 15.5337 57.2848 16.0156L995.713 48.7862C1009.51 49.268 1020.31 60.8447 1019.83 74.6434L1008.41 401.444C1007.93 415.243 996.354 426.038 982.556 425.557L44.1277 392.786C30.329 392.304 19.5336 380.727 20.0154 366.929L31.4276 40.1278Z" fill="#F5F1E8"/>
</g>
<g filter="url(#filter1_d_122_842)">
<path d="M29.7817 57.2505C29.7817 43.4434 40.9746 32.2505 54.7817 32.2505L993.782 32.2505C1007.59 32.2505 1018.78 43.4434 1018.78 57.2505L1018.78 384.25C1018.78 398.058 1007.59 409.25 993.782 409.25L54.7817 409.25C40.9746 409.25 29.7817 398.058 29.7817 384.25L29.7817 57.2505Z" fill="#F5F1E8" shape-rendering="crispEdges"/>
<path d="M469.282 61.7505C469.282 60.9221 469.953 60.2505 470.782 60.2505H487.782C488.61 60.2505 489.282 60.9221 489.282 61.7505C489.282 62.5789 488.61 63.2505 487.782 63.2505H470.782C469.953 63.2505 469.282 62.5789 469.282 61.7505Z" fill="#D1B577"/>
<path d="M499.282 61.7505C499.282 60.9221 499.953 60.2505 500.782 60.2505H517.782C518.61 60.2505 519.282 60.9221 519.282 61.7505C519.282 62.5789 518.61 63.2505 517.782 63.2505H500.782C499.953 63.2505 499.282 62.5789 499.282 61.7505Z" fill="#D1B577"/>
<path d="M529.282 61.7505C529.282 60.9221 529.953 60.2505 530.782 60.2505H547.782C548.61 60.2505 549.282 60.9221 549.282 61.7505C549.282 62.5789 548.61 63.2505 547.782 63.2505H530.782C529.953 63.2505 529.282 62.5789 529.282 61.7505Z" fill="#D1B577"/>
<path d="M559.282 61.7505C559.282 60.9221 559.953 60.2505 560.782 60.2505H577.782C578.61 60.2505 579.282 60.9221 579.282 61.7505C579.282 62.5789 578.61 63.2505 577.782 63.2505H560.782C559.953 63.2505 559.282 62.5789 559.282 61.7505Z" fill="#E1E1E1"/>
<path d="M443.006 123.018C442.696 123.018 442.43 122.997 442.206 122.954C441.982 122.912 441.779 122.842 441.598 122.746C441.427 122.661 441.272 122.544 441.134 122.394C440.995 122.256 440.856 122.085 440.718 121.882L439.694 120.378C439.064 120.282 438.499 120.085 437.998 119.786C437.496 119.477 437.064 119.082 436.702 118.602C436.339 118.112 436.062 117.536 435.87 116.874C435.678 116.213 435.582 115.477 435.582 114.666C435.582 113.77 435.699 112.97 435.934 112.266C436.168 111.552 436.499 110.944 436.926 110.442C437.363 109.941 437.886 109.557 438.494 109.29C439.102 109.024 439.774 108.89 440.51 108.89C441.246 108.89 441.918 109.024 442.526 109.29C443.134 109.557 443.651 109.941 444.078 110.442C444.515 110.944 444.851 111.552 445.086 112.266C445.32 112.97 445.438 113.77 445.438 114.666C445.438 115.488 445.336 116.234 445.134 116.906C444.931 117.578 444.643 118.16 444.27 118.65C443.907 119.141 443.464 119.536 442.942 119.834C442.419 120.133 441.832 120.32 441.182 120.394L441.902 121.386C442.019 121.557 442.126 121.696 442.222 121.802C442.328 121.92 442.435 122.01 442.542 122.074C442.659 122.149 442.782 122.202 442.91 122.234C443.038 122.266 443.192 122.282 443.374 122.282H443.854V123.018H443.006ZM440.51 119.594C441.054 119.594 441.534 119.498 441.95 119.306C442.376 119.104 442.734 118.826 443.022 118.474C443.31 118.112 443.528 117.685 443.678 117.194C443.827 116.704 443.902 116.165 443.902 115.578V113.754C443.902 113.168 443.827 112.629 443.678 112.138C443.528 111.648 443.31 111.226 443.022 110.874C442.734 110.512 442.376 110.234 441.95 110.042C441.534 109.84 441.054 109.738 440.51 109.738C439.966 109.738 439.48 109.84 439.054 110.042C438.638 110.234 438.286 110.512 437.998 110.874C437.71 111.226 437.491 111.648 437.342 112.138C437.192 112.629 437.118 113.168 437.118 113.754V115.578C437.118 116.165 437.192 116.704 437.342 117.194C437.491 117.685 437.71 118.112 437.998 118.474C438.286 118.826 438.638 119.104 439.054 119.306C439.48 119.498 439.966 119.594 440.51 119.594ZM447.816 120.442C447.507 120.442 447.262 120.352 447.08 120.17C446.91 119.978 446.824 119.749 446.824 119.482V119.386C446.824 119.12 446.91 118.896 447.08 118.714C447.262 118.522 447.507 118.426 447.816 118.426C448.126 118.426 448.366 118.522 448.536 118.714C448.718 118.896 448.808 119.12 448.808 119.386V119.482C448.808 119.749 448.718 119.978 448.536 120.17C448.366 120.352 448.126 120.442 447.816 120.442ZM454.754 119.658C455.202 119.658 455.58 119.573 455.89 119.402C456.21 119.221 456.466 118.965 456.658 118.634C456.86 118.304 457.004 117.904 457.09 117.434C457.186 116.954 457.234 116.421 457.234 115.834V113.498C457.234 112.912 457.186 112.384 457.09 111.914C457.004 111.434 456.86 111.029 456.658 110.698C456.466 110.368 456.21 110.117 455.89 109.946C455.58 109.765 455.202 109.674 454.754 109.674C454.306 109.674 453.922 109.765 453.602 109.946C453.292 110.117 453.036 110.368 452.834 110.698C452.642 111.029 452.498 111.434 452.402 111.914C452.316 112.384 452.274 112.912 452.274 113.498V115.834C452.274 116.421 452.316 116.954 452.402 117.434C452.498 117.904 452.642 118.304 452.834 118.634C453.036 118.965 453.292 119.221 453.602 119.402C453.922 119.573 454.306 119.658 454.754 119.658ZM454.754 120.442C453.474 120.442 452.487 119.952 451.794 118.97C451.111 117.989 450.77 116.554 450.77 114.666C450.77 112.778 451.111 111.344 451.794 110.362C452.487 109.381 453.474 108.89 454.754 108.89C456.034 108.89 457.015 109.381 457.698 110.362C458.391 111.344 458.738 112.778 458.738 114.666C458.738 116.554 458.391 117.989 457.698 118.97C457.015 119.952 456.034 120.442 454.754 120.442ZM463.883 120.442C463.382 120.442 462.929 120.384 462.523 120.266C462.118 120.149 461.771 119.994 461.483 119.802C461.195 119.61 460.971 119.397 460.811 119.162C460.662 118.917 460.587 118.672 460.587 118.426C460.587 118.106 460.678 117.85 460.859 117.658C461.041 117.466 461.27 117.37 461.547 117.37C461.835 117.37 462.065 117.466 462.235 117.658C462.417 117.84 462.507 118.074 462.507 118.362C462.507 118.576 462.443 118.768 462.315 118.938C462.198 119.109 462.07 119.221 461.931 119.274V119.306C462.113 119.413 462.347 119.498 462.635 119.562C462.934 119.626 463.286 119.658 463.691 119.658C464.523 119.658 465.174 119.477 465.643 119.114C466.123 118.741 466.363 118.202 466.363 117.498V116.954C466.363 116.282 466.145 115.76 465.707 115.386C465.281 115.002 464.657 114.81 463.835 114.81H462.539V114.026H463.739C464.518 114.026 465.11 113.845 465.515 113.482C465.921 113.109 466.123 112.645 466.123 112.09V111.482C466.123 110.874 465.926 110.421 465.531 110.122C465.147 109.824 464.63 109.674 463.979 109.674C463.585 109.674 463.238 109.706 462.939 109.77C462.651 109.834 462.422 109.92 462.251 110.026V110.058C462.401 110.122 462.534 110.24 462.651 110.41C462.769 110.581 462.827 110.773 462.827 110.986C462.827 111.264 462.737 111.498 462.555 111.69C462.374 111.872 462.139 111.962 461.851 111.962C461.563 111.962 461.334 111.866 461.163 111.674C460.993 111.482 460.907 111.226 460.907 110.906C460.907 110.661 460.982 110.421 461.131 110.186C461.281 109.941 461.489 109.722 461.755 109.53C462.033 109.338 462.363 109.184 462.747 109.066C463.142 108.949 463.579 108.89 464.059 108.89C464.55 108.89 465.009 108.949 465.435 109.066C465.873 109.184 466.251 109.36 466.571 109.594C466.902 109.829 467.158 110.122 467.339 110.474C467.531 110.826 467.627 111.237 467.627 111.706C467.627 112.069 467.558 112.4 467.419 112.698C467.291 112.986 467.115 113.237 466.891 113.45C466.678 113.664 466.427 113.845 466.139 113.994C465.862 114.133 465.569 114.24 465.259 114.314V114.378C465.579 114.442 465.894 114.549 466.203 114.698C466.513 114.837 466.79 115.024 467.035 115.258C467.281 115.493 467.478 115.776 467.627 116.106C467.787 116.426 467.867 116.794 467.867 117.21C467.867 117.712 467.771 118.165 467.579 118.57C467.387 118.965 467.115 119.301 466.763 119.578C466.411 119.856 465.99 120.069 465.499 120.218C465.009 120.368 464.47 120.442 463.883 120.442Z" fill="#767677"/>
<path d="M443.374 153.266C444.19 153.266 444.91 153.122 445.534 152.834C446.174 152.53 446.71 152.114 447.142 151.586C447.574 151.042 447.902 150.402 448.126 149.666C448.35 148.93 448.462 148.122 448.462 147.242V144.506C448.462 143.626 448.35 142.818 448.126 142.082C447.902 141.346 447.574 140.714 447.142 140.186C446.71 139.642 446.174 139.226 445.534 138.938C444.91 138.634 444.19 138.482 443.374 138.482C442.558 138.482 441.83 138.634 441.19 138.938C440.566 139.226 440.038 139.642 439.606 140.186C439.174 140.714 438.846 141.346 438.622 142.082C438.398 142.818 438.286 143.626 438.286 144.506V147.242C438.286 148.122 438.398 148.93 438.622 149.666C438.846 150.402 439.174 151.042 439.606 151.586C440.038 152.114 440.566 152.53 441.19 152.834C441.83 153.122 442.558 153.266 443.374 153.266ZM443.374 154.538C442.27 154.538 441.262 154.338 440.35 153.938C439.438 153.538 438.654 152.962 437.998 152.21C437.358 151.458 436.862 150.554 436.51 149.498C436.158 148.426 435.982 147.218 435.982 145.874C435.982 144.53 436.158 143.33 436.51 142.274C436.862 141.202 437.358 140.29 437.998 139.538C438.654 138.786 439.438 138.21 440.35 137.81C441.262 137.41 442.27 137.21 443.374 137.21C444.478 137.21 445.486 137.41 446.398 137.81C447.31 138.21 448.086 138.786 448.726 139.538C449.382 140.29 449.886 141.202 450.238 142.274C450.59 143.33 450.766 144.53 450.766 145.874C450.766 147.218 450.59 148.426 450.238 149.498C449.886 150.554 449.382 151.458 448.726 152.21C448.086 152.962 447.31 153.538 446.398 153.938C445.486 154.338 444.478 154.538 443.374 154.538ZM453.041 153.146H454.817V143.042H453.041V141.866H454.817V139.922C454.817 139.346 454.913 138.818 455.105 138.338C455.297 137.858 455.561 137.45 455.897 137.114C456.249 136.762 456.657 136.49 457.121 136.298C457.601 136.106 458.121 136.01 458.681 136.01C459.545 136.01 460.225 136.178 460.721 136.514C461.233 136.85 461.489 137.33 461.489 137.954C461.489 138.37 461.369 138.706 461.129 138.962C460.905 139.202 460.609 139.322 460.241 139.322C459.889 139.322 459.601 139.21 459.377 138.986C459.169 138.762 459.065 138.49 459.065 138.17C459.065 137.61 459.281 137.242 459.713 137.066V137.018C459.601 136.986 459.473 136.962 459.329 136.946C459.185 136.93 459.025 136.922 458.849 136.922C458.177 136.922 457.665 137.162 457.313 137.642C456.961 138.122 456.785 138.794 456.785 139.658V141.866H459.473V143.042H456.785V153.146H459.041V154.25H453.041V153.146ZM461.245 153.146H463.021V143.042H461.245V141.866H463.021V141.17C463.021 139.57 463.493 138.314 464.437 137.402C465.397 136.474 466.781 136.01 468.589 136.01C469.933 136.01 470.941 136.218 471.613 136.634C472.285 137.05 472.621 137.586 472.621 138.242C472.621 138.642 472.501 138.97 472.261 139.226C472.021 139.466 471.717 139.586 471.349 139.586C470.981 139.586 470.693 139.474 470.485 139.25C470.277 139.026 470.173 138.754 470.173 138.434C470.173 137.874 470.405 137.506 470.869 137.33V137.282C470.645 137.186 470.381 137.106 470.077 137.042C469.773 136.978 469.301 136.946 468.661 136.946C468.069 136.946 467.541 137.05 467.077 137.258C466.629 137.45 466.245 137.722 465.925 138.074C465.621 138.41 465.389 138.818 465.229 139.298C465.069 139.778 464.989 140.306 464.989 140.882V141.866H468.877L472.645 141.578V153.146H474.421V154.25H468.901V153.146H470.677V143.042H464.989V153.146H466.765V154.25H461.245V153.146ZM482.072 154.538C481.176 154.538 480.376 154.386 479.672 154.082C478.984 153.762 478.4 153.322 477.92 152.762C477.44 152.186 477.072 151.506 476.816 150.722C476.56 149.922 476.432 149.034 476.432 148.058C476.432 147.066 476.568 146.17 476.84 145.37C477.128 144.57 477.528 143.89 478.04 143.33C478.552 142.77 479.16 142.338 479.864 142.034C480.584 141.73 481.376 141.578 482.24 141.578C483.536 141.578 484.56 141.858 485.312 142.418C486.08 142.962 486.464 143.658 486.464 144.506C486.464 145.018 486.328 145.418 486.056 145.706C485.8 145.994 485.44 146.138 484.976 146.138C484.48 146.138 484.112 145.994 483.872 145.706C483.632 145.418 483.512 145.074 483.512 144.674C483.512 144.322 483.6 144.018 483.776 143.762C483.952 143.506 484.2 143.306 484.52 143.162V143.09C484.312 142.962 484.04 142.866 483.704 142.802C483.384 142.738 482.968 142.706 482.456 142.706C481.896 142.706 481.376 142.81 480.896 143.018C480.432 143.226 480.032 143.522 479.696 143.906C479.36 144.274 479.096 144.714 478.904 145.226C478.712 145.722 478.616 146.266 478.616 146.858V148.634C478.616 149.29 478.704 149.89 478.88 150.434C479.056 150.962 479.304 151.418 479.624 151.802C479.96 152.186 480.352 152.482 480.8 152.69C481.264 152.898 481.784 153.002 482.36 153.002C483.336 153.002 484.104 152.802 484.664 152.402C485.224 151.986 485.672 151.45 486.008 150.794L486.776 151.298C486.632 151.714 486.424 152.122 486.152 152.522C485.88 152.906 485.552 153.25 485.168 153.554C484.784 153.842 484.328 154.074 483.8 154.25C483.288 154.442 482.712 154.538 482.072 154.538ZM494.189 154.538C493.309 154.538 492.517 154.386 491.813 154.082C491.125 153.762 490.541 153.322 490.061 152.762C489.581 152.202 489.213 151.522 488.957 150.722C488.701 149.922 488.573 149.034 488.573 148.058C488.573 147.098 488.709 146.226 488.981 145.442C489.269 144.642 489.653 143.954 490.133 143.378C490.629 142.802 491.213 142.362 491.885 142.058C492.557 141.738 493.293 141.578 494.093 141.578C494.909 141.578 495.637 141.722 496.277 142.01C496.917 142.298 497.453 142.706 497.885 143.234C498.333 143.746 498.677 144.362 498.917 145.082C499.157 145.802 499.277 146.586 499.277 147.434V147.986H490.757V148.61C490.757 149.97 491.093 151.042 491.765 151.826C492.453 152.61 493.365 153.002 494.501 153.002C495.493 153.002 496.277 152.802 496.853 152.402C497.445 151.986 497.909 151.45 498.245 150.794L499.037 151.298C498.877 151.714 498.653 152.122 498.365 152.522C498.093 152.906 497.757 153.25 497.357 153.554C496.957 153.842 496.493 154.074 495.965 154.25C495.437 154.442 494.845 154.538 494.189 154.538ZM490.757 146.882H497.213V146.642C497.213 146.082 497.149 145.562 497.021 145.082C496.909 144.602 496.725 144.186 496.469 143.834C496.213 143.482 495.885 143.21 495.485 143.018C495.101 142.81 494.637 142.706 494.093 142.706C493.549 142.706 493.069 142.802 492.653 142.994C492.237 143.186 491.885 143.458 491.597 143.81C491.325 144.162 491.117 144.578 490.973 145.058C490.829 145.522 490.757 146.034 490.757 146.594V146.882ZM512.706 153.362C513.298 153.362 513.81 153.266 514.242 153.074C514.69 152.866 515.05 152.586 515.322 152.234C515.61 151.866 515.818 151.442 515.946 150.962C516.09 150.466 516.162 149.93 516.162 149.354V146.762C516.162 146.186 516.09 145.658 515.946 145.178C515.818 144.682 515.61 144.258 515.322 143.906C515.05 143.538 514.69 143.258 514.242 143.066C513.81 142.858 513.298 142.754 512.706 142.754C512.098 142.754 511.578 142.858 511.146 143.066C510.714 143.258 510.354 143.538 510.066 143.906C509.794 144.258 509.586 144.682 509.442 145.178C509.314 145.658 509.25 146.186 509.25 146.762V149.354C509.25 149.93 509.314 150.466 509.442 150.962C509.586 151.442 509.794 151.866 510.066 152.234C510.354 152.586 510.714 152.866 511.146 153.074C511.578 153.266 512.098 153.362 512.706 153.362ZM512.706 154.538C511.858 154.538 511.082 154.386 510.378 154.082C509.674 153.778 509.074 153.346 508.578 152.786C508.082 152.21 507.698 151.53 507.426 150.746C507.154 149.946 507.018 149.05 507.018 148.058C507.018 147.082 507.154 146.194 507.426 145.394C507.698 144.594 508.082 143.914 508.578 143.354C509.074 142.778 509.674 142.338 510.378 142.034C511.082 141.73 511.858 141.578 512.706 141.578C513.554 141.578 514.33 141.73 515.034 142.034C515.738 142.338 516.338 142.778 516.834 143.354C517.33 143.914 517.714 144.594 517.986 145.394C518.258 146.194 518.394 147.082 518.394 148.058C518.394 149.05 518.258 149.946 517.986 150.746C517.714 151.53 517.33 152.21 516.834 152.786C516.338 153.346 515.738 153.778 515.034 154.082C514.33 154.386 513.554 154.538 512.706 154.538ZM520.685 153.146H522.461V143.426L520.685 143.114V142.298L524.381 141.578V143.738H524.501C524.613 143.482 524.749 143.226 524.909 142.97C525.085 142.714 525.293 142.482 525.533 142.274C525.789 142.066 526.077 141.898 526.397 141.77C526.733 141.642 527.117 141.578 527.549 141.578C528.253 141.578 528.813 141.746 529.229 142.082C529.661 142.418 529.877 142.906 529.877 143.546C529.877 144.026 529.757 144.402 529.517 144.674C529.277 144.946 528.965 145.082 528.581 145.082C528.149 145.082 527.805 144.97 527.549 144.746C527.293 144.506 527.165 144.202 527.165 143.834C527.165 143.514 527.229 143.258 527.357 143.066C527.501 142.858 527.661 142.738 527.837 142.706V142.658C527.773 142.642 527.693 142.634 527.597 142.634C527.501 142.618 527.381 142.61 527.237 142.61C526.901 142.61 526.565 142.698 526.229 142.874C525.893 143.034 525.589 143.25 525.317 143.522C525.061 143.778 524.845 144.074 524.669 144.41C524.509 144.746 524.429 145.082 524.429 145.418V153.146H526.685V154.25H520.685V153.146ZM537.024 153.146H538.824V138.602H537.024V137.498H544.848C546.368 137.498 547.528 137.882 548.328 138.65C549.144 139.402 549.552 140.514 549.552 141.986C549.552 143.442 549.136 144.57 548.304 145.37C547.472 146.17 546.304 146.57 544.8 146.57H540.888V153.146H543.168V154.25H537.024V153.146ZM540.888 145.394H544.68C545.544 145.394 546.2 145.122 546.648 144.578C547.112 144.034 547.344 143.37 547.344 142.586V141.482C547.344 140.698 547.112 140.034 546.648 139.49C546.2 138.946 545.544 138.674 544.68 138.674H540.888V145.394ZM555.224 154.538C554.072 154.538 553.168 154.242 552.512 153.65C551.872 153.042 551.552 152.218 551.552 151.178C551.552 150.586 551.648 150.066 551.84 149.618C552.032 149.154 552.344 148.77 552.776 148.466C553.224 148.162 553.8 147.93 554.504 147.77C555.208 147.61 556.064 147.53 557.072 147.53H558.848V145.706C558.848 144.73 558.608 143.986 558.128 143.474C557.664 142.946 556.96 142.682 556.016 142.682C555.6 142.682 555.216 142.722 554.864 142.802C554.512 142.866 554.224 142.962 554 143.09V143.138C554.176 143.234 554.344 143.378 554.504 143.57C554.68 143.762 554.768 144.034 554.768 144.386C554.768 144.802 554.648 145.13 554.408 145.37C554.168 145.594 553.848 145.706 553.448 145.706C553.064 145.706 552.744 145.594 552.488 145.37C552.248 145.13 552.128 144.778 552.128 144.314C552.128 143.962 552.232 143.626 552.44 143.306C552.648 142.97 552.944 142.674 553.328 142.418C553.712 142.162 554.184 141.962 554.744 141.818C555.32 141.658 555.968 141.578 556.688 141.578C557.984 141.578 558.992 141.914 559.712 142.586C560.448 143.258 560.816 144.202 560.816 145.418V153.218H562.616V154.058C562.44 154.186 562.2 154.298 561.896 154.394C561.608 154.49 561.28 154.538 560.912 154.538C560.288 154.538 559.808 154.362 559.472 154.01C559.136 153.658 558.968 153.186 558.968 152.594V152.426H558.848C558.736 152.698 558.584 152.962 558.392 153.218C558.216 153.474 557.984 153.698 557.696 153.89C557.408 154.082 557.056 154.234 556.64 154.346C556.24 154.474 555.768 154.538 555.224 154.538ZM556.064 153.218C556.832 153.218 557.488 153.026 558.032 152.642C558.576 152.242 558.848 151.634 558.848 150.818V148.49H557.288C556.6 148.49 556.024 148.546 555.56 148.658C555.096 148.754 554.728 148.906 554.456 149.114C554.184 149.306 553.984 149.546 553.856 149.834C553.744 150.122 553.688 150.458 553.688 150.842V151.346C553.688 151.954 553.896 152.418 554.312 152.738C554.728 153.058 555.312 153.218 556.064 153.218ZM564.654 153.146H566.43V143.426L564.654 143.114V142.298L568.35 141.578V143.738H568.47C568.582 143.482 568.718 143.226 568.878 142.97C569.054 142.714 569.262 142.482 569.502 142.274C569.758 142.066 570.046 141.898 570.366 141.77C570.702 141.642 571.086 141.578 571.518 141.578C572.222 141.578 572.782 141.746 573.198 142.082C573.63 142.418 573.846 142.906 573.846 143.546C573.846 144.026 573.726 144.402 573.486 144.674C573.246 144.946 572.934 145.082 572.55 145.082C572.118 145.082 571.774 144.97 571.518 144.746C571.262 144.506 571.134 144.202 571.134 143.834C571.134 143.514 571.198 143.258 571.326 143.066C571.47 142.858 571.63 142.738 571.806 142.706V142.658C571.742 142.642 571.662 142.634 571.566 142.634C571.47 142.618 571.35 142.61 571.206 142.61C570.87 142.61 570.534 142.698 570.198 142.874C569.862 143.034 569.558 143.25 569.286 143.522C569.03 143.778 568.814 144.074 568.638 144.41C568.478 144.746 568.398 145.082 568.398 145.418V153.146H570.654V154.25H564.654V153.146ZM579.177 154.394C578.329 154.394 577.745 154.226 577.425 153.89C577.105 153.538 576.945 152.946 576.945 152.114V143.042H575.361V141.866H575.577C575.913 141.866 576.177 141.842 576.369 141.794C576.577 141.746 576.737 141.682 576.849 141.602C576.977 141.506 577.065 141.394 577.113 141.266C577.177 141.122 577.233 140.962 577.281 140.786L577.833 138.65H578.913V141.866H582.105V143.042H578.913V153.074H582.105V153.866C581.961 153.946 581.777 154.018 581.553 154.082C581.345 154.146 581.105 154.202 580.833 154.25C580.577 154.298 580.305 154.33 580.017 154.346C579.729 154.378 579.449 154.394 579.177 154.394ZM585.742 159.338C584.926 159.338 584.334 159.162 583.966 158.81C583.598 158.474 583.414 158.026 583.414 157.466C583.414 157.05 583.526 156.714 583.75 156.458C583.974 156.202 584.294 156.074 584.71 156.074C585.078 156.074 585.358 156.178 585.55 156.386C585.758 156.61 585.862 156.906 585.862 157.274C585.862 157.546 585.79 157.762 585.646 157.922C585.518 158.098 585.374 158.21 585.214 158.258V158.33C585.39 158.394 585.598 158.426 585.838 158.426C586.254 158.426 586.662 158.242 587.062 157.874C587.462 157.522 587.822 156.938 588.142 156.122L588.646 154.754L584.086 142.97H582.838V141.866H587.974V142.97H586.246L589.582 152.042H589.678L592.918 142.97H591.19V141.866H595.558V142.97H594.31L589.174 156.314C588.838 157.194 588.382 157.914 587.806 158.474C587.246 159.05 586.558 159.338 585.742 159.338ZM599.69 145.346C601.002 145.298 602.066 144.986 602.882 144.41C603.714 143.818 604.13 142.986 604.13 141.914V141.362C604.13 140.402 603.85 139.666 603.29 139.154C602.73 138.642 601.994 138.386 601.082 138.386C600.49 138.386 600.002 138.442 599.618 138.554C599.234 138.65 598.906 138.778 598.634 138.938V138.986C598.81 139.05 598.994 139.21 599.186 139.466C599.394 139.706 599.498 140.002 599.498 140.354C599.498 140.77 599.37 141.122 599.114 141.41C598.874 141.682 598.53 141.818 598.082 141.818C597.634 141.818 597.274 141.682 597.002 141.41C596.746 141.138 596.618 140.746 596.618 140.234C596.618 139.834 596.746 139.458 597.002 139.106C597.258 138.738 597.602 138.418 598.034 138.146C598.466 137.858 598.97 137.634 599.546 137.474C600.122 137.298 600.73 137.21 601.37 137.21C602.09 137.21 602.754 137.314 603.362 137.522C603.97 137.73 604.49 138.026 604.922 138.41C605.354 138.794 605.69 139.258 605.93 139.802C606.17 140.33 606.29 140.922 606.29 141.578C606.29 142.298 606.154 142.954 605.882 143.546C605.61 144.122 605.234 144.618 604.754 145.034C604.274 145.45 603.714 145.786 603.074 146.042C602.434 146.298 601.746 146.458 601.01 146.522V149.33H599.69V145.346ZM600.362 154.538C599.898 154.538 599.53 154.402 599.258 154.13C599.002 153.842 598.874 153.498 598.874 153.098V152.954C598.874 152.554 599.002 152.218 599.258 151.946C599.53 151.658 599.898 151.514 600.362 151.514C600.826 151.514 601.186 151.658 601.442 151.946C601.714 152.218 601.85 152.554 601.85 152.954V153.098C601.85 153.498 601.714 153.842 601.442 154.13C601.186 154.402 600.826 154.538 600.362 154.538Z" fill="#313134"/>
<path d="M437.732 205.37C437.312 205.37 436.968 205.307 436.702 205.18C436.442 205.047 436.258 204.87 436.152 204.65H436.102V205.25H435.382V203.2H436.102V203.66C436.102 203.827 436.125 203.984 436.172 204.13C436.225 204.27 436.308 204.394 436.422 204.5C436.542 204.607 436.695 204.69 436.882 204.75C437.075 204.81 437.308 204.84 437.582 204.84C438.162 204.84 438.578 204.717 438.832 204.47C439.092 204.224 439.222 203.894 439.222 203.48C439.222 203.127 439.122 202.85 438.922 202.65C438.728 202.45 438.422 202.294 438.002 202.18L437.452 202.04C436.832 201.88 436.352 201.64 436.012 201.32C435.672 201 435.502 200.56 435.502 200C435.502 199.72 435.555 199.467 435.662 199.24C435.768 199.007 435.918 198.81 436.112 198.65C436.305 198.49 436.535 198.367 436.802 198.28C437.075 198.194 437.375 198.15 437.702 198.15C438.082 198.15 438.392 198.21 438.632 198.33C438.878 198.444 439.052 198.604 439.152 198.81H439.212V198.27H439.932V200.22H439.212V199.76C439.212 199.594 439.185 199.444 439.132 199.31C439.085 199.177 439.002 199.064 438.882 198.97C438.762 198.877 438.605 198.807 438.412 198.76C438.218 198.707 437.982 198.68 437.702 198.68C437.235 198.68 436.885 198.787 436.652 199C436.418 199.214 436.302 199.494 436.302 199.84C436.302 200.2 436.405 200.484 436.612 200.69C436.825 200.89 437.158 201.05 437.612 201.17L438.122 201.3C438.728 201.46 439.195 201.7 439.522 202.02C439.848 202.34 440.012 202.76 440.012 203.28C440.012 203.58 439.962 203.86 439.862 204.12C439.762 204.374 439.615 204.594 439.422 204.78C439.228 204.967 438.988 205.114 438.702 205.22C438.422 205.32 438.098 205.37 437.732 205.37ZM441.211 204.79H441.961V198.73H441.211V198.27H446.371V199.95H445.651V198.76H442.821V201.41H444.801V200.61H445.401V202.7H444.801V201.9H442.821V204.76H445.751V203.48H446.471V205.25H441.211V204.79ZM447.617 204.79H448.367V198.73H447.617V198.27H449.977V198.73H449.227V204.76H451.787V203.48H452.507V205.25H447.617V204.79ZM453.554 204.79H454.304V198.73H453.554V198.27H458.714V199.95H457.994V198.76H455.164V201.41H457.144V200.61H457.744V202.7H457.144V201.9H455.164V204.76H458.094V203.48H458.814V205.25H453.554V204.79ZM462.831 205.37C462.391 205.37 461.991 205.287 461.631 205.12C461.271 204.954 460.964 204.714 460.711 204.4C460.457 204.087 460.261 203.707 460.121 203.26C459.981 202.814 459.911 202.314 459.911 201.76C459.911 201.18 459.981 200.667 460.121 200.22C460.261 199.774 460.454 199.397 460.701 199.09C460.954 198.784 461.257 198.55 461.611 198.39C461.964 198.23 462.354 198.15 462.781 198.15C463.214 198.15 463.574 198.224 463.861 198.37C464.154 198.51 464.347 198.687 464.441 198.9H464.481V198.27H465.201V200.31H464.481V199.79C464.481 199.457 464.334 199.19 464.041 198.99C463.747 198.784 463.364 198.68 462.891 198.68C462.537 198.68 462.231 198.747 461.971 198.88C461.717 199.007 461.507 199.184 461.341 199.41C461.181 199.63 461.061 199.89 460.981 200.19C460.907 200.484 460.871 200.794 460.871 201.12V202.33C460.871 202.697 460.917 203.027 461.011 203.32C461.111 203.614 461.251 203.867 461.431 204.08C461.617 204.287 461.844 204.447 462.111 204.56C462.377 204.674 462.681 204.73 463.021 204.73C463.494 204.73 463.891 204.607 464.211 204.36C464.531 204.114 464.764 203.8 464.911 203.42L465.301 203.61C465.241 203.804 465.144 204.004 465.011 204.21C464.877 204.417 464.707 204.607 464.501 204.78C464.301 204.954 464.061 205.097 463.781 205.21C463.501 205.317 463.184 205.37 462.831 205.37ZM467.785 204.79H468.735V198.76H466.975V199.95H466.255V198.27H472.075V199.95H471.355V198.76H469.595V204.79H470.545V205.25H467.785V204.79ZM478.332 204.84C478.672 204.84 478.972 204.78 479.232 204.66C479.499 204.534 479.722 204.36 479.902 204.14C480.082 203.914 480.219 203.647 480.312 203.34C480.406 203.034 480.452 202.697 480.452 202.33V201.19C480.452 200.824 480.406 200.487 480.312 200.18C480.219 199.874 480.082 199.61 479.902 199.39C479.722 199.164 479.499 198.99 479.232 198.87C478.972 198.744 478.672 198.68 478.332 198.68C477.992 198.68 477.689 198.744 477.422 198.87C477.162 198.99 476.942 199.164 476.762 199.39C476.582 199.61 476.446 199.874 476.352 200.18C476.259 200.487 476.212 200.824 476.212 201.19V202.33C476.212 202.697 476.259 203.034 476.352 203.34C476.446 203.647 476.582 203.914 476.762 204.14C476.942 204.36 477.162 204.534 477.422 204.66C477.689 204.78 477.992 204.84 478.332 204.84ZM478.332 205.37C477.872 205.37 477.452 205.287 477.072 205.12C476.692 204.954 476.366 204.714 476.092 204.4C475.826 204.087 475.619 203.71 475.472 203.27C475.326 202.824 475.252 202.32 475.252 201.76C475.252 201.2 475.326 200.7 475.472 200.26C475.619 199.814 475.826 199.434 476.092 199.12C476.366 198.807 476.692 198.567 477.072 198.4C477.452 198.234 477.872 198.15 478.332 198.15C478.792 198.15 479.212 198.234 479.592 198.4C479.972 198.567 480.296 198.807 480.562 199.12C480.836 199.434 481.046 199.814 481.192 200.26C481.339 200.7 481.412 201.2 481.412 201.76C481.412 202.32 481.339 202.824 481.192 203.27C481.046 203.71 480.836 204.087 480.562 204.4C480.296 204.714 479.972 204.954 479.592 205.12C479.212 205.287 478.792 205.37 478.332 205.37ZM482.461 204.79H483.211V198.73H482.461V198.27H484.151L487.901 203.87H487.941V198.73H487.191V198.27H489.241V198.73H488.491V205.25H487.821L483.801 199.24H483.761V204.79H484.511V205.25H482.461V204.79ZM490.244 204.79H490.994V198.73H490.244V198.27H492.604V198.73H491.854V204.76H494.414V203.48H495.134V205.25H490.244V204.79ZM496.679 204.79H497.629V202.44L495.619 198.73H495.089V198.27H497.499V198.73H496.599L498.209 201.83H498.249L499.899 198.73H498.999V198.27H501.029V198.73H500.499L498.489 202.39V204.79H499.439V205.25H496.679V204.79ZM504.431 204.8H506.161V198.96L504.361 199.79L504.211 199.36L506.251 198.27H507.021V204.8H508.691V205.25H504.431V204.8Z" fill="#767677"/>
<rect width="20" height="20" transform="translate(444.782 228.75)" fill="#F5F1E8"/>
<circle cx="454.782" cy="238.75" r="9.5" stroke="#5F5F61"/>
<path d="M480.51 244.594C481.054 244.594 481.534 244.498 481.95 244.306C482.376 244.104 482.734 243.826 483.022 243.474C483.31 243.112 483.528 242.685 483.678 242.194C483.827 241.704 483.902 241.165 483.902 240.578V238.754C483.902 238.168 483.827 237.629 483.678 237.138C483.528 236.648 483.31 236.226 483.022 235.874C482.734 235.512 482.376 235.234 481.95 235.042C481.534 234.84 481.054 234.738 480.51 234.738C479.966 234.738 479.48 234.84 479.054 235.042C478.638 235.234 478.286 235.512 477.998 235.874C477.71 236.226 477.491 236.648 477.342 237.138C477.192 237.629 477.118 238.168 477.118 238.754V240.578C477.118 241.165 477.192 241.704 477.342 242.194C477.491 242.685 477.71 243.112 477.998 243.474C478.286 243.826 478.638 244.104 479.054 244.306C479.48 244.498 479.966 244.594 480.51 244.594ZM480.51 245.442C479.774 245.442 479.102 245.309 478.494 245.042C477.886 244.776 477.363 244.392 476.926 243.89C476.499 243.389 476.168 242.786 475.934 242.082C475.699 241.368 475.582 240.562 475.582 239.666C475.582 238.77 475.699 237.97 475.934 237.266C476.168 236.552 476.499 235.944 476.926 235.442C477.363 234.941 477.886 234.557 478.494 234.29C479.102 234.024 479.774 233.89 480.51 233.89C481.246 233.89 481.918 234.024 482.526 234.29C483.134 234.557 483.651 234.941 484.078 235.442C484.515 235.944 484.851 236.552 485.086 237.266C485.32 237.97 485.438 238.77 485.438 239.666C485.438 240.562 485.32 241.368 485.086 242.082C484.851 242.786 484.515 243.389 484.078 243.89C483.651 244.392 483.134 244.776 482.526 245.042C481.918 245.309 481.246 245.442 480.51 245.442ZM486.955 244.514H488.139V237.778H486.955V236.994H488.139V235.698C488.139 235.314 488.203 234.962 488.331 234.642C488.459 234.322 488.635 234.05 488.859 233.826C489.094 233.592 489.366 233.41 489.675 233.282C489.995 233.154 490.342 233.09 490.715 233.09C491.291 233.09 491.744 233.202 492.075 233.426C492.416 233.65 492.587 233.97 492.587 234.386C492.587 234.664 492.507 234.888 492.347 235.058C492.198 235.218 492 235.298 491.755 235.298C491.52 235.298 491.328 235.224 491.179 235.074C491.04 234.925 490.971 234.744 490.971 234.53C490.971 234.157 491.115 233.912 491.403 233.794V233.762C491.328 233.741 491.243 233.725 491.147 233.714C491.051 233.704 490.944 233.698 490.827 233.698C490.379 233.698 490.038 233.858 489.803 234.178C489.568 234.498 489.451 234.946 489.451 235.522V236.994H491.243V237.778H489.451V244.514H490.955V245.25H486.955V244.514ZM492.424 244.514H493.608V237.778H492.424V236.994H493.608V236.53C493.608 235.464 493.922 234.626 494.552 234.018C495.192 233.4 496.114 233.09 497.32 233.09C498.216 233.09 498.888 233.229 499.336 233.506C499.784 233.784 500.008 234.141 500.008 234.578C500.008 234.845 499.928 235.064 499.768 235.234C499.608 235.394 499.405 235.474 499.16 235.474C498.914 235.474 498.722 235.4 498.584 235.25C498.445 235.101 498.376 234.92 498.376 234.706C498.376 234.333 498.53 234.088 498.84 233.97V233.938C498.69 233.874 498.514 233.821 498.312 233.778C498.109 233.736 497.794 233.714 497.368 233.714C496.973 233.714 496.621 233.784 496.312 233.922C496.013 234.05 495.757 234.232 495.544 234.466C495.341 234.69 495.186 234.962 495.08 235.282C494.973 235.602 494.92 235.954 494.92 236.338V236.994H497.512L500.024 236.802V244.514H501.208V245.25H497.528V244.514H498.712V237.778H494.92V244.514H496.104V245.25H492.424V244.514ZM506.309 245.442C505.711 245.442 505.178 245.341 504.709 245.138C504.25 244.925 503.861 244.632 503.541 244.258C503.221 243.874 502.975 243.421 502.805 242.898C502.634 242.365 502.549 241.773 502.549 241.122C502.549 240.461 502.639 239.864 502.821 239.33C503.013 238.797 503.279 238.344 503.621 237.97C503.962 237.597 504.367 237.309 504.837 237.106C505.317 236.904 505.845 236.802 506.421 236.802C507.285 236.802 507.967 236.989 508.469 237.362C508.981 237.725 509.237 238.189 509.237 238.754C509.237 239.096 509.146 239.362 508.965 239.554C508.794 239.746 508.554 239.842 508.245 239.842C507.914 239.842 507.669 239.746 507.509 239.554C507.349 239.362 507.269 239.133 507.269 238.866C507.269 238.632 507.327 238.429 507.445 238.258C507.562 238.088 507.727 237.954 507.941 237.858V237.81C507.802 237.725 507.621 237.661 507.397 237.618C507.183 237.576 506.906 237.554 506.565 237.554C506.191 237.554 505.845 237.624 505.525 237.762C505.215 237.901 504.949 238.098 504.725 238.354C504.501 238.6 504.325 238.893 504.197 239.234C504.069 239.565 504.005 239.928 504.005 240.322V241.506C504.005 241.944 504.063 242.344 504.181 242.706C504.298 243.058 504.463 243.362 504.677 243.618C504.901 243.874 505.162 244.072 505.461 244.21C505.77 244.349 506.117 244.418 506.501 244.418C507.151 244.418 507.663 244.285 508.037 244.018C508.41 243.741 508.709 243.384 508.933 242.946L509.445 243.282C509.349 243.56 509.21 243.832 509.029 244.098C508.847 244.354 508.629 244.584 508.373 244.786C508.117 244.978 507.813 245.133 507.461 245.25C507.119 245.378 506.735 245.442 506.309 245.442ZM514.386 245.442C513.8 245.442 513.272 245.341 512.802 245.138C512.344 244.925 511.954 244.632 511.634 244.258C511.314 243.885 511.069 243.432 510.898 242.898C510.728 242.365 510.642 241.773 510.642 241.122C510.642 240.482 510.733 239.901 510.914 239.378C511.106 238.845 511.362 238.386 511.682 238.002C512.013 237.618 512.402 237.325 512.85 237.122C513.298 236.909 513.789 236.802 514.322 236.802C514.866 236.802 515.352 236.898 515.778 237.09C516.205 237.282 516.562 237.554 516.85 237.906C517.149 238.248 517.378 238.658 517.538 239.138C517.698 239.618 517.778 240.141 517.778 240.706V241.074H512.098V241.49C512.098 242.397 512.322 243.112 512.77 243.634C513.229 244.157 513.837 244.418 514.594 244.418C515.256 244.418 515.778 244.285 516.162 244.018C516.557 243.741 516.866 243.384 517.09 242.946L517.618 243.282C517.512 243.56 517.362 243.832 517.17 244.098C516.989 244.354 516.765 244.584 516.498 244.786C516.232 244.978 515.922 245.133 515.57 245.25C515.218 245.378 514.824 245.442 514.386 245.442ZM512.098 240.338H516.402V240.178C516.402 239.805 516.36 239.458 516.274 239.138C516.2 238.818 516.077 238.541 515.906 238.306C515.736 238.072 515.517 237.89 515.25 237.762C514.994 237.624 514.685 237.554 514.322 237.554C513.96 237.554 513.64 237.618 513.362 237.746C513.085 237.874 512.85 238.056 512.658 238.29C512.477 238.525 512.338 238.802 512.242 239.122C512.146 239.432 512.098 239.773 512.098 240.146V240.338Z" fill="#313134"/>
<rect width="20" height="20" transform="translate(444.782 269.75)" fill="#F5F1E8"/>
<circle cx="454.782" cy="279.75" r="9.5" stroke="#5F5F61"/>
<path d="M475.662 285.514H476.862V275.818H475.662V275.082H480.878C481.891 275.082 482.664 275.338 483.198 275.85C483.742 276.352 484.014 277.093 484.014 278.074C484.014 279.045 483.736 279.797 483.182 280.33C482.627 280.864 481.848 281.13 480.846 281.13H478.238V285.514H479.758V286.25H475.662V285.514ZM478.238 280.346H480.766C481.342 280.346 481.779 280.165 482.078 279.802C482.387 279.44 482.542 278.997 482.542 278.474V277.738C482.542 277.216 482.387 276.773 482.078 276.41C481.779 276.048 481.342 275.866 480.766 275.866H478.238V280.346ZM487.795 286.442C487.027 286.442 486.425 286.245 485.987 285.85C485.561 285.445 485.347 284.896 485.347 284.202C485.347 283.808 485.411 283.461 485.539 283.162C485.667 282.853 485.875 282.597 486.163 282.394C486.462 282.192 486.846 282.037 487.315 281.93C487.785 281.824 488.355 281.77 489.027 281.77H490.211V280.554C490.211 279.904 490.051 279.408 489.731 279.066C489.422 278.714 488.953 278.538 488.323 278.538C488.046 278.538 487.79 278.565 487.555 278.618C487.321 278.661 487.129 278.725 486.979 278.81V278.842C487.097 278.906 487.209 279.002 487.315 279.13C487.433 279.258 487.491 279.44 487.491 279.674C487.491 279.952 487.411 280.17 487.251 280.33C487.091 280.48 486.878 280.554 486.611 280.554C486.355 280.554 486.142 280.48 485.971 280.33C485.811 280.17 485.731 279.936 485.731 279.626C485.731 279.392 485.801 279.168 485.939 278.954C486.078 278.73 486.275 278.533 486.531 278.362C486.787 278.192 487.102 278.058 487.475 277.962C487.859 277.856 488.291 277.802 488.771 277.802C489.635 277.802 490.307 278.026 490.787 278.474C491.278 278.922 491.523 279.552 491.523 280.362V285.562H492.723V286.122C492.606 286.208 492.446 286.282 492.243 286.346C492.051 286.41 491.833 286.442 491.587 286.442C491.171 286.442 490.851 286.325 490.627 286.09C490.403 285.856 490.291 285.541 490.291 285.146V285.034H490.211C490.137 285.216 490.035 285.392 489.907 285.562C489.79 285.733 489.635 285.882 489.443 286.01C489.251 286.138 489.017 286.24 488.739 286.314C488.473 286.4 488.158 286.442 487.795 286.442ZM488.355 285.562C488.867 285.562 489.305 285.434 489.667 285.178C490.03 284.912 490.211 284.506 490.211 283.962V282.41H489.171C488.713 282.41 488.329 282.448 488.019 282.522C487.71 282.586 487.465 282.688 487.283 282.826C487.102 282.954 486.969 283.114 486.883 283.306C486.809 283.498 486.771 283.722 486.771 283.978V284.314C486.771 284.72 486.91 285.029 487.187 285.242C487.465 285.456 487.854 285.562 488.355 285.562ZM494.082 285.514H495.266V279.034L494.082 278.826V278.282L496.546 277.802V279.242H496.626C496.7 279.072 496.791 278.901 496.898 278.73C497.015 278.56 497.154 278.405 497.314 278.266C497.484 278.128 497.676 278.016 497.89 277.93C498.114 277.845 498.37 277.802 498.658 277.802C499.127 277.802 499.5 277.914 499.778 278.138C500.066 278.362 500.21 278.688 500.21 279.114C500.21 279.434 500.13 279.685 499.97 279.866C499.81 280.048 499.602 280.138 499.346 280.138C499.058 280.138 498.828 280.064 498.658 279.914C498.487 279.754 498.402 279.552 498.402 279.306C498.402 279.093 498.444 278.922 498.53 278.794C498.626 278.656 498.732 278.576 498.85 278.554V278.522C498.807 278.512 498.754 278.506 498.69 278.506C498.626 278.496 498.546 278.49 498.45 278.49C498.226 278.49 498.002 278.549 497.778 278.666C497.554 278.773 497.351 278.917 497.17 279.098C496.999 279.269 496.855 279.466 496.738 279.69C496.631 279.914 496.578 280.138 496.578 280.362V285.514H498.082V286.25H494.082V285.514ZM503.764 286.346C503.198 286.346 502.809 286.234 502.596 286.01C502.382 285.776 502.276 285.381 502.276 284.826V278.778H501.22V277.994H501.364C501.588 277.994 501.764 277.978 501.892 277.946C502.03 277.914 502.137 277.872 502.212 277.818C502.297 277.754 502.356 277.68 502.388 277.594C502.43 277.498 502.468 277.392 502.5 277.274L502.868 275.85H503.588V277.994H505.716V278.778H503.588V285.466H505.716V285.994C505.62 286.048 505.497 286.096 505.348 286.138C505.209 286.181 505.049 286.218 504.868 286.25C504.697 286.282 504.516 286.304 504.324 286.314C504.132 286.336 503.945 286.346 503.764 286.346ZM508.14 289.642C507.596 289.642 507.202 289.525 506.956 289.29C506.711 289.066 506.588 288.768 506.588 288.394C506.588 288.117 506.663 287.893 506.812 287.722C506.962 287.552 507.175 287.466 507.452 287.466C507.698 287.466 507.884 287.536 508.012 287.674C508.151 287.824 508.22 288.021 508.22 288.266C508.22 288.448 508.172 288.592 508.076 288.698C507.991 288.816 507.895 288.89 507.788 288.922V288.97C507.906 289.013 508.044 289.034 508.204 289.034C508.482 289.034 508.754 288.912 509.02 288.666C509.287 288.432 509.527 288.042 509.74 287.498L510.076 286.586L507.036 278.73H506.204V277.994H509.628V278.73H508.476L510.7 284.778H510.764L512.924 278.73H511.772V277.994H514.684V278.73H513.852L510.428 287.626C510.204 288.213 509.9 288.693 509.516 289.066C509.143 289.45 508.684 289.642 508.14 289.642Z" fill="#313134"/>
<path d="M499.782 329.75L537.782 329.75C543.028 329.75 547.282 334.004 547.282 339.25L547.282 350.25C547.282 355.497 543.028 359.75 537.782 359.75L499.782 359.75C494.535 359.75 490.282 355.497 490.282 350.25L490.282 339.25C490.282 334.004 494.535 329.75 499.782 329.75Z" fill="#F5F1E8"/>
<path d="M499.782 329.75L537.782 329.75C543.028 329.75 547.282 334.004 547.282 339.25L547.282 350.25C547.282 355.497 543.028 359.75 537.782 359.75L499.782 359.75C494.535 359.75 490.282 355.497 490.282 350.25L490.282 339.25C490.282 334.004 494.535 329.75 499.782 329.75Z" stroke="#767677"/>
<path d="M500.662 350.514H501.862V340.818H500.662V340.082H506.006C506.944 340.082 507.675 340.322 508.198 340.802C508.731 341.282 508.998 341.922 508.998 342.722C508.998 343.117 508.939 343.469 508.822 343.778C508.704 344.088 508.544 344.354 508.342 344.578C508.15 344.802 507.926 344.984 507.67 345.122C507.424 345.261 507.168 345.352 506.902 345.394V345.442C507.179 345.464 507.467 345.533 507.766 345.65C508.064 345.768 508.336 345.938 508.582 346.162C508.827 346.386 509.03 346.664 509.19 346.994C509.35 347.325 509.43 347.709 509.43 348.146C509.43 348.616 509.355 349.042 509.206 349.426C509.067 349.81 508.864 350.141 508.598 350.418C508.342 350.685 508.032 350.893 507.67 351.042C507.307 351.181 506.912 351.25 506.486 351.25H500.662V350.514ZM503.238 350.466H505.99C506.608 350.466 507.088 350.285 507.43 349.922C507.782 349.56 507.958 349.09 507.958 348.514V347.81C507.958 347.245 507.782 346.781 507.43 346.418C507.088 346.056 506.608 345.874 505.99 345.874H503.238V350.466ZM503.238 345.09H505.734C506.31 345.09 506.752 344.925 507.062 344.594C507.371 344.264 507.526 343.842 507.526 343.33V342.626C507.526 342.114 507.371 341.693 507.062 341.362C506.752 341.032 506.31 340.866 505.734 340.866H503.238V345.09ZM513.748 351.442C512.98 351.442 512.378 351.245 511.94 350.85C511.514 350.445 511.3 349.896 511.3 349.202C511.3 348.808 511.364 348.461 511.492 348.162C511.62 347.853 511.828 347.597 512.116 347.394C512.415 347.192 512.799 347.037 513.268 346.93C513.738 346.824 514.308 346.77 514.98 346.77H516.164V345.554C516.164 344.904 516.004 344.408 515.684 344.066C515.375 343.714 514.906 343.538 514.276 343.538C513.999 343.538 513.743 343.565 513.508 343.618C513.274 343.661 513.082 343.725 512.932 343.81V343.842C513.05 343.906 513.162 344.002 513.268 344.13C513.386 344.258 513.444 344.44 513.444 344.674C513.444 344.952 513.364 345.17 513.204 345.33C513.044 345.48 512.831 345.554 512.564 345.554C512.308 345.554 512.095 345.48 511.924 345.33C511.764 345.17 511.684 344.936 511.684 344.626C511.684 344.392 511.754 344.168 511.892 343.954C512.031 343.73 512.228 343.533 512.484 343.362C512.74 343.192 513.055 343.058 513.428 342.962C513.812 342.856 514.244 342.802 514.724 342.802C515.588 342.802 516.26 343.026 516.74 343.474C517.231 343.922 517.476 344.552 517.476 345.362V350.562H518.676V351.122C518.559 351.208 518.399 351.282 518.196 351.346C518.004 351.41 517.786 351.442 517.54 351.442C517.124 351.442 516.804 351.325 516.58 351.09C516.356 350.856 516.244 350.541 516.244 350.146V350.034H516.164C516.09 350.216 515.988 350.392 515.86 350.562C515.743 350.733 515.588 350.882 515.396 351.01C515.204 351.138 514.97 351.24 514.692 351.314C514.426 351.4 514.111 351.442 513.748 351.442ZM514.308 350.562C514.82 350.562 515.258 350.434 515.62 350.178C515.983 349.912 516.164 349.506 516.164 348.962V347.41H515.124C514.666 347.41 514.282 347.448 513.972 347.522C513.663 347.586 513.418 347.688 513.236 347.826C513.055 347.954 512.922 348.114 512.836 348.306C512.762 348.498 512.724 348.722 512.724 348.978V349.314C512.724 349.72 512.863 350.029 513.14 350.242C513.418 350.456 513.807 350.562 514.308 350.562ZM523.715 351.442C523.118 351.442 522.584 351.341 522.115 351.138C521.656 350.925 521.267 350.632 520.947 350.258C520.627 349.874 520.382 349.421 520.211 348.898C520.04 348.365 519.955 347.773 519.955 347.122C519.955 346.461 520.046 345.864 520.227 345.33C520.419 344.797 520.686 344.344 521.027 343.97C521.368 343.597 521.774 343.309 522.243 343.106C522.723 342.904 523.251 342.802 523.827 342.802C524.691 342.802 525.374 342.989 525.875 343.362C526.387 343.725 526.643 344.189 526.643 344.754C526.643 345.096 526.552 345.362 526.371 345.554C526.2 345.746 525.96 345.842 525.651 345.842C525.32 345.842 525.075 345.746 524.915 345.554C524.755 345.362 524.675 345.133 524.675 344.866C524.675 344.632 524.734 344.429 524.851 344.258C524.968 344.088 525.134 343.954 525.347 343.858V343.81C525.208 343.725 525.027 343.661 524.803 343.618C524.59 343.576 524.312 343.554 523.971 343.554C523.598 343.554 523.251 343.624 522.931 343.762C522.622 343.901 522.355 344.098 522.131 344.354C521.907 344.6 521.731 344.893 521.603 345.234C521.475 345.565 521.411 345.928 521.411 346.322V347.506C521.411 347.944 521.47 348.344 521.587 348.706C521.704 349.058 521.87 349.362 522.083 349.618C522.307 349.874 522.568 350.072 522.867 350.21C523.176 350.349 523.523 350.418 523.907 350.418C524.558 350.418 525.07 350.285 525.443 350.018C525.816 349.741 526.115 349.384 526.339 348.946L526.851 349.282C526.755 349.56 526.616 349.832 526.435 350.098C526.254 350.354 526.035 350.584 525.779 350.786C525.523 350.978 525.219 351.133 524.867 351.25C524.526 351.378 524.142 351.442 523.715 351.442ZM528.045 350.514H529.229V340.322L528.045 340.114V339.554L530.541 339.09V347.458H530.621L531.965 345.954L533.981 343.73H532.893V342.994H536.317V343.73H535.149L532.829 346.146L535.725 350.514H536.637V351.25H533.229V350.514H534.253L531.933 347.026L530.541 348.482V350.514H531.725V351.25H528.045V350.514Z" fill="#5F5F61"/>
<path d="M557.782 339.25C557.782 333.728 562.259 329.25 567.782 329.25L603.782 329.25C609.305 329.25 613.782 333.728 613.782 339.25L613.782 350.25C613.782 355.773 609.305 360.25 603.782 360.25L567.782 360.25C562.259 360.25 557.782 355.773 557.782 350.25L557.782 339.25Z" fill="#313134"/>
<path d="M568.662 350.514H569.862V340.818H568.662V340.082H571.366L577.366 349.042H577.43V340.818H576.23V340.082H579.51V340.818H578.31V351.25H577.238L570.806 341.634H570.742V350.514H571.942V351.25H568.662V350.514ZM584.621 351.442C584.034 351.442 583.506 351.341 583.037 351.138C582.578 350.925 582.189 350.632 581.869 350.258C581.549 349.885 581.303 349.432 581.133 348.898C580.962 348.365 580.877 347.773 580.877 347.122C580.877 346.482 580.967 345.901 581.149 345.378C581.341 344.845 581.597 344.386 581.917 344.002C582.247 343.618 582.637 343.325 583.085 343.122C583.533 342.909 584.023 342.802 584.557 342.802C585.101 342.802 585.586 342.898 586.013 343.09C586.439 343.282 586.797 343.554 587.085 343.906C587.383 344.248 587.613 344.658 587.773 345.138C587.933 345.618 588.013 346.141 588.013 346.706V347.074H582.333V347.49C582.333 348.397 582.557 349.112 583.005 349.634C583.463 350.157 584.071 350.418 584.829 350.418C585.49 350.418 586.013 350.285 586.397 350.018C586.791 349.741 587.101 349.384 587.325 348.946L587.853 349.282C587.746 349.56 587.597 349.832 587.405 350.098C587.223 350.354 586.999 350.584 586.733 350.786C586.466 350.978 586.157 351.133 585.805 351.25C585.453 351.378 585.058 351.442 584.621 351.442ZM582.333 346.338H586.637V346.178C586.637 345.805 586.594 345.458 586.509 345.138C586.434 344.818 586.311 344.541 586.141 344.306C585.97 344.072 585.751 343.89 585.485 343.762C585.229 343.624 584.919 343.554 584.557 343.554C584.194 343.554 583.874 343.618 583.597 343.746C583.319 343.874 583.085 344.056 582.893 344.29C582.711 344.525 582.573 344.802 582.477 345.122C582.381 345.432 582.333 345.773 582.333 346.146V346.338ZM589.075 350.514H589.987L592.403 347.218L589.955 343.73H589.123V342.994H592.483V343.73H591.539L593.331 346.354H593.395L595.091 343.73H594.099V342.994H596.995V343.73H596.083L593.795 346.978L596.243 350.514H597.075V351.25H593.699V350.514H594.643L592.867 347.842H592.803L590.979 350.514H591.971V351.25H589.075V350.514ZM600.779 351.346C600.214 351.346 599.825 351.234 599.611 351.01C599.398 350.776 599.291 350.381 599.291 349.826V343.778H598.235V342.994H598.379C598.603 342.994 598.779 342.978 598.907 342.946C599.046 342.914 599.153 342.872 599.227 342.818C599.313 342.754 599.371 342.68 599.403 342.594C599.446 342.498 599.483 342.392 599.515 342.274L599.883 340.85H600.603V342.994H602.731V343.778H600.603V350.466H602.731V350.994C602.635 351.048 602.513 351.096 602.363 351.138C602.225 351.181 602.065 351.218 601.883 351.25C601.713 351.282 601.531 351.304 601.339 351.314C601.147 351.336 600.961 351.346 600.779 351.346Z" fill="#F5F1E8"/>
</g>
<defs>
<filter id="filter0_d_122_842" x="-0.857178" y="-0.856934" width="1041.55" height="451.286" filterUnits="userSpaceOnUse" color-interpolation-filters="sRGB">
<feFlood flood-opacity="0" result="BackgroundImageFix"/>
<feColorMatrix in="SourceAlpha" type="matrix" values="0 0 0 0 0 0 0 0 0 0 0 0 0 0 0 0 0 0 127 0" result="hardAlpha"/>
<feOffset dy="4"/>
<feGaussianBlur stdDeviation="10"/>
<feComposite in2="hardAlpha" operator="out"/>
<feColorMatrix type="matrix" values="0 0 0 0 0 0 0 0 0 0 0 0 0 0 0 0 0 0 0.1 0"/>
<feBlend mode="normal" in2="BackgroundImageFix" result="effect1_dropShadow_122_842"/>
<feBlend mode="normal" in="SourceGraphic" in2="effect1_dropShadow_122_842" result="shape"/>
</filter>
<filter id="filter1_d_122_842" x="9.78174" y="16.2505" width="1029" height="417" filterUnits="userSpaceOnUse" color-interpolation-filters="sRGB">
<feFlood flood-opacity="0" result="BackgroundImageFix"/>
<feColorMatrix in="SourceAlpha" type="matrix" values="0 0 0 0 0 0 0 0 0 0 0 0 0 0 0 0 0 0 127 0" result="hardAlpha"/>
<feOffset dy="4"/>
<feGaussianBlur stdDeviation="10"/>
<feComposite in2="hardAlpha" operator="out"/>
<feColorMatrix type="matrix" values="0 0 0 0 0 0 0 0 0 0 0 0 0 0 0 0 0 0 0.1 0"/>
<feBlend mode="normal" in2="BackgroundImageFix" result="effect1_dropShadow_122_842"/>
<feBlend mode="normal" in="SourceGraphic" in2="effect1_dropShadow_122_842" result="shape"/>
</filter>
</defs>
</svg>
