<svg width="1029" height="417" viewBox="0 0 1029 417" fill="none" xmlns="http://www.w3.org/2000/svg">
<g filter="url(#filter0_d_122_840)">
<path d="M20 41C20 27.1929 31.1929 16 45 16L984 16C997.807 16 1009 27.1929 1009 41L1009 368C1009 381.807 997.807 393 984 393L45 393C31.1929 393 20 381.807 20 368L20 41Z" fill="#F5F1E8" shape-rendering="crispEdges"/>
<path d="M459.361 45.5C459.361 44.6716 460.033 44 460.861 44H477.861C478.69 44 479.361 44.6716 479.361 45.5C479.361 46.3284 478.69 47 477.861 47H460.861C460.033 47 459.361 46.3284 459.361 45.5Z" fill="#D1B577"/>
<path d="M489.361 45.5C489.361 44.6716 490.033 44 490.861 44H507.861C508.69 44 509.361 44.6716 509.361 45.5C509.361 46.3284 508.69 47 507.861 47H490.861C490.033 47 489.361 46.3284 489.361 45.5Z" fill="#D1B577"/>
<path d="M519.361 45.5C519.361 44.6716 520.033 44 520.861 44H537.861C538.69 44 539.361 44.6716 539.361 45.5C539.361 46.3284 538.69 47 537.861 47H520.861C520.033 47 519.361 46.3284 519.361 45.5Z" fill="#D1B577"/>
<path d="M549.361 45.5C549.361 44.6716 550.033 44 550.861 44H567.861C568.69 44 569.361 44.6716 569.361 45.5C569.361 46.3284 568.69 47 567.861 47H550.861C550.033 47 549.361 46.3284 549.361 45.5Z" fill="#D1B577"/>
<path d="M395.585 92.768C395.276 92.768 395.009 92.7467 394.785 92.704C394.561 92.6613 394.358 92.592 394.177 92.496C394.006 92.4107 393.852 92.2933 393.713 92.144C393.574 92.0053 393.436 91.8347 393.297 91.632L392.273 90.128C391.644 90.032 391.078 89.8347 390.577 89.536C390.076 89.2267 389.644 88.832 389.281 88.352C388.918 87.8613 388.641 87.2853 388.449 86.624C388.257 85.9627 388.161 85.2267 388.161 84.416C388.161 83.52 388.278 82.72 388.513 82.016C388.748 81.3013 389.078 80.6933 389.505 80.192C389.942 79.6907 390.465 79.3067 391.073 79.04C391.681 78.7733 392.353 78.64 393.089 78.64C393.825 78.64 394.497 78.7733 395.105 79.04C395.713 79.3067 396.23 79.6907 396.657 80.192C397.094 80.6933 397.43 81.3013 397.665 82.016C397.9 82.72 398.017 83.52 398.017 84.416C398.017 85.2373 397.916 85.984 397.713 86.656C397.51 87.328 397.222 87.9093 396.849 88.4C396.486 88.8907 396.044 89.2853 395.521 89.584C394.998 89.8827 394.412 90.0693 393.761 90.144L394.481 91.136C394.598 91.3067 394.705 91.4453 394.801 91.552C394.908 91.6693 395.014 91.76 395.121 91.824C395.238 91.8987 395.361 91.952 395.489 91.984C395.617 92.016 395.772 92.032 395.953 92.032H396.433V92.768H395.585ZM393.089 89.344C393.633 89.344 394.113 89.248 394.529 89.056C394.956 88.8533 395.313 88.576 395.601 88.224C395.889 87.8613 396.108 87.4347 396.257 86.944C396.406 86.4533 396.481 85.9147 396.481 85.328V83.504C396.481 82.9173 396.406 82.3787 396.257 81.888C396.108 81.3973 395.889 80.976 395.601 80.624C395.313 80.2613 394.956 79.984 394.529 79.792C394.113 79.5893 393.633 79.488 393.089 79.488C392.545 79.488 392.06 79.5893 391.633 79.792C391.217 79.984 390.865 80.2613 390.577 80.624C390.289 80.976 390.07 81.3973 389.921 81.888C389.772 82.3787 389.697 82.9173 389.697 83.504V85.328C389.697 85.9147 389.772 86.4533 389.921 86.944C390.07 87.4347 390.289 87.8613 390.577 88.224C390.865 88.576 391.217 88.8533 391.633 89.056C392.06 89.248 392.545 89.344 393.089 89.344ZM400.396 90.192C400.086 90.192 399.841 90.1013 399.66 89.92C399.489 89.728 399.404 89.4987 399.404 89.232V89.136C399.404 88.8693 399.489 88.6453 399.66 88.464C399.841 88.272 400.086 88.176 400.396 88.176C400.705 88.176 400.945 88.272 401.116 88.464C401.297 88.6453 401.388 88.8693 401.388 89.136V89.232C401.388 89.4987 401.297 89.728 401.116 89.92C400.945 90.1013 400.705 90.192 400.396 90.192ZM407.333 89.408C407.781 89.408 408.16 89.3227 408.469 89.152C408.789 88.9707 409.045 88.7147 409.237 88.384C409.44 88.0533 409.584 87.6533 409.669 87.184C409.765 86.704 409.813 86.1707 409.813 85.584V83.248C409.813 82.6613 409.765 82.1333 409.669 81.664C409.584 81.184 409.44 80.7787 409.237 80.448C409.045 80.1173 408.789 79.8667 408.469 79.696C408.16 79.5147 407.781 79.424 407.333 79.424C406.885 79.424 406.501 79.5147 406.181 79.696C405.872 79.8667 405.616 80.1173 405.413 80.448C405.221 80.7787 405.077 81.184 404.981 81.664C404.896 82.1333 404.853 82.6613 404.853 83.248V85.584C404.853 86.1707 404.896 86.704 404.981 87.184C405.077 87.6533 405.221 88.0533 405.413 88.384C405.616 88.7147 405.872 88.9707 406.181 89.152C406.501 89.3227 406.885 89.408 407.333 89.408ZM407.333 90.192C406.053 90.192 405.066 89.7013 404.373 88.72C403.69 87.7387 403.349 86.304 403.349 84.416C403.349 82.528 403.69 81.0933 404.373 80.112C405.066 79.1307 406.053 78.64 407.333 78.64C408.613 78.64 409.594 79.1307 410.277 80.112C410.97 81.0933 411.317 82.528 411.317 84.416C411.317 86.304 410.97 87.7387 410.277 88.72C409.594 89.7013 408.613 90.192 407.333 90.192ZM418.031 87.424H412.783V86.496L418.111 78.832H419.343V86.4H420.959V87.424H419.343V90H418.031V87.424ZM413.727 86.4H418.031V80.336H417.967L413.727 86.4Z" fill="#767677"/>
<path d="M388.681 122.896H390.481V108.352H388.681V107.248H392.905L397.801 117.616H397.873L403.009 107.248H406.969V108.352H405.169V122.896H406.969V124H401.305V122.896H403.105V109.672H403.009L401.953 112L397.345 121.192L393.241 112.6L391.897 109.672H391.801V122.896H393.601V124H388.681V122.896ZM413.163 124.288C412.011 124.288 411.107 123.992 410.451 123.4C409.811 122.792 409.491 121.968 409.491 120.928C409.491 120.336 409.587 119.816 409.779 119.368C409.971 118.904 410.283 118.52 410.715 118.216C411.163 117.912 411.739 117.68 412.443 117.52C413.147 117.36 414.003 117.28 415.011 117.28H416.787V115.456C416.787 114.48 416.547 113.736 416.067 113.224C415.603 112.696 414.899 112.432 413.955 112.432C413.539 112.432 413.155 112.472 412.803 112.552C412.451 112.616 412.163 112.712 411.939 112.84V112.888C412.115 112.984 412.283 113.128 412.443 113.32C412.619 113.512 412.707 113.784 412.707 114.136C412.707 114.552 412.587 114.88 412.347 115.12C412.107 115.344 411.787 115.456 411.387 115.456C411.003 115.456 410.683 115.344 410.427 115.12C410.187 114.88 410.067 114.528 410.067 114.064C410.067 113.712 410.171 113.376 410.379 113.056C410.587 112.72 410.883 112.424 411.267 112.168C411.651 111.912 412.123 111.712 412.683 111.568C413.259 111.408 413.907 111.328 414.627 111.328C415.923 111.328 416.931 111.664 417.651 112.336C418.387 113.008 418.755 113.952 418.755 115.168V122.968H420.555V123.808C420.379 123.936 420.139 124.048 419.835 124.144C419.547 124.24 419.219 124.288 418.851 124.288C418.227 124.288 417.747 124.112 417.411 123.76C417.075 123.408 416.907 122.936 416.907 122.344V122.176H416.787C416.675 122.448 416.523 122.712 416.331 122.968C416.155 123.224 415.923 123.448 415.635 123.64C415.347 123.832 414.995 123.984 414.579 124.096C414.179 124.224 413.707 124.288 413.163 124.288ZM414.003 122.968C414.771 122.968 415.427 122.776 415.971 122.392C416.515 121.992 416.787 121.384 416.787 120.568V118.24H415.227C414.539 118.24 413.963 118.296 413.499 118.408C413.035 118.504 412.667 118.656 412.395 118.864C412.123 119.056 411.923 119.296 411.795 119.584C411.683 119.872 411.627 120.208 411.627 120.592V121.096C411.627 121.704 411.835 122.168 412.251 122.488C412.667 122.808 413.251 122.968 414.003 122.968ZM422.232 122.896H424.008V107.608L422.232 107.296V106.456L425.976 105.76V122.896H427.752V124H422.232V122.896ZM435.284 124.288C434.404 124.288 433.612 124.136 432.908 123.832C432.22 123.512 431.636 123.072 431.156 122.512C430.676 121.952 430.308 121.272 430.052 120.472C429.796 119.672 429.668 118.784 429.668 117.808C429.668 116.848 429.804 115.976 430.076 115.192C430.364 114.392 430.748 113.704 431.228 113.128C431.724 112.552 432.308 112.112 432.98 111.808C433.652 111.488 434.388 111.328 435.188 111.328C436.004 111.328 436.732 111.472 437.372 111.76C438.012 112.048 438.548 112.456 438.98 112.984C439.428 113.496 439.772 114.112 440.012 114.832C440.252 115.552 440.372 116.336 440.372 117.184V117.736H431.852V118.36C431.852 119.72 432.188 120.792 432.86 121.576C433.548 122.36 434.46 122.752 435.596 122.752C436.588 122.752 437.372 122.552 437.948 122.152C438.54 121.736 439.004 121.2 439.34 120.544L440.132 121.048C439.972 121.464 439.748 121.872 439.46 122.272C439.188 122.656 438.852 123 438.452 123.304C438.052 123.592 437.588 123.824 437.06 124C436.532 124.192 435.94 124.288 435.284 124.288ZM431.852 116.632H438.308V116.392C438.308 115.832 438.244 115.312 438.116 114.832C438.004 114.352 437.82 113.936 437.564 113.584C437.308 113.232 436.98 112.96 436.58 112.768C436.196 112.56 435.732 112.456 435.188 112.456C434.644 112.456 434.164 112.552 433.748 112.744C433.332 112.936 432.98 113.208 432.692 113.56C432.42 113.912 432.212 114.328 432.068 114.808C431.924 115.272 431.852 115.784 431.852 116.344V116.632ZM442.066 127.264C442.61 126.784 443.066 126.28 443.434 125.752C443.802 125.24 444.042 124.752 444.154 124.288H444.106C443.658 124.288 443.314 124.144 443.074 123.856C442.834 123.568 442.714 123.24 442.714 122.872V122.728C442.714 122.312 442.85 121.968 443.122 121.696C443.394 121.408 443.754 121.264 444.202 121.264C444.666 121.264 445.026 121.416 445.282 121.72C445.554 122.024 445.69 122.392 445.69 122.824V123.04C445.69 123.392 445.626 123.76 445.498 124.144C445.37 124.528 445.194 124.912 444.97 125.296C444.762 125.68 444.506 126.04 444.202 126.376C443.914 126.712 443.602 127.008 443.266 127.264H442.066ZM454.306 122.896H456.106V108.352H454.306V107.248H466.69V111.28H464.962V108.424H458.17V115.144H462.922V113.224H464.362V118.24H462.922V116.32H458.17V122.896H460.45V124H454.306V122.896ZM473.745 124.288C472.865 124.288 472.073 124.136 471.369 123.832C470.681 123.512 470.097 123.072 469.617 122.512C469.137 121.952 468.769 121.272 468.513 120.472C468.257 119.672 468.129 118.784 468.129 117.808C468.129 116.848 468.265 115.976 468.537 115.192C468.825 114.392 469.209 113.704 469.689 113.128C470.185 112.552 470.769 112.112 471.441 111.808C472.113 111.488 472.849 111.328 473.649 111.328C474.465 111.328 475.193 111.472 475.833 111.76C476.473 112.048 477.009 112.456 477.441 112.984C477.889 113.496 478.233 114.112 478.473 114.832C478.713 115.552 478.833 116.336 478.833 117.184V117.736H470.313V118.36C470.313 119.72 470.649 120.792 471.321 121.576C472.009 122.36 472.921 122.752 474.057 122.752C475.049 122.752 475.833 122.552 476.409 122.152C477.001 121.736 477.465 121.2 477.801 120.544L478.593 121.048C478.433 121.464 478.209 121.872 477.921 122.272C477.649 122.656 477.313 123 476.913 123.304C476.513 123.592 476.049 123.824 475.521 124C474.993 124.192 474.401 124.288 473.745 124.288ZM470.313 116.632H476.769V116.392C476.769 115.832 476.705 115.312 476.577 114.832C476.465 114.352 476.281 113.936 476.025 113.584C475.769 113.232 475.441 112.96 475.041 112.768C474.657 112.56 474.193 112.456 473.649 112.456C473.105 112.456 472.625 112.552 472.209 112.744C471.793 112.936 471.441 113.208 471.153 113.56C470.881 113.912 470.673 114.328 470.529 114.808C470.385 115.272 470.313 115.784 470.313 116.344V116.632ZM481.116 122.896H482.892V113.176L481.116 112.864V112.048L484.812 111.328V113.488H484.908C485.004 113.232 485.148 112.976 485.34 112.72C485.532 112.464 485.772 112.232 486.06 112.024C486.364 111.816 486.708 111.648 487.092 111.52C487.476 111.392 487.908 111.328 488.388 111.328C489.444 111.328 490.284 111.528 490.908 111.928C491.532 112.328 491.964 112.944 492.204 113.776H492.276C492.404 113.488 492.572 113.2 492.78 112.912C492.988 112.624 493.244 112.36 493.548 112.12C493.852 111.88 494.204 111.688 494.604 111.544C495.02 111.4 495.5 111.328 496.044 111.328C497.532 111.328 498.588 111.72 499.212 112.504C499.852 113.288 500.172 114.456 500.172 116.008V122.896H501.948V124H496.428V122.896H498.204V116.152C498.204 113.848 497.252 112.696 495.348 112.696C494.996 112.696 494.644 112.752 494.292 112.864C493.956 112.96 493.652 113.112 493.38 113.32C493.124 113.512 492.916 113.768 492.756 114.088C492.596 114.392 492.516 114.752 492.516 115.168V122.896H494.292V124H488.772V122.896H490.548V116.152C490.548 113.848 489.604 112.696 487.716 112.696C487.348 112.696 486.996 112.752 486.66 112.864C486.324 112.96 486.02 113.112 485.748 113.32C485.476 113.512 485.26 113.768 485.1 114.088C484.94 114.392 484.86 114.752 484.86 115.168V122.896H486.636V124H481.116V122.896ZM507.663 124.288C506.511 124.288 505.607 123.992 504.951 123.4C504.311 122.792 503.991 121.968 503.991 120.928C503.991 120.336 504.087 119.816 504.279 119.368C504.471 118.904 504.783 118.52 505.215 118.216C505.663 117.912 506.239 117.68 506.943 117.52C507.647 117.36 508.503 117.28 509.511 117.28H511.287V115.456C511.287 114.48 511.047 113.736 510.567 113.224C510.103 112.696 509.399 112.432 508.455 112.432C508.039 112.432 507.655 112.472 507.303 112.552C506.951 112.616 506.663 112.712 506.439 112.84V112.888C506.615 112.984 506.783 113.128 506.943 113.32C507.119 113.512 507.207 113.784 507.207 114.136C507.207 114.552 507.087 114.88 506.847 115.12C506.607 115.344 506.287 115.456 505.887 115.456C505.503 115.456 505.183 115.344 504.927 115.12C504.687 114.88 504.567 114.528 504.567 114.064C504.567 113.712 504.671 113.376 504.879 113.056C505.087 112.72 505.383 112.424 505.767 112.168C506.151 111.912 506.623 111.712 507.183 111.568C507.759 111.408 508.407 111.328 509.127 111.328C510.423 111.328 511.431 111.664 512.151 112.336C512.887 113.008 513.255 113.952 513.255 115.168V122.968H515.055V123.808C514.879 123.936 514.639 124.048 514.335 124.144C514.047 124.24 513.719 124.288 513.351 124.288C512.727 124.288 512.247 124.112 511.911 123.76C511.575 123.408 511.407 122.936 511.407 122.344V122.176H511.287C511.175 122.448 511.023 122.712 510.831 122.968C510.655 123.224 510.423 123.448 510.135 123.64C509.847 123.832 509.495 123.984 509.079 124.096C508.679 124.224 508.207 124.288 507.663 124.288ZM508.503 122.968C509.271 122.968 509.927 122.776 510.471 122.392C511.015 121.992 511.287 121.384 511.287 120.568V118.24H509.727C509.039 118.24 508.463 118.296 507.999 118.408C507.535 118.504 507.167 118.656 506.895 118.864C506.623 119.056 506.423 119.296 506.295 119.584C506.183 119.872 506.127 120.208 506.127 120.592V121.096C506.127 121.704 506.335 122.168 506.751 122.488C507.167 122.808 507.751 122.968 508.503 122.968ZM516.732 122.896H518.508V107.608L516.732 107.296V106.456L520.476 105.76V122.896H522.252V124H516.732V122.896ZM529.784 124.288C528.904 124.288 528.112 124.136 527.408 123.832C526.72 123.512 526.136 123.072 525.656 122.512C525.176 121.952 524.808 121.272 524.552 120.472C524.296 119.672 524.168 118.784 524.168 117.808C524.168 116.848 524.304 115.976 524.576 115.192C524.864 114.392 525.248 113.704 525.728 113.128C526.224 112.552 526.808 112.112 527.48 111.808C528.152 111.488 528.888 111.328 529.688 111.328C530.504 111.328 531.232 111.472 531.872 111.76C532.512 112.048 533.048 112.456 533.48 112.984C533.928 113.496 534.272 114.112 534.512 114.832C534.752 115.552 534.872 116.336 534.872 117.184V117.736H526.352V118.36C526.352 119.72 526.688 120.792 527.36 121.576C528.048 122.36 528.96 122.752 530.096 122.752C531.088 122.752 531.872 122.552 532.448 122.152C533.04 121.736 533.504 121.2 533.84 120.544L534.632 121.048C534.472 121.464 534.248 121.872 533.96 122.272C533.688 122.656 533.352 123 532.952 123.304C532.552 123.592 532.088 123.824 531.56 124C531.032 124.192 530.44 124.288 529.784 124.288ZM526.352 116.632H532.808V116.392C532.808 115.832 532.744 115.312 532.616 114.832C532.504 114.352 532.32 113.936 532.064 113.584C531.808 113.232 531.48 112.96 531.08 112.768C530.696 112.56 530.232 112.456 529.688 112.456C529.144 112.456 528.664 112.552 528.248 112.744C527.832 112.936 527.48 113.208 527.192 113.56C526.92 113.912 526.712 114.328 526.568 114.808C526.424 115.272 526.352 115.784 526.352 116.344V116.632ZM536.566 127.264C537.11 126.784 537.566 126.28 537.934 125.752C538.302 125.24 538.542 124.752 538.654 124.288H538.606C538.158 124.288 537.814 124.144 537.574 123.856C537.334 123.568 537.214 123.24 537.214 122.872V122.728C537.214 122.312 537.35 121.968 537.622 121.696C537.894 121.408 538.254 121.264 538.702 121.264C539.166 121.264 539.526 121.416 539.782 121.72C540.054 122.024 540.19 122.392 540.19 122.824V123.04C540.19 123.392 540.126 123.76 539.998 124.144C539.87 124.528 539.694 124.912 539.47 125.296C539.262 125.68 539.006 126.04 538.702 126.376C538.414 126.712 538.102 127.008 537.766 127.264H536.566ZM556.486 124.288C555.398 124.288 554.462 124.168 553.678 123.928C552.91 123.688 552.278 123.296 551.782 122.752C551.286 122.208 550.926 121.512 550.702 120.664C550.478 119.816 550.366 118.776 550.366 117.544V108.352H548.566V107.248H554.23V108.352H552.43V117.928C552.43 118.776 552.502 119.512 552.646 120.136C552.79 120.76 553.022 121.28 553.342 121.696C553.678 122.096 554.11 122.4 554.638 122.608C555.166 122.816 555.822 122.92 556.606 122.92C558.174 122.92 559.286 122.512 559.942 121.696C560.598 120.864 560.926 119.608 560.926 117.928V108.352H559.126V107.248H564.046V108.352H562.246V117.232C562.246 118.448 562.15 119.504 561.958 120.4C561.766 121.28 561.438 122.008 560.974 122.584C560.526 123.16 559.934 123.592 559.198 123.88C558.462 124.152 557.558 124.288 556.486 124.288ZM566.335 122.896H568.111V113.176L566.335 112.864V112.048L570.031 111.328V113.488H570.127C570.223 113.248 570.367 113 570.559 112.744C570.767 112.488 571.015 112.256 571.303 112.048C571.607 111.84 571.959 111.672 572.359 111.544C572.759 111.4 573.199 111.328 573.679 111.328C575.167 111.328 576.231 111.72 576.871 112.504C577.527 113.272 577.855 114.432 577.855 115.984V122.896H579.631V124H574.111V122.896H575.887V116.152C575.887 113.848 574.919 112.696 572.983 112.696C572.631 112.696 572.279 112.744 571.927 112.84C571.591 112.936 571.279 113.088 570.991 113.296C570.719 113.504 570.495 113.76 570.319 114.064C570.159 114.368 570.079 114.728 570.079 115.144V122.896H571.855V124H566.335V122.896ZM584.423 108.76C584.007 108.76 583.687 108.64 583.463 108.4C583.255 108.144 583.151 107.84 583.151 107.488V107.368C583.151 107.016 583.255 106.72 583.463 106.48C583.687 106.224 584.007 106.096 584.423 106.096C584.839 106.096 585.159 106.224 585.383 106.48C585.607 106.72 585.719 107.016 585.719 107.368V107.488C585.719 107.84 585.607 108.144 585.383 108.4C585.159 108.64 584.839 108.76 584.423 108.76ZM581.663 122.896H583.439V113.176L581.663 112.864V112.048L585.407 111.328V122.896H587.183V124H581.663V122.896ZM594.081 124.288C593.329 124.288 592.673 124.136 592.113 123.832C591.553 123.512 591.185 123.16 591.009 122.776H590.913V124H589.473V120.28H590.913V120.784C590.913 121.472 591.129 122.032 591.561 122.464C591.993 122.896 592.705 123.112 593.697 123.112C594.609 123.112 595.313 122.952 595.809 122.632C596.321 122.296 596.577 121.768 596.577 121.048C596.577 119.928 595.897 119.216 594.537 118.912L593.097 118.6C591.913 118.344 591.017 117.912 590.409 117.304C589.817 116.696 589.521 115.864 589.521 114.808C589.521 113.72 589.897 112.872 590.649 112.264C591.401 111.64 592.409 111.328 593.673 111.328C594.441 111.328 595.065 111.448 595.545 111.688C596.041 111.928 596.369 112.24 596.529 112.624H596.625V111.616H598.065V115.336H596.625V114.424C596.625 113.144 595.729 112.504 593.937 112.504C593.121 112.504 592.481 112.664 592.017 112.984C591.569 113.288 591.345 113.776 591.345 114.448C591.345 115.008 591.529 115.48 591.897 115.864C592.265 116.232 592.769 116.488 593.409 116.632L594.753 116.92C595.985 117.176 596.905 117.6 597.513 118.192C598.137 118.784 598.449 119.608 598.449 120.664C598.449 121.176 598.345 121.656 598.137 122.104C597.945 122.536 597.657 122.92 597.273 123.256C596.905 123.576 596.449 123.824 595.905 124C595.377 124.192 594.769 124.288 594.081 124.288ZM606.448 124.288C605.568 124.288 604.776 124.136 604.072 123.832C603.384 123.512 602.8 123.072 602.32 122.512C601.84 121.952 601.472 121.272 601.216 120.472C600.96 119.672 600.832 118.784 600.832 117.808C600.832 116.848 600.968 115.976 601.24 115.192C601.528 114.392 601.912 113.704 602.392 113.128C602.888 112.552 603.472 112.112 604.144 111.808C604.816 111.488 605.552 111.328 606.352 111.328C607.168 111.328 607.896 111.472 608.536 111.76C609.176 112.048 609.712 112.456 610.144 112.984C610.592 113.496 610.936 114.112 611.176 114.832C611.416 115.552 611.536 116.336 611.536 117.184V117.736H603.016V118.36C603.016 119.72 603.352 120.792 604.024 121.576C604.712 122.36 605.624 122.752 606.76 122.752C607.752 122.752 608.536 122.552 609.112 122.152C609.704 121.736 610.168 121.2 610.504 120.544L611.296 121.048C611.136 121.464 610.912 121.872 610.624 122.272C610.352 122.656 610.016 123 609.616 123.304C609.216 123.592 608.752 123.824 608.224 124C607.696 124.192 607.104 124.288 606.448 124.288ZM603.016 116.632H609.472V116.392C609.472 115.832 609.408 115.312 609.28 114.832C609.168 114.352 608.984 113.936 608.728 113.584C608.472 113.232 608.144 112.96 607.744 112.768C607.36 112.56 606.896 112.456 606.352 112.456C605.808 112.456 605.328 112.552 604.912 112.744C604.496 112.936 604.144 113.208 603.856 113.56C603.584 113.912 603.376 114.328 603.232 114.808C603.088 115.272 603.016 115.784 603.016 116.344V116.632ZM613.129 122.896H614.497L618.121 117.952L614.449 112.72H613.201V111.616H618.241V112.72H616.825L619.513 116.656H619.609L622.153 112.72H620.665V111.616H625.009V112.72H623.641L620.209 117.592L623.881 122.896H625.129V124H620.065V122.896H621.481L618.817 118.888H618.721L615.985 122.896H617.473V124H613.129V122.896ZM629.918 115.096C631.23 115.048 632.294 114.736 633.11 114.16C633.942 113.568 634.358 112.736 634.358 111.664V111.112C634.358 110.152 634.078 109.416 633.518 108.904C632.958 108.392 632.222 108.136 631.31 108.136C630.718 108.136 630.23 108.192 629.846 108.304C629.462 108.4 629.134 108.528 628.862 108.688V108.736C629.038 108.8 629.222 108.96 629.414 109.216C629.622 109.456 629.726 109.752 629.726 110.104C629.726 110.52 629.598 110.872 629.342 111.16C629.102 111.432 628.758 111.568 628.31 111.568C627.862 111.568 627.502 111.432 627.23 111.16C626.974 110.888 626.846 110.496 626.846 109.984C626.846 109.584 626.974 109.208 627.23 108.856C627.486 108.488 627.83 108.168 628.262 107.896C628.694 107.608 629.198 107.384 629.774 107.224C630.35 107.048 630.958 106.96 631.598 106.96C632.318 106.96 632.982 107.064 633.59 107.272C634.198 107.48 634.718 107.776 635.15 108.16C635.582 108.544 635.918 109.008 636.158 109.552C636.398 110.08 636.518 110.672 636.518 111.328C636.518 112.048 636.382 112.704 636.11 113.296C635.838 113.872 635.462 114.368 634.982 114.784C634.502 115.2 633.942 115.536 633.302 115.792C632.662 116.048 631.974 116.208 631.238 116.272V119.08H629.918V115.096ZM630.59 124.288C630.126 124.288 629.758 124.152 629.486 123.88C629.23 123.592 629.102 123.248 629.102 122.848V122.704C629.102 122.304 629.23 121.968 629.486 121.696C629.758 121.408 630.126 121.264 630.59 121.264C631.054 121.264 631.414 121.408 631.67 121.696C631.942 121.968 632.078 122.304 632.078 122.704V122.848C632.078 123.248 631.942 123.592 631.67 123.88C631.414 124.152 631.054 124.288 630.59 124.288Z" fill="#313134"/>
<path d="M390.311 175.12C389.891 175.12 389.548 175.057 389.281 174.93C389.021 174.797 388.838 174.62 388.731 174.4H388.681V175H387.961V172.95H388.681V173.41C388.681 173.577 388.704 173.733 388.751 173.88C388.804 174.02 388.888 174.143 389.001 174.25C389.121 174.357 389.274 174.44 389.461 174.5C389.654 174.56 389.888 174.59 390.161 174.59C390.741 174.59 391.158 174.467 391.411 174.22C391.671 173.973 391.801 173.643 391.801 173.23C391.801 172.877 391.701 172.6 391.501 172.4C391.308 172.2 391.001 172.043 390.581 171.93L390.031 171.79C389.411 171.63 388.931 171.39 388.591 171.07C388.251 170.75 388.081 170.31 388.081 169.75C388.081 169.47 388.134 169.217 388.241 168.99C388.348 168.757 388.498 168.56 388.691 168.4C388.884 168.24 389.114 168.117 389.381 168.03C389.654 167.943 389.954 167.9 390.281 167.9C390.661 167.9 390.971 167.96 391.211 168.08C391.458 168.193 391.631 168.353 391.731 168.56H391.791V168.02H392.511V169.97H391.791V169.51C391.791 169.343 391.764 169.193 391.711 169.06C391.664 168.927 391.581 168.813 391.461 168.72C391.341 168.627 391.184 168.557 390.991 168.51C390.798 168.457 390.561 168.43 390.281 168.43C389.814 168.43 389.464 168.537 389.231 168.75C388.998 168.963 388.881 169.243 388.881 169.59C388.881 169.95 388.984 170.233 389.191 170.44C389.404 170.64 389.738 170.8 390.191 170.92L390.701 171.05C391.308 171.21 391.774 171.45 392.101 171.77C392.428 172.09 392.591 172.51 392.591 173.03C392.591 173.33 392.541 173.61 392.441 173.87C392.341 174.123 392.194 174.343 392.001 174.53C391.808 174.717 391.568 174.863 391.281 174.97C391.001 175.07 390.678 175.12 390.311 175.12ZM393.79 174.54H394.54V168.48H393.79V168.02H398.95V169.7H398.23V168.51H395.4V171.16H397.38V170.36H397.98V172.45H397.38V171.65H395.4V174.51H398.33V173.23H399.05V175H393.79V174.54ZM400.196 174.54H400.946V168.48H400.196V168.02H402.556V168.48H401.806V174.51H404.366V173.23H405.086V175H400.196V174.54ZM406.134 174.54H406.884V168.48H406.134V168.02H411.294V169.7H410.574V168.51H407.744V171.16H409.724V170.36H410.324V172.45H409.724V171.65H407.744V174.51H410.674V173.23H411.394V175H406.134V174.54ZM415.41 175.12C414.97 175.12 414.57 175.037 414.21 174.87C413.85 174.703 413.543 174.463 413.29 174.15C413.037 173.837 412.84 173.457 412.7 173.01C412.56 172.563 412.49 172.063 412.49 171.51C412.49 170.93 412.56 170.417 412.7 169.97C412.84 169.523 413.033 169.147 413.28 168.84C413.533 168.533 413.837 168.3 414.19 168.14C414.543 167.98 414.933 167.9 415.36 167.9C415.793 167.9 416.153 167.973 416.44 168.12C416.733 168.26 416.927 168.437 417.02 168.65H417.06V168.02H417.78V170.06H417.06V169.54C417.06 169.207 416.913 168.94 416.62 168.74C416.327 168.533 415.943 168.43 415.47 168.43C415.117 168.43 414.81 168.497 414.55 168.63C414.297 168.757 414.087 168.933 413.92 169.16C413.76 169.38 413.64 169.64 413.56 169.94C413.487 170.233 413.45 170.543 413.45 170.87V172.08C413.45 172.447 413.497 172.777 413.59 173.07C413.69 173.363 413.83 173.617 414.01 173.83C414.197 174.037 414.423 174.197 414.69 174.31C414.957 174.423 415.26 174.48 415.6 174.48C416.073 174.48 416.47 174.357 416.79 174.11C417.11 173.863 417.343 173.55 417.49 173.17L417.88 173.36C417.82 173.553 417.723 173.753 417.59 173.96C417.457 174.167 417.287 174.357 417.08 174.53C416.88 174.703 416.64 174.847 416.36 174.96C416.08 175.067 415.763 175.12 415.41 175.12ZM420.364 174.54H421.314V168.51H419.554V169.7H418.834V168.02H424.654V169.7H423.934V168.51H422.174V174.54H423.124V175H420.364V174.54ZM430.912 174.59C431.252 174.59 431.552 174.53 431.812 174.41C432.078 174.283 432.302 174.11 432.482 173.89C432.662 173.663 432.798 173.397 432.892 173.09C432.985 172.783 433.032 172.447 433.032 172.08V170.94C433.032 170.573 432.985 170.237 432.892 169.93C432.798 169.623 432.662 169.36 432.482 169.14C432.302 168.913 432.078 168.74 431.812 168.62C431.552 168.493 431.252 168.43 430.912 168.43C430.572 168.43 430.268 168.493 430.002 168.62C429.742 168.74 429.522 168.913 429.342 169.14C429.162 169.36 429.025 169.623 428.932 169.93C428.838 170.237 428.792 170.573 428.792 170.94V172.08C428.792 172.447 428.838 172.783 428.932 173.09C429.025 173.397 429.162 173.663 429.342 173.89C429.522 174.11 429.742 174.283 430.002 174.41C430.268 174.53 430.572 174.59 430.912 174.59ZM430.912 175.12C430.452 175.12 430.032 175.037 429.652 174.87C429.272 174.703 428.945 174.463 428.672 174.15C428.405 173.837 428.198 173.46 428.052 173.02C427.905 172.573 427.832 172.07 427.832 171.51C427.832 170.95 427.905 170.45 428.052 170.01C428.198 169.563 428.405 169.183 428.672 168.87C428.945 168.557 429.272 168.317 429.652 168.15C430.032 167.983 430.452 167.9 430.912 167.9C431.372 167.9 431.792 167.983 432.172 168.15C432.552 168.317 432.875 168.557 433.142 168.87C433.415 169.183 433.625 169.563 433.772 170.01C433.918 170.45 433.992 170.95 433.992 171.51C433.992 172.07 433.918 172.573 433.772 173.02C433.625 173.46 433.415 173.837 433.142 174.15C432.875 174.463 432.552 174.703 432.172 174.87C431.792 175.037 431.372 175.12 430.912 175.12ZM435.04 174.54H435.79V168.48H435.04V168.02H436.73L440.48 173.62H440.52V168.48H439.77V168.02H441.82V168.48H441.07V175H440.4L436.38 168.99H436.34V174.54H437.09V175H435.04V174.54ZM442.823 174.54H443.573V168.48H442.823V168.02H445.183V168.48H444.433V174.51H446.993V173.23H447.713V175H442.823V174.54ZM449.259 174.54H450.209V172.19L448.199 168.48H447.669V168.02H450.079V168.48H449.179L450.789 171.58H450.829L452.479 168.48H451.579V168.02H453.609V168.48H453.079L451.069 172.14V174.54H452.019V175H449.259V174.54ZM457.011 174.55H458.741V168.71L456.941 169.54L456.791 169.11L458.831 168.02H459.601V174.55H461.271V175H457.011V174.55Z" fill="#767677"/>
<rect width="20" height="20" transform="translate(406.861 198.5)" fill="#F5F1E8"/>
<circle cx="416.861" cy="208.5" r="9.5" stroke="#5F5F61"/>
<path d="M437.741 214.264H438.941V204.568H437.741V203.832H440.557L443.821 210.744H443.869L447.293 203.832H449.933V204.568H448.733V214.264H449.933V215H446.157V214.264H447.357V205.448H447.293L446.589 207L443.517 213.128L440.781 207.4L439.885 205.448H439.821V214.264H441.021V215H437.741V214.264ZM454.062 215.192C453.294 215.192 452.692 214.995 452.254 214.6C451.828 214.195 451.614 213.645 451.614 212.952C451.614 212.557 451.678 212.211 451.806 211.912C451.934 211.603 452.142 211.347 452.43 211.144C452.729 210.941 453.113 210.787 453.582 210.68C454.052 210.573 454.622 210.52 455.294 210.52H456.478V209.304C456.478 208.653 456.318 208.157 455.998 207.816C455.689 207.464 455.22 207.288 454.59 207.288C454.313 207.288 454.057 207.315 453.822 207.368C453.588 207.411 453.396 207.475 453.246 207.56V207.592C453.364 207.656 453.476 207.752 453.582 207.88C453.7 208.008 453.758 208.189 453.758 208.424C453.758 208.701 453.678 208.92 453.518 209.08C453.358 209.229 453.145 209.304 452.878 209.304C452.622 209.304 452.409 209.229 452.238 209.08C452.078 208.92 451.998 208.685 451.998 208.376C451.998 208.141 452.068 207.917 452.206 207.704C452.345 207.48 452.542 207.283 452.798 207.112C453.054 206.941 453.369 206.808 453.742 206.712C454.126 206.605 454.558 206.552 455.038 206.552C455.902 206.552 456.574 206.776 457.054 207.224C457.545 207.672 457.79 208.301 457.79 209.112V214.312H458.99V214.872C458.873 214.957 458.713 215.032 458.51 215.096C458.318 215.16 458.1 215.192 457.854 215.192C457.438 215.192 457.118 215.075 456.894 214.84C456.67 214.605 456.558 214.291 456.558 213.896V213.784H456.478C456.404 213.965 456.302 214.141 456.174 214.312C456.057 214.483 455.902 214.632 455.71 214.76C455.518 214.888 455.284 214.989 455.006 215.064C454.74 215.149 454.425 215.192 454.062 215.192ZM454.622 214.312C455.134 214.312 455.572 214.184 455.934 213.928C456.297 213.661 456.478 213.256 456.478 212.712V211.16H455.438C454.98 211.16 454.596 211.197 454.286 211.272C453.977 211.336 453.732 211.437 453.55 211.576C453.369 211.704 453.236 211.864 453.15 212.056C453.076 212.248 453.038 212.472 453.038 212.728V213.064C453.038 213.469 453.177 213.779 453.454 213.992C453.732 214.205 454.121 214.312 454.622 214.312ZM460.109 214.264H461.293V204.072L460.109 203.864V203.304L462.605 202.84V214.264H463.789V215H460.109V214.264ZM468.809 215.192C468.223 215.192 467.695 215.091 467.225 214.888C466.767 214.675 466.377 214.381 466.057 214.008C465.737 213.635 465.492 213.181 465.321 212.648C465.151 212.115 465.065 211.523 465.065 210.872C465.065 210.232 465.156 209.651 465.337 209.128C465.529 208.595 465.785 208.136 466.105 207.752C466.436 207.368 466.825 207.075 467.273 206.872C467.721 206.659 468.212 206.552 468.745 206.552C469.289 206.552 469.775 206.648 470.201 206.84C470.628 207.032 470.985 207.304 471.273 207.656C471.572 207.997 471.801 208.408 471.961 208.888C472.121 209.368 472.201 209.891 472.201 210.456V210.824H466.521V211.24C466.521 212.147 466.745 212.861 467.193 213.384C467.652 213.907 468.26 214.168 469.017 214.168C469.679 214.168 470.201 214.035 470.585 213.768C470.98 213.491 471.289 213.133 471.513 212.696L472.041 213.032C471.935 213.309 471.785 213.581 471.593 213.848C471.412 214.104 471.188 214.333 470.921 214.536C470.655 214.728 470.345 214.883 469.993 215C469.641 215.128 469.247 215.192 468.809 215.192ZM466.521 210.088H470.825V209.928C470.825 209.555 470.783 209.208 470.697 208.888C470.623 208.568 470.5 208.291 470.329 208.056C470.159 207.821 469.94 207.64 469.673 207.512C469.417 207.373 469.108 207.304 468.745 207.304C468.383 207.304 468.063 207.368 467.785 207.496C467.508 207.624 467.273 207.805 467.081 208.04C466.9 208.275 466.761 208.552 466.665 208.872C466.569 209.181 466.521 209.523 466.521 209.896V210.088Z" fill="#313134"/>
<rect width="20" height="20" transform="translate(397.361 239.5)" fill="#F5F1E8"/>
<circle cx="407.361" cy="249.5" r="9.5" stroke="#5F5F61"/>
<path d="M428.241 255.264H429.441V245.568H428.241V244.832H436.497V247.52H435.345V245.616H430.817V250.096H433.985V248.816H434.945V252.16H433.985V250.88H430.817V255.264H432.337V256H428.241V255.264ZM441.2 256.192C440.613 256.192 440.085 256.091 439.616 255.888C439.157 255.675 438.768 255.381 438.448 255.008C438.128 254.635 437.883 254.181 437.712 253.648C437.541 253.115 437.456 252.523 437.456 251.872C437.456 251.232 437.547 250.651 437.728 250.128C437.92 249.595 438.176 249.136 438.496 248.752C438.827 248.368 439.216 248.075 439.664 247.872C440.112 247.659 440.603 247.552 441.136 247.552C441.68 247.552 442.165 247.648 442.592 247.84C443.019 248.032 443.376 248.304 443.664 248.656C443.963 248.997 444.192 249.408 444.352 249.888C444.512 250.368 444.592 250.891 444.592 251.456V251.824H438.912V252.24C438.912 253.147 439.136 253.861 439.584 254.384C440.043 254.907 440.651 255.168 441.408 255.168C442.069 255.168 442.592 255.035 442.976 254.768C443.371 254.491 443.68 254.133 443.904 253.696L444.432 254.032C444.325 254.309 444.176 254.581 443.984 254.848C443.803 255.104 443.579 255.333 443.312 255.536C443.045 255.728 442.736 255.883 442.384 256C442.032 256.128 441.637 256.192 441.2 256.192ZM438.912 251.088H443.216V250.928C443.216 250.555 443.173 250.208 443.088 249.888C443.013 249.568 442.891 249.291 442.72 249.056C442.549 248.821 442.331 248.64 442.064 248.512C441.808 248.373 441.499 248.304 441.136 248.304C440.773 248.304 440.453 248.368 440.176 248.496C439.899 248.624 439.664 248.805 439.472 249.04C439.291 249.275 439.152 249.552 439.056 249.872C438.96 250.181 438.912 250.523 438.912 250.896V251.088ZM446.114 255.264H447.298V248.784L446.114 248.576V248.032L448.578 247.552V248.992H448.642C448.706 248.821 448.802 248.651 448.93 248.48C449.058 248.309 449.218 248.155 449.41 248.016C449.613 247.877 449.842 247.765 450.098 247.68C450.354 247.595 450.642 247.552 450.962 247.552C451.666 247.552 452.226 247.685 452.642 247.952C453.058 248.219 453.346 248.629 453.506 249.184H453.554C453.64 248.992 453.752 248.8 453.89 248.608C454.029 248.416 454.2 248.24 454.402 248.08C454.605 247.92 454.84 247.792 455.106 247.696C455.384 247.6 455.704 247.552 456.066 247.552C457.058 247.552 457.762 247.813 458.178 248.336C458.605 248.859 458.818 249.637 458.818 250.672V255.264H460.002V256H456.322V255.264H457.506V250.768C457.506 249.232 456.872 248.464 455.602 248.464C455.368 248.464 455.133 248.501 454.898 248.576C454.674 248.64 454.472 248.741 454.29 248.88C454.12 249.008 453.981 249.179 453.874 249.392C453.768 249.595 453.714 249.835 453.714 250.112V255.264H454.898V256H451.218V255.264H452.402V250.768C452.402 249.232 451.773 248.464 450.514 248.464C450.269 248.464 450.034 248.501 449.81 248.576C449.586 248.64 449.384 248.741 449.202 248.88C449.021 249.008 448.877 249.179 448.77 249.392C448.664 249.595 448.61 249.835 448.61 250.112V255.264H449.794V256H446.114V255.264ZM463.812 256.192C463.044 256.192 462.442 255.995 462.004 255.6C461.578 255.195 461.364 254.645 461.364 253.952C461.364 253.557 461.428 253.211 461.556 252.912C461.684 252.603 461.892 252.347 462.18 252.144C462.479 251.941 462.863 251.787 463.332 251.68C463.802 251.573 464.372 251.52 465.044 251.52H466.228V250.304C466.228 249.653 466.068 249.157 465.748 248.816C465.439 248.464 464.97 248.288 464.34 248.288C464.063 248.288 463.807 248.315 463.572 248.368C463.338 248.411 463.146 248.475 462.996 248.56V248.592C463.114 248.656 463.226 248.752 463.332 248.88C463.45 249.008 463.508 249.189 463.508 249.424C463.508 249.701 463.428 249.92 463.268 250.08C463.108 250.229 462.895 250.304 462.628 250.304C462.372 250.304 462.159 250.229 461.988 250.08C461.828 249.92 461.748 249.685 461.748 249.376C461.748 249.141 461.818 248.917 461.956 248.704C462.095 248.48 462.292 248.283 462.548 248.112C462.804 247.941 463.119 247.808 463.492 247.712C463.876 247.605 464.308 247.552 464.788 247.552C465.652 247.552 466.324 247.776 466.804 248.224C467.295 248.672 467.54 249.301 467.54 250.112V255.312H468.74V255.872C468.623 255.957 468.463 256.032 468.26 256.096C468.068 256.16 467.85 256.192 467.604 256.192C467.188 256.192 466.868 256.075 466.644 255.84C466.42 255.605 466.308 255.291 466.308 254.896V254.784H466.228C466.154 254.965 466.052 255.141 465.924 255.312C465.807 255.483 465.652 255.632 465.46 255.76C465.268 255.888 465.034 255.989 464.756 256.064C464.49 256.149 464.175 256.192 463.812 256.192ZM464.372 255.312C464.884 255.312 465.322 255.184 465.684 254.928C466.047 254.661 466.228 254.256 466.228 253.712V252.16H465.188C464.73 252.16 464.346 252.197 464.036 252.272C463.727 252.336 463.482 252.437 463.3 252.576C463.119 252.704 462.986 252.864 462.9 253.056C462.826 253.248 462.788 253.472 462.788 253.728V254.064C462.788 254.469 462.927 254.779 463.204 254.992C463.482 255.205 463.871 255.312 464.372 255.312ZM469.859 255.264H471.043V245.072L469.859 244.864V244.304L472.355 243.84V255.264H473.539V256H469.859V255.264ZM478.559 256.192C477.973 256.192 477.445 256.091 476.975 255.888C476.517 255.675 476.127 255.381 475.807 255.008C475.487 254.635 475.242 254.181 475.071 253.648C474.901 253.115 474.815 252.523 474.815 251.872C474.815 251.232 474.906 250.651 475.087 250.128C475.279 249.595 475.535 249.136 475.855 248.752C476.186 248.368 476.575 248.075 477.023 247.872C477.471 247.659 477.962 247.552 478.495 247.552C479.039 247.552 479.525 247.648 479.951 247.84C480.378 248.032 480.735 248.304 481.023 248.656C481.322 248.997 481.551 249.408 481.711 249.888C481.871 250.368 481.951 250.891 481.951 251.456V251.824H476.271V252.24C476.271 253.147 476.495 253.861 476.943 254.384C477.402 254.907 478.01 255.168 478.767 255.168C479.429 255.168 479.951 255.035 480.335 254.768C480.73 254.491 481.039 254.133 481.263 253.696L481.791 254.032C481.685 254.309 481.535 254.581 481.343 254.848C481.162 255.104 480.938 255.333 480.671 255.536C480.405 255.728 480.095 255.883 479.743 256C479.391 256.128 478.997 256.192 478.559 256.192ZM476.271 251.088H480.575V250.928C480.575 250.555 480.533 250.208 480.447 249.888C480.373 249.568 480.25 249.291 480.079 249.056C479.909 248.821 479.69 248.64 479.423 248.512C479.167 248.373 478.858 248.304 478.495 248.304C478.133 248.304 477.813 248.368 477.535 248.496C477.258 248.624 477.023 248.805 476.831 249.04C476.65 249.275 476.511 249.552 476.415 249.872C476.319 250.181 476.271 250.523 476.271 250.896V251.088Z" fill="#313134"/>
<rect width="20" height="20" transform="translate(398.361 280.5)" fill="#F5F1E8"/>
<circle cx="408.361" cy="290.5" r="9.5" stroke="#5F5F61"/>
<path d="M434.361 297.192C433.636 297.192 433.012 297.112 432.489 296.952C431.977 296.792 431.556 296.531 431.225 296.168C430.894 295.805 430.654 295.341 430.505 294.776C430.356 294.211 430.281 293.517 430.281 292.696V286.568H429.081V285.832H432.857V286.568H431.657V292.952C431.657 293.517 431.705 294.008 431.801 294.424C431.897 294.84 432.052 295.187 432.265 295.464C432.489 295.731 432.777 295.933 433.129 296.072C433.481 296.211 433.918 296.28 434.441 296.28C435.486 296.28 436.228 296.008 436.665 295.464C437.102 294.909 437.321 294.072 437.321 292.952V286.568H436.121V285.832H439.401V286.568H438.201V292.488C438.201 293.299 438.137 294.003 438.009 294.6C437.881 295.187 437.662 295.672 437.353 296.056C437.054 296.44 436.66 296.728 436.169 296.92C435.678 297.101 435.076 297.192 434.361 297.192ZM440.927 296.264H442.111V289.784L440.927 289.576V289.032L443.391 288.552V289.992H443.455C443.519 289.832 443.615 289.667 443.743 289.496C443.881 289.325 444.047 289.171 444.239 289.032C444.441 288.893 444.676 288.781 444.943 288.696C445.209 288.6 445.503 288.552 445.823 288.552C446.815 288.552 447.524 288.813 447.951 289.336C448.388 289.848 448.607 290.621 448.607 291.656V296.264H449.791V297H446.111V296.264H447.295V291.768C447.295 290.232 446.649 289.464 445.359 289.464C445.124 289.464 444.889 289.496 444.655 289.56C444.431 289.624 444.223 289.725 444.031 289.864C443.849 290.003 443.7 290.173 443.583 290.376C443.476 290.579 443.423 290.819 443.423 291.096V296.264H444.607V297H440.927V296.264ZM452.985 286.84C452.708 286.84 452.495 286.76 452.345 286.6C452.207 286.429 452.137 286.227 452.137 285.992V285.912C452.137 285.677 452.207 285.48 452.345 285.32C452.495 285.149 452.708 285.064 452.985 285.064C453.263 285.064 453.476 285.149 453.625 285.32C453.775 285.48 453.849 285.677 453.849 285.912V285.992C453.849 286.227 453.775 286.429 453.625 286.6C453.476 286.76 453.263 286.84 452.985 286.84ZM451.145 296.264H452.329V289.784L451.145 289.576V289.032L453.641 288.552V296.264H454.825V297H451.145V296.264ZM460.112 297.192C459.44 297.192 458.891 297.091 458.464 296.888C458.048 296.675 457.755 296.392 457.584 296.04H457.504V297H456.352V293.72H457.504V294.456C457.504 294.723 457.542 294.973 457.616 295.208C457.702 295.432 457.835 295.629 458.016 295.8C458.208 295.971 458.454 296.104 458.752 296.2C459.062 296.296 459.435 296.344 459.872 296.344C460.8 296.344 461.467 296.147 461.872 295.752C462.288 295.357 462.496 294.829 462.496 294.168C462.496 293.603 462.336 293.16 462.016 292.84C461.707 292.52 461.216 292.269 460.544 292.088L459.664 291.864C458.672 291.608 457.904 291.224 457.36 290.712C456.816 290.2 456.544 289.496 456.544 288.6C456.544 288.152 456.63 287.747 456.8 287.384C456.971 287.011 457.211 286.696 457.52 286.44C457.83 286.184 458.198 285.987 458.624 285.848C459.062 285.709 459.542 285.64 460.064 285.64C460.672 285.64 461.168 285.736 461.552 285.928C461.947 286.109 462.224 286.365 462.384 286.696H462.48V285.832H463.632V288.952H462.48V288.216C462.48 287.949 462.438 287.709 462.352 287.496C462.278 287.283 462.144 287.101 461.952 286.952C461.76 286.803 461.51 286.691 461.2 286.616C460.891 286.531 460.512 286.488 460.064 286.488C459.318 286.488 458.758 286.659 458.384 287C458.011 287.341 457.824 287.789 457.824 288.344C457.824 288.92 457.99 289.373 458.32 289.704C458.662 290.024 459.195 290.28 459.92 290.472L460.736 290.68C461.707 290.936 462.454 291.32 462.976 291.832C463.499 292.344 463.76 293.016 463.76 293.848C463.76 294.328 463.68 294.776 463.52 295.192C463.36 295.597 463.126 295.949 462.816 296.248C462.507 296.547 462.123 296.781 461.664 296.952C461.216 297.112 460.699 297.192 460.112 297.192ZM469.263 297.192C468.676 297.192 468.148 297.091 467.679 296.888C467.22 296.675 466.831 296.381 466.511 296.008C466.191 295.635 465.945 295.181 465.775 294.648C465.604 294.115 465.519 293.523 465.519 292.872C465.519 292.232 465.609 291.651 465.791 291.128C465.983 290.595 466.239 290.136 466.559 289.752C466.889 289.368 467.279 289.075 467.727 288.872C468.175 288.659 468.665 288.552 469.199 288.552C469.743 288.552 470.228 288.648 470.655 288.84C471.081 289.032 471.439 289.304 471.727 289.656C472.025 289.997 472.255 290.408 472.415 290.888C472.575 291.368 472.655 291.891 472.655 292.456V292.824H466.975V293.24C466.975 294.147 467.199 294.861 467.647 295.384C468.105 295.907 468.713 296.168 469.471 296.168C470.132 296.168 470.655 296.035 471.039 295.768C471.433 295.491 471.743 295.133 471.967 294.696L472.495 295.032C472.388 295.309 472.239 295.581 472.047 295.848C471.865 296.104 471.641 296.333 471.375 296.536C471.108 296.728 470.799 296.883 470.447 297C470.095 297.128 469.7 297.192 469.263 297.192ZM466.975 292.088H471.279V291.928C471.279 291.555 471.236 291.208 471.151 290.888C471.076 290.568 470.953 290.291 470.783 290.056C470.612 289.821 470.393 289.64 470.127 289.512C469.871 289.373 469.561 289.304 469.199 289.304C468.836 289.304 468.516 289.368 468.239 289.496C467.961 289.624 467.727 289.805 467.535 290.04C467.353 290.275 467.215 290.552 467.119 290.872C467.023 291.181 466.975 291.523 466.975 291.896V292.088ZM473.716 296.264H474.628L477.044 292.968L474.596 289.48H473.764V288.744H477.124V289.48H476.18L477.972 292.104H478.036L479.732 289.48H478.74V288.744H481.636V289.48H480.724L478.436 292.728L480.884 296.264H481.716V297H478.34V296.264H479.284L477.508 293.592H477.444L475.62 296.264H476.612V297H473.716V296.264Z" fill="#313134"/>
<path d="M529.361 326.5L567.361 326.5C572.608 326.5 576.861 330.753 576.861 336L576.861 347C576.861 352.247 572.608 356.5 567.361 356.5L529.361 356.5C524.114 356.5 519.861 352.247 519.861 347L519.861 336C519.861 330.753 524.114 326.5 529.361 326.5Z" fill="#F5F1E8"/>
<path d="M529.361 326.5L567.361 326.5C572.608 326.5 576.861 330.753 576.861 336L576.861 347C576.861 352.247 572.608 356.5 567.361 356.5L529.361 356.5C524.114 356.5 519.861 352.247 519.861 347L519.861 336C519.861 330.753 524.114 326.5 529.361 326.5Z" stroke="#767677"/>
<path d="M530.241 347.264H531.441V337.568H530.241V336.832H535.585C536.524 336.832 537.254 337.072 537.777 337.552C538.31 338.032 538.577 338.672 538.577 339.472C538.577 339.867 538.518 340.219 538.401 340.528C538.284 340.837 538.124 341.104 537.921 341.328C537.729 341.552 537.505 341.733 537.249 341.872C537.004 342.011 536.748 342.101 536.481 342.144V342.192C536.758 342.213 537.046 342.283 537.345 342.4C537.644 342.517 537.916 342.688 538.161 342.912C538.406 343.136 538.609 343.413 538.769 343.744C538.929 344.075 539.009 344.459 539.009 344.896C539.009 345.365 538.934 345.792 538.785 346.176C538.646 346.56 538.444 346.891 538.177 347.168C537.921 347.435 537.612 347.643 537.249 347.792C536.886 347.931 536.492 348 536.065 348H530.241V347.264ZM532.817 347.216H535.569C536.188 347.216 536.668 347.035 537.009 346.672C537.361 346.309 537.537 345.84 537.537 345.264V344.56C537.537 343.995 537.361 343.531 537.009 343.168C536.668 342.805 536.188 342.624 535.569 342.624H532.817V347.216ZM532.817 341.84H535.313C535.889 341.84 536.332 341.675 536.641 341.344C536.95 341.013 537.105 340.592 537.105 340.08V339.376C537.105 338.864 536.95 338.443 536.641 338.112C536.332 337.781 535.889 337.616 535.313 337.616H532.817V341.84ZM543.328 348.192C542.56 348.192 541.957 347.995 541.52 347.6C541.093 347.195 540.88 346.645 540.88 345.952C540.88 345.557 540.944 345.211 541.072 344.912C541.2 344.603 541.408 344.347 541.696 344.144C541.995 343.941 542.379 343.787 542.848 343.68C543.317 343.573 543.888 343.52 544.56 343.52H545.744V342.304C545.744 341.653 545.584 341.157 545.264 340.816C544.955 340.464 544.485 340.288 543.856 340.288C543.579 340.288 543.323 340.315 543.088 340.368C542.853 340.411 542.661 340.475 542.512 340.56V340.592C542.629 340.656 542.741 340.752 542.848 340.88C542.965 341.008 543.024 341.189 543.024 341.424C543.024 341.701 542.944 341.92 542.784 342.08C542.624 342.229 542.411 342.304 542.144 342.304C541.888 342.304 541.675 342.229 541.504 342.08C541.344 341.92 541.264 341.685 541.264 341.376C541.264 341.141 541.333 340.917 541.472 340.704C541.611 340.48 541.808 340.283 542.064 340.112C542.32 339.941 542.635 339.808 543.008 339.712C543.392 339.605 543.824 339.552 544.304 339.552C545.168 339.552 545.84 339.776 546.32 340.224C546.811 340.672 547.056 341.301 547.056 342.112V347.312H548.256V347.872C548.139 347.957 547.979 348.032 547.776 348.096C547.584 348.16 547.365 348.192 547.12 348.192C546.704 348.192 546.384 348.075 546.16 347.84C545.936 347.605 545.824 347.291 545.824 346.896V346.784H545.744C545.669 346.965 545.568 347.141 545.44 347.312C545.323 347.483 545.168 347.632 544.976 347.76C544.784 347.888 544.549 347.989 544.272 348.064C544.005 348.149 543.691 348.192 543.328 348.192ZM543.888 347.312C544.4 347.312 544.837 347.184 545.2 346.928C545.563 346.661 545.744 346.256 545.744 345.712V344.16H544.704C544.245 344.16 543.861 344.197 543.552 344.272C543.243 344.336 542.997 344.437 542.816 344.576C542.635 344.704 542.501 344.864 542.416 345.056C542.341 345.248 542.304 345.472 542.304 345.728V346.064C542.304 346.469 542.443 346.779 542.72 346.992C542.997 347.205 543.387 347.312 543.888 347.312ZM553.294 348.192C552.697 348.192 552.164 348.091 551.694 347.888C551.236 347.675 550.846 347.381 550.526 347.008C550.206 346.624 549.961 346.171 549.79 345.648C549.62 345.115 549.534 344.523 549.534 343.872C549.534 343.211 549.625 342.613 549.806 342.08C549.998 341.547 550.265 341.093 550.606 340.72C550.948 340.347 551.353 340.059 551.822 339.856C552.302 339.653 552.83 339.552 553.406 339.552C554.27 339.552 554.953 339.739 555.454 340.112C555.966 340.475 556.222 340.939 556.222 341.504C556.222 341.845 556.132 342.112 555.95 342.304C555.78 342.496 555.54 342.592 555.23 342.592C554.9 342.592 554.654 342.496 554.494 342.304C554.334 342.112 554.254 341.883 554.254 341.616C554.254 341.381 554.313 341.179 554.43 341.008C554.548 340.837 554.713 340.704 554.926 340.608V340.56C554.788 340.475 554.606 340.411 554.382 340.368C554.169 340.325 553.892 340.304 553.55 340.304C553.177 340.304 552.83 340.373 552.51 340.512C552.201 340.651 551.934 340.848 551.71 341.104C551.486 341.349 551.31 341.643 551.182 341.984C551.054 342.315 550.99 342.677 550.99 343.072V344.256C550.99 344.693 551.049 345.093 551.166 345.456C551.284 345.808 551.449 346.112 551.662 346.368C551.886 346.624 552.148 346.821 552.446 346.96C552.756 347.099 553.102 347.168 553.486 347.168C554.137 347.168 554.649 347.035 555.022 346.768C555.396 346.491 555.694 346.133 555.918 345.696L556.43 346.032C556.334 346.309 556.196 346.581 556.014 346.848C555.833 347.104 555.614 347.333 555.358 347.536C555.102 347.728 554.798 347.883 554.446 348C554.105 348.128 553.721 348.192 553.294 348.192ZM557.624 347.264H558.808V337.072L557.624 336.864V336.304L560.12 335.84V344.208H560.2L561.544 342.704L563.56 340.48H562.472V339.744H565.896V340.48H564.728L562.408 342.896L565.304 347.264H566.216V348H562.808V347.264H563.832L561.512 343.776L560.12 345.232V347.264H561.304V348H557.624V347.264Z" fill="#5F5F61"/>
<path d="M587.361 336C587.361 330.477 591.838 326 597.361 326L633.361 326C638.884 326 643.361 330.477 643.361 336L643.361 347C643.361 352.523 638.884 357 633.361 357L597.361 357C591.838 357 587.361 352.523 587.361 347L587.361 336Z" fill="#313134"/>
<path d="M598.241 347.264H599.441V337.568H598.241V336.832H600.945L606.945 345.792H607.009V337.568H605.809V336.832H609.089V337.568H607.889V348H606.817L600.385 338.384H600.321V347.264H601.521V348H598.241V347.264ZM614.2 348.192C613.613 348.192 613.085 348.091 612.616 347.888C612.157 347.675 611.768 347.381 611.448 347.008C611.128 346.635 610.883 346.181 610.712 345.648C610.541 345.115 610.456 344.523 610.456 343.872C610.456 343.232 610.547 342.651 610.728 342.128C610.92 341.595 611.176 341.136 611.496 340.752C611.827 340.368 612.216 340.075 612.664 339.872C613.112 339.659 613.603 339.552 614.136 339.552C614.68 339.552 615.165 339.648 615.592 339.84C616.019 340.032 616.376 340.304 616.664 340.656C616.963 340.997 617.192 341.408 617.352 341.888C617.512 342.368 617.592 342.891 617.592 343.456V343.824H611.912V344.24C611.912 345.147 612.136 345.861 612.584 346.384C613.043 346.907 613.651 347.168 614.408 347.168C615.069 347.168 615.592 347.035 615.976 346.768C616.371 346.491 616.68 346.133 616.904 345.696L617.432 346.032C617.325 346.309 617.176 346.581 616.984 346.848C616.803 347.104 616.579 347.333 616.312 347.536C616.045 347.728 615.736 347.883 615.384 348C615.032 348.128 614.637 348.192 614.2 348.192ZM611.912 343.088H616.216V342.928C616.216 342.555 616.173 342.208 616.088 341.888C616.013 341.568 615.891 341.291 615.72 341.056C615.549 340.821 615.331 340.64 615.064 340.512C614.808 340.373 614.499 340.304 614.136 340.304C613.773 340.304 613.453 340.368 613.176 340.496C612.899 340.624 612.664 340.805 612.472 341.04C612.291 341.275 612.152 341.552 612.056 341.872C611.96 342.181 611.912 342.523 611.912 342.896V343.088ZM618.654 347.264H619.566L621.982 343.968L619.534 340.48H618.702V339.744H622.062V340.48H621.118L622.91 343.104H622.974L624.67 340.48H623.678V339.744H626.574V340.48H625.662L623.374 343.728L625.822 347.264H626.654V348H623.278V347.264H624.222L622.446 344.592H622.382L620.558 347.264H621.55V348H618.654V347.264ZM630.359 348.096C629.793 348.096 629.404 347.984 629.191 347.76C628.977 347.525 628.871 347.131 628.871 346.576V340.528H627.815V339.744H627.959C628.183 339.744 628.359 339.728 628.487 339.696C628.625 339.664 628.732 339.621 628.807 339.568C628.892 339.504 628.951 339.429 628.983 339.344C629.025 339.248 629.063 339.141 629.095 339.024L629.463 337.6H630.183V339.744H632.311V340.528H630.183V347.216H632.311V347.744C632.215 347.797 632.092 347.845 631.943 347.888C631.804 347.931 631.644 347.968 631.463 348C631.292 348.032 631.111 348.053 630.919 348.064C630.727 348.085 630.54 348.096 630.359 348.096Z" fill="#F5F1E8"/>
</g>
<defs>
<filter id="filter0_d_122_840" x="0" y="0" width="1029" height="417" filterUnits="userSpaceOnUse" color-interpolation-filters="sRGB">
<feFlood flood-opacity="0" result="BackgroundImageFix"/>
<feColorMatrix in="SourceAlpha" type="matrix" values="0 0 0 0 0 0 0 0 0 0 0 0 0 0 0 0 0 0 127 0" result="hardAlpha"/>
<feOffset dy="4"/>
<feGaussianBlur stdDeviation="10"/>
<feComposite in2="hardAlpha" operator="out"/>
<feColorMatrix type="matrix" values="0 0 0 0 0 0 0 0 0 0 0 0 0 0 0 0 0 0 0.1 0"/>
<feBlend mode="normal" in2="BackgroundImageFix" result="effect1_dropShadow_122_840"/>
<feBlend mode="normal" in="SourceGraphic" in2="effect1_dropShadow_122_840" result="shape"/>
</filter>
</defs>
</svg>
