<svg width="1059" height="482" viewBox="0 0 1059 482" fill="none" xmlns="http://www.w3.org/2000/svg">
<g filter="url(#filter0_d_122_843)">
<path d="M42.8723 39.257C43.8354 25.4835 55.7818 15.0986 69.5553 16.0618L1006.27 81.5631C1020.04 82.5262 1030.43 94.4726 1029.46 108.246L1006.65 434.45C1005.69 448.223 993.743 458.608 979.97 457.645L43.2571 392.143C29.4836 391.18 19.0988 379.234 20.0619 365.46L42.8723 39.257Z" fill="#F5F1E8"/>
</g>
<g filter="url(#filter1_d_122_843)">
<path d="M49.9644 53.244C50.4463 39.4453 62.023 28.6499 75.8217 29.1318L1014.25 61.9024C1028.05 62.3843 1038.84 73.9609 1038.36 87.7597L1026.95 414.56C1026.47 428.359 1014.89 439.155 1001.09 438.673L62.6645 405.902C48.8658 405.42 38.0704 393.844 38.5523 380.045L49.9644 53.244Z" fill="#F5F1E8"/>
</g>
<g filter="url(#filter2_d_122_843)">
<path d="M48.3188 70.3667C48.3188 56.5596 59.5117 45.3667 73.3188 45.3667L1012.32 45.3667C1026.13 45.3667 1037.32 56.5596 1037.32 70.3667L1037.32 397.367C1037.32 411.174 1026.13 422.367 1012.32 422.367L73.3188 422.367C59.5117 422.367 48.3188 411.174 48.3188 397.367L48.3188 70.3667Z" fill="#F5F1E8" shape-rendering="crispEdges"/>
<path d="M487.819 74.8667C487.819 74.0383 488.49 73.3667 489.319 73.3667H506.319C507.147 73.3667 507.819 74.0383 507.819 74.8667C507.819 75.6951 507.147 76.3667 506.319 76.3667H489.319C488.49 76.3667 487.819 75.6951 487.819 74.8667Z" fill="#D1B577"/>
<path d="M517.819 74.8667C517.819 74.0383 518.49 73.3667 519.319 73.3667H536.319C537.147 73.3667 537.819 74.0383 537.819 74.8667C537.819 75.6951 537.147 76.3667 536.319 76.3667H519.319C518.49 76.3667 517.819 75.6951 517.819 74.8667Z" fill="#D1B577"/>
<path d="M547.819 74.8667C547.819 74.0383 548.49 73.3667 549.319 73.3667H566.319C567.147 73.3667 567.819 74.0383 567.819 74.8667C567.819 75.6951 567.147 76.3667 566.319 76.3667H549.319C548.49 76.3667 547.819 75.6951 547.819 74.8667Z" fill="#E1E1E1"/>
<path d="M577.819 74.8667C577.819 74.0383 578.49 73.3667 579.319 73.3667H596.319C597.147 73.3667 597.819 74.0383 597.819 74.8667C597.819 75.6951 597.147 76.3667 596.319 76.3667H579.319C578.49 76.3667 577.819 75.6951 577.819 74.8667Z" fill="#E1E1E1"/>
<path d="M461.543 136.135C461.234 136.135 460.967 136.113 460.743 136.071C460.519 136.028 460.316 135.959 460.135 135.863C459.964 135.777 459.81 135.66 459.671 135.511C459.532 135.372 459.394 135.201 459.255 134.999L458.231 133.495C457.602 133.399 457.036 133.201 456.535 132.903C456.034 132.593 455.602 132.199 455.239 131.719C454.876 131.228 454.599 130.652 454.407 129.991C454.215 129.329 454.119 128.593 454.119 127.783C454.119 126.887 454.236 126.087 454.471 125.383C454.706 124.668 455.036 124.06 455.463 123.559C455.9 123.057 456.423 122.673 457.031 122.407C457.639 122.14 458.311 122.007 459.047 122.007C459.783 122.007 460.455 122.14 461.063 122.407C461.671 122.673 462.188 123.057 462.615 123.559C463.052 124.06 463.388 124.668 463.623 125.383C463.858 126.087 463.975 126.887 463.975 127.783C463.975 128.604 463.874 129.351 463.671 130.023C463.468 130.695 463.18 131.276 462.807 131.767C462.444 132.257 462.002 132.652 461.479 132.951C460.956 133.249 460.37 133.436 459.719 133.511L460.439 134.503C460.556 134.673 460.663 134.812 460.759 134.919C460.866 135.036 460.972 135.127 461.079 135.191C461.196 135.265 461.319 135.319 461.447 135.351C461.575 135.383 461.73 135.399 461.911 135.399H462.391V136.135H461.543ZM459.047 132.711C459.591 132.711 460.071 132.615 460.487 132.423C460.914 132.22 461.271 131.943 461.559 131.591C461.847 131.228 462.066 130.801 462.215 130.311C462.364 129.82 462.439 129.281 462.439 128.695V126.871C462.439 126.284 462.364 125.745 462.215 125.255C462.066 124.764 461.847 124.343 461.559 123.991C461.271 123.628 460.914 123.351 460.487 123.159C460.071 122.956 459.591 122.855 459.047 122.855C458.503 122.855 458.018 122.956 457.591 123.159C457.175 123.351 456.823 123.628 456.535 123.991C456.247 124.343 456.028 124.764 455.879 125.255C455.73 125.745 455.655 126.284 455.655 126.871V128.695C455.655 129.281 455.73 129.82 455.879 130.311C456.028 130.801 456.247 131.228 456.535 131.591C456.823 131.943 457.175 132.22 457.591 132.423C458.018 132.615 458.503 132.711 459.047 132.711ZM466.353 133.559C466.044 133.559 465.799 133.468 465.617 133.287C465.447 133.095 465.361 132.865 465.361 132.599V132.503C465.361 132.236 465.447 132.012 465.617 131.831C465.799 131.639 466.044 131.543 466.353 131.543C466.663 131.543 466.903 131.639 467.073 131.831C467.255 132.012 467.345 132.236 467.345 132.503V132.599C467.345 132.865 467.255 133.095 467.073 133.287C466.903 133.468 466.663 133.559 466.353 133.559ZM473.291 132.775C473.739 132.775 474.117 132.689 474.427 132.519C474.747 132.337 475.003 132.081 475.195 131.751C475.397 131.42 475.541 131.02 475.627 130.551C475.723 130.071 475.771 129.537 475.771 128.951V126.615C475.771 126.028 475.723 125.5 475.627 125.031C475.541 124.551 475.397 124.145 475.195 123.815C475.003 123.484 474.747 123.233 474.427 123.063C474.117 122.881 473.739 122.791 473.291 122.791C472.843 122.791 472.459 122.881 472.139 123.063C471.829 123.233 471.573 123.484 471.371 123.815C471.179 124.145 471.035 124.551 470.939 125.031C470.853 125.5 470.811 126.028 470.811 126.615V128.951C470.811 129.537 470.853 130.071 470.939 130.551C471.035 131.02 471.179 131.42 471.371 131.751C471.573 132.081 471.829 132.337 472.139 132.519C472.459 132.689 472.843 132.775 473.291 132.775ZM473.291 133.559C472.011 133.559 471.024 133.068 470.331 132.087C469.648 131.105 469.307 129.671 469.307 127.783C469.307 125.895 469.648 124.46 470.331 123.479C471.024 122.497 472.011 122.007 473.291 122.007C474.571 122.007 475.552 122.497 476.235 123.479C476.928 124.46 477.275 125.895 477.275 127.783C477.275 129.671 476.928 131.105 476.235 132.087C475.552 133.068 474.571 133.559 473.291 133.559ZM479.06 132.327L482.692 128.663C483.226 128.129 483.636 127.596 483.924 127.063C484.212 126.529 484.356 125.943 484.356 125.303V124.951C484.356 124.279 484.159 123.751 483.764 123.367C483.38 122.972 482.842 122.775 482.148 122.775C481.775 122.775 481.45 122.812 481.172 122.887C480.906 122.961 480.692 123.047 480.532 123.143V123.175C480.671 123.228 480.799 123.34 480.916 123.511C481.044 123.671 481.108 123.868 481.108 124.103C481.108 124.38 481.018 124.615 480.836 124.807C480.655 124.988 480.426 125.079 480.148 125.079C479.85 125.079 479.615 124.983 479.444 124.791C479.274 124.599 479.188 124.343 479.188 124.023C479.188 123.756 479.268 123.5 479.428 123.255C479.599 123.009 479.823 122.796 480.1 122.615C480.388 122.433 480.724 122.289 481.108 122.183C481.503 122.065 481.924 122.007 482.372 122.007C483.45 122.007 484.298 122.279 484.916 122.823C485.546 123.356 485.86 124.103 485.86 125.063C485.86 125.543 485.791 125.98 485.652 126.375C485.514 126.769 485.327 127.143 485.092 127.495C484.858 127.836 484.58 128.161 484.26 128.471C483.951 128.78 483.62 129.089 483.268 129.399L480.244 132.071V132.135H485.524V130.583H486.324V133.367H479.06V132.327Z" fill="#767677"/>
<path d="M454.639 166.263H456.439V151.719H454.639V150.615H461.647C462.751 150.615 463.759 150.791 464.671 151.143C465.583 151.479 466.359 151.999 466.999 152.703C467.655 153.391 468.159 154.263 468.511 155.319C468.879 156.359 469.063 157.583 469.063 158.991C469.063 160.399 468.879 161.631 468.511 162.687C468.159 163.727 467.655 164.599 466.999 165.303C466.359 165.991 465.583 166.511 464.671 166.863C463.759 167.199 462.751 167.367 461.647 167.367H454.639V166.263ZM458.503 166.191H461.431C462.247 166.191 462.983 166.055 463.639 165.783C464.311 165.495 464.871 165.103 465.319 164.607C465.783 164.095 466.135 163.487 466.375 162.783C466.631 162.079 466.759 161.295 466.759 160.431V157.551C466.759 156.687 466.631 155.903 466.375 155.199C466.135 154.495 465.783 153.895 465.319 153.399C464.871 152.887 464.311 152.495 463.639 152.223C462.983 151.935 462.247 151.791 461.431 151.791H458.503V166.191ZM475.136 167.655C473.984 167.655 473.08 167.359 472.424 166.767C471.784 166.159 471.464 165.335 471.464 164.295C471.464 163.703 471.56 163.183 471.752 162.735C471.944 162.271 472.256 161.887 472.688 161.583C473.136 161.279 473.712 161.047 474.416 160.887C475.12 160.727 475.976 160.647 476.984 160.647H478.76V158.823C478.76 157.847 478.52 157.103 478.04 156.591C477.576 156.063 476.872 155.799 475.928 155.799C475.512 155.799 475.128 155.839 474.776 155.919C474.424 155.983 474.136 156.079 473.912 156.207V156.255C474.088 156.351 474.256 156.495 474.416 156.687C474.592 156.879 474.68 157.151 474.68 157.503C474.68 157.919 474.56 158.247 474.32 158.487C474.08 158.711 473.76 158.823 473.36 158.823C472.976 158.823 472.656 158.711 472.4 158.487C472.16 158.247 472.04 157.895 472.04 157.431C472.04 157.079 472.144 156.743 472.352 156.423C472.56 156.087 472.856 155.791 473.24 155.535C473.624 155.279 474.096 155.079 474.656 154.935C475.232 154.775 475.88 154.695 476.6 154.695C477.896 154.695 478.904 155.031 479.624 155.703C480.36 156.375 480.728 157.319 480.728 158.535V166.335H482.528V167.175C482.352 167.303 482.112 167.415 481.808 167.511C481.52 167.607 481.192 167.655 480.824 167.655C480.2 167.655 479.72 167.479 479.384 167.127C479.048 166.775 478.88 166.303 478.88 165.711V165.543H478.76C478.648 165.815 478.496 166.079 478.304 166.335C478.128 166.591 477.896 166.815 477.608 167.007C477.32 167.199 476.968 167.351 476.552 167.463C476.152 167.591 475.68 167.655 475.136 167.655ZM475.976 166.335C476.744 166.335 477.4 166.143 477.944 165.759C478.488 165.359 478.76 164.751 478.76 163.935V161.607H477.2C476.512 161.607 475.936 161.663 475.472 161.775C475.008 161.871 474.64 162.023 474.368 162.231C474.096 162.423 473.896 162.663 473.768 162.951C473.656 163.239 473.6 163.575 473.6 163.959V164.463C473.6 165.071 473.808 165.535 474.224 165.855C474.64 166.175 475.224 166.335 475.976 166.335ZM486.083 172.455C485.267 172.455 484.675 172.279 484.307 171.927C483.939 171.591 483.755 171.143 483.755 170.583C483.755 170.167 483.867 169.831 484.091 169.575C484.315 169.319 484.635 169.191 485.051 169.191C485.419 169.191 485.699 169.295 485.891 169.503C486.099 169.727 486.203 170.023 486.203 170.391C486.203 170.663 486.131 170.879 485.987 171.039C485.859 171.215 485.715 171.327 485.555 171.375V171.447C485.731 171.511 485.939 171.543 486.179 171.543C486.595 171.543 487.003 171.359 487.403 170.991C487.803 170.639 488.163 170.055 488.483 169.239L488.987 167.871L484.427 156.087H483.179V154.983H488.315V156.087H486.587L489.923 165.159H490.019L493.259 156.087H491.531V154.983H495.899V156.087H494.651L489.515 169.431C489.179 170.311 488.723 171.031 488.147 171.591C487.587 172.167 486.899 172.455 486.083 172.455ZM508.298 166.479C508.89 166.479 509.402 166.383 509.834 166.191C510.282 165.983 510.642 165.703 510.914 165.351C511.202 164.983 511.41 164.559 511.538 164.079C511.682 163.583 511.754 163.047 511.754 162.471V159.879C511.754 159.303 511.682 158.775 511.538 158.295C511.41 157.799 511.202 157.375 510.914 157.023C510.642 156.655 510.282 156.375 509.834 156.183C509.402 155.975 508.89 155.871 508.298 155.871C507.69 155.871 507.17 155.975 506.738 156.183C506.306 156.375 505.946 156.655 505.658 157.023C505.386 157.375 505.178 157.799 505.034 158.295C504.906 158.775 504.842 159.303 504.842 159.879V162.471C504.842 163.047 504.906 163.583 505.034 164.079C505.178 164.559 505.386 164.983 505.658 165.351C505.946 165.703 506.306 165.983 506.738 166.191C507.17 166.383 507.69 166.479 508.298 166.479ZM508.298 167.655C507.45 167.655 506.674 167.503 505.97 167.199C505.266 166.895 504.666 166.463 504.17 165.903C503.674 165.327 503.29 164.647 503.018 163.863C502.746 163.063 502.61 162.167 502.61 161.175C502.61 160.199 502.746 159.311 503.018 158.511C503.29 157.711 503.674 157.031 504.17 156.471C504.666 155.895 505.266 155.455 505.97 155.151C506.674 154.847 507.45 154.695 508.298 154.695C509.146 154.695 509.922 154.847 510.626 155.151C511.33 155.455 511.93 155.895 512.426 156.471C512.922 157.031 513.306 157.711 513.578 158.511C513.85 159.311 513.986 160.199 513.986 161.175C513.986 162.167 513.85 163.063 513.578 163.863C513.306 164.647 512.922 165.327 512.426 165.903C511.93 166.463 511.33 166.895 510.626 167.199C509.922 167.503 509.146 167.655 508.298 167.655ZM516.277 166.263H518.053V156.543L516.277 156.231V155.415L519.973 154.695V156.855H520.093C520.205 156.599 520.341 156.343 520.501 156.087C520.677 155.831 520.885 155.599 521.125 155.391C521.381 155.183 521.669 155.015 521.989 154.887C522.325 154.759 522.709 154.695 523.141 154.695C523.845 154.695 524.405 154.863 524.821 155.199C525.253 155.535 525.469 156.023 525.469 156.663C525.469 157.143 525.349 157.519 525.109 157.791C524.869 158.063 524.557 158.199 524.173 158.199C523.741 158.199 523.397 158.087 523.141 157.863C522.885 157.623 522.757 157.319 522.757 156.951C522.757 156.631 522.821 156.375 522.949 156.183C523.093 155.975 523.253 155.855 523.429 155.823V155.775C523.365 155.759 523.285 155.751 523.189 155.751C523.093 155.735 522.973 155.727 522.829 155.727C522.493 155.727 522.157 155.815 521.821 155.991C521.485 156.151 521.181 156.367 520.909 156.639C520.653 156.895 520.437 157.191 520.261 157.527C520.101 157.863 520.021 158.199 520.021 158.535V166.263H522.277V167.367H516.277V166.263ZM532.615 166.263H534.415V151.719H532.615V150.615H536.671L545.671 164.055H545.767V151.719H543.967V150.615H548.887V151.719H547.087V167.367H545.479L535.831 152.943H535.735V166.263H537.535V167.367H532.615V166.263ZM553.935 152.127C553.519 152.127 553.199 152.007 552.975 151.767C552.767 151.511 552.663 151.207 552.663 150.855V150.735C552.663 150.383 552.767 150.087 552.975 149.847C553.199 149.591 553.519 149.463 553.935 149.463C554.351 149.463 554.671 149.591 554.895 149.847C555.119 150.087 555.231 150.383 555.231 150.735V150.855C555.231 151.207 555.119 151.511 554.895 151.767C554.671 152.007 554.351 152.127 553.935 152.127ZM551.175 166.263H552.951V156.543L551.175 156.231V155.415L554.919 154.695V166.263H556.695V167.367H551.175V166.263ZM563.833 172.455C562.873 172.455 562.057 172.383 561.385 172.239C560.713 172.095 560.169 171.895 559.753 171.639C559.337 171.383 559.033 171.071 558.841 170.703C558.665 170.335 558.577 169.927 558.577 169.479C558.577 169.159 558.649 168.863 558.793 168.591C558.937 168.319 559.129 168.079 559.369 167.871C559.609 167.663 559.881 167.487 560.185 167.343C560.489 167.183 560.801 167.063 561.121 166.983V166.887C560.113 166.535 559.609 165.855 559.609 164.847C559.609 164.207 559.809 163.703 560.209 163.335C560.625 162.967 561.105 162.711 561.649 162.567V162.447C560.897 162.127 560.297 161.655 559.849 161.031C559.417 160.407 559.201 159.655 559.201 158.775C559.201 158.151 559.313 157.591 559.537 157.095C559.777 156.583 560.105 156.151 560.521 155.799C560.953 155.447 561.457 155.175 562.033 154.983C562.609 154.791 563.241 154.695 563.929 154.695C564.681 154.695 565.321 154.799 565.849 155.007C566.393 155.199 566.849 155.439 567.217 155.727C567.233 154.799 567.409 154.167 567.745 153.831C568.097 153.495 568.505 153.327 568.969 153.327C569.321 153.327 569.609 153.431 569.833 153.639C570.073 153.847 570.193 154.127 570.193 154.479C570.193 154.815 570.081 155.095 569.857 155.319C569.649 155.527 569.353 155.631 568.969 155.631C568.521 155.631 568.177 155.471 567.937 155.151H567.865V156.351C568.041 156.591 568.225 156.903 568.417 157.287C568.609 157.671 568.705 158.167 568.705 158.775C568.705 159.399 568.585 159.967 568.345 160.479C568.105 160.991 567.769 161.423 567.337 161.775C566.921 162.127 566.417 162.399 565.825 162.591C565.249 162.783 564.617 162.879 563.929 162.879C563.481 162.879 563.057 162.831 562.657 162.735C562.241 162.815 561.865 162.991 561.529 163.263C561.193 163.519 561.025 163.831 561.025 164.199C561.025 164.599 561.177 164.879 561.481 165.039C561.785 165.199 562.297 165.279 563.017 165.279H565.849C567.257 165.279 568.297 165.567 568.969 166.143C569.657 166.703 570.001 167.511 570.001 168.567C570.001 169.751 569.481 170.695 568.441 171.399C567.401 172.103 565.865 172.455 563.833 172.455ZM563.953 161.847C564.833 161.847 565.489 161.615 565.921 161.151C566.369 160.687 566.593 160.055 566.593 159.255V158.319C566.593 157.519 566.369 156.887 565.921 156.423C565.489 155.959 564.833 155.727 563.953 155.727C563.073 155.727 562.409 155.959 561.961 156.423C561.529 156.887 561.313 157.519 561.313 158.319V159.255C561.313 160.055 561.529 160.687 561.961 161.151C562.409 161.615 563.073 161.847 563.953 161.847ZM560.329 169.359C560.329 169.999 560.601 170.479 561.145 170.799C561.705 171.119 562.449 171.279 563.377 171.279H564.505C565.705 171.279 566.641 171.079 567.313 170.679C568.001 170.279 568.345 169.743 568.345 169.071C568.345 168.463 568.137 167.999 567.721 167.679C567.305 167.375 566.577 167.223 565.537 167.223H561.793C561.281 167.447 560.905 167.743 560.665 168.111C560.441 168.479 560.329 168.895 560.329 169.359ZM571.44 166.263H573.216V150.975L571.44 150.663V149.823L575.184 149.127V156.831H575.28C575.376 156.591 575.52 156.343 575.712 156.087C575.904 155.831 576.144 155.599 576.432 155.391C576.736 155.183 577.08 155.015 577.464 154.887C577.864 154.759 578.312 154.695 578.808 154.695C580.296 154.695 581.36 155.087 582 155.871C582.64 156.639 582.96 157.799 582.96 159.351V166.263H584.736V167.367H579.216V166.263H580.992V159.519C580.992 158.351 580.76 157.487 580.296 156.927C579.832 156.351 579.096 156.063 578.088 156.063C577.736 156.063 577.384 156.111 577.032 156.207C576.696 156.303 576.384 156.455 576.096 156.663C575.824 156.871 575.6 157.127 575.424 157.431C575.264 157.735 575.184 158.095 575.184 158.511V166.263H576.96V167.367H571.44V166.263ZM590.425 167.511C589.577 167.511 588.993 167.343 588.673 167.007C588.353 166.655 588.193 166.063 588.193 165.231V156.159H586.609V154.983H586.825C587.161 154.983 587.425 154.959 587.617 154.911C587.825 154.863 587.985 154.799 588.097 154.719C588.225 154.623 588.313 154.511 588.361 154.383C588.425 154.239 588.481 154.079 588.529 153.903L589.081 151.767H590.161V154.983H593.353V156.159H590.161V166.191H593.353V166.983C593.209 167.063 593.025 167.135 592.801 167.199C592.593 167.263 592.353 167.319 592.081 167.367C591.825 167.415 591.553 167.447 591.265 167.463C590.977 167.495 590.697 167.511 590.425 167.511ZM598.118 158.463C599.43 158.415 600.494 158.103 601.31 157.527C602.142 156.935 602.558 156.103 602.558 155.031V154.479C602.558 153.519 602.278 152.783 601.718 152.271C601.158 151.759 600.422 151.503 599.51 151.503C598.918 151.503 598.43 151.559 598.046 151.671C597.662 151.767 597.334 151.895 597.062 152.055V152.103C597.238 152.167 597.422 152.327 597.614 152.583C597.822 152.823 597.926 153.119 597.926 153.471C597.926 153.887 597.798 154.239 597.542 154.527C597.302 154.799 596.958 154.935 596.51 154.935C596.062 154.935 595.702 154.799 595.43 154.527C595.174 154.255 595.046 153.863 595.046 153.351C595.046 152.951 595.174 152.575 595.43 152.223C595.686 151.855 596.03 151.535 596.462 151.263C596.894 150.975 597.398 150.751 597.974 150.591C598.55 150.415 599.158 150.327 599.798 150.327C600.518 150.327 601.182 150.431 601.79 150.639C602.398 150.847 602.918 151.143 603.35 151.527C603.782 151.911 604.118 152.375 604.358 152.919C604.598 153.447 604.718 154.039 604.718 154.695C604.718 155.415 604.582 156.071 604.31 156.663C604.038 157.239 603.662 157.735 603.182 158.151C602.702 158.567 602.142 158.903 601.502 159.159C600.862 159.415 600.174 159.575 599.438 159.639V162.447H598.118V158.463ZM598.79 167.655C598.326 167.655 597.958 167.519 597.686 167.247C597.43 166.959 597.302 166.615 597.302 166.215V166.071C597.302 165.671 597.43 165.335 597.686 165.063C597.958 164.775 598.326 164.631 598.79 164.631C599.254 164.631 599.614 164.775 599.87 165.063C600.142 165.335 600.278 165.671 600.278 166.071V166.215C600.278 166.615 600.142 166.959 599.87 167.247C599.614 167.519 599.254 167.655 598.79 167.655Z" fill="#313134"/>
<path d="M456.269 218.487C455.849 218.487 455.506 218.423 455.239 218.297C454.979 218.163 454.796 217.987 454.689 217.767H454.639V218.367H453.919V216.317H454.639V216.777C454.639 216.943 454.662 217.1 454.709 217.247C454.762 217.387 454.846 217.51 454.959 217.617C455.079 217.723 455.232 217.807 455.419 217.867C455.612 217.927 455.846 217.957 456.119 217.957C456.699 217.957 457.116 217.833 457.369 217.587C457.629 217.34 457.759 217.01 457.759 216.597C457.759 216.243 457.659 215.967 457.459 215.767C457.266 215.567 456.959 215.41 456.539 215.297L455.989 215.157C455.369 214.997 454.889 214.757 454.549 214.437C454.209 214.117 454.039 213.677 454.039 213.117C454.039 212.837 454.092 212.583 454.199 212.357C454.306 212.123 454.456 211.927 454.649 211.767C454.842 211.607 455.072 211.483 455.339 211.397C455.612 211.31 455.912 211.267 456.239 211.267C456.619 211.267 456.929 211.327 457.169 211.447C457.416 211.56 457.589 211.72 457.689 211.927H457.749V211.387H458.469V213.337H457.749V212.877C457.749 212.71 457.722 212.56 457.669 212.427C457.622 212.293 457.539 212.18 457.419 212.087C457.299 211.993 457.142 211.923 456.949 211.877C456.756 211.823 456.519 211.797 456.239 211.797C455.772 211.797 455.422 211.903 455.189 212.117C454.956 212.33 454.839 212.61 454.839 212.957C454.839 213.317 454.942 213.6 455.149 213.807C455.362 214.007 455.696 214.167 456.149 214.287L456.659 214.417C457.266 214.577 457.732 214.817 458.059 215.137C458.386 215.457 458.549 215.877 458.549 216.397C458.549 216.697 458.499 216.977 458.399 217.237C458.299 217.49 458.152 217.71 457.959 217.897C457.766 218.083 457.526 218.23 457.239 218.337C456.959 218.437 456.636 218.487 456.269 218.487ZM459.748 217.907H460.498V211.847H459.748V211.387H464.908V213.067H464.188V211.877H461.358V214.527H463.338V213.727H463.938V215.817H463.338V215.017H461.358V217.877H464.288V216.597H465.008V218.367H459.748V217.907ZM466.154 217.907H466.904V211.847H466.154V211.387H468.514V211.847H467.764V217.877H470.324V216.597H471.044V218.367H466.154V217.907ZM472.092 217.907H472.842V211.847H472.092V211.387H477.252V213.067H476.532V211.877H473.702V214.527H475.682V213.727H476.282V215.817H475.682V215.017H473.702V217.877H476.632V216.597H477.352V218.367H472.092V217.907ZM481.368 218.487C480.928 218.487 480.528 218.403 480.168 218.237C479.808 218.07 479.501 217.83 479.248 217.517C478.994 217.203 478.798 216.823 478.658 216.377C478.518 215.93 478.448 215.43 478.448 214.877C478.448 214.297 478.518 213.783 478.658 213.337C478.798 212.89 478.991 212.513 479.238 212.207C479.491 211.9 479.794 211.667 480.148 211.507C480.501 211.347 480.891 211.267 481.318 211.267C481.751 211.267 482.111 211.34 482.398 211.487C482.691 211.627 482.884 211.803 482.978 212.017H483.018V211.387H483.738V213.427H483.018V212.907C483.018 212.573 482.871 212.307 482.578 212.107C482.284 211.9 481.901 211.797 481.428 211.797C481.074 211.797 480.768 211.863 480.508 211.997C480.254 212.123 480.044 212.3 479.878 212.527C479.718 212.747 479.598 213.007 479.518 213.307C479.444 213.6 479.408 213.91 479.408 214.237V215.447C479.408 215.813 479.454 216.143 479.548 216.437C479.648 216.73 479.788 216.983 479.968 217.197C480.154 217.403 480.381 217.563 480.648 217.677C480.914 217.79 481.218 217.847 481.558 217.847C482.031 217.847 482.428 217.723 482.748 217.477C483.068 217.23 483.301 216.917 483.448 216.537L483.838 216.727C483.778 216.92 483.681 217.12 483.548 217.327C483.414 217.533 483.244 217.723 483.038 217.897C482.838 218.07 482.598 218.213 482.318 218.327C482.038 218.433 481.721 218.487 481.368 218.487ZM486.322 217.907H487.272V211.877H485.512V213.067H484.792V211.387H490.612V213.067H489.892V211.877H488.132V217.907H489.082V218.367H486.322V217.907ZM496.87 217.957C497.21 217.957 497.51 217.897 497.77 217.777C498.036 217.65 498.26 217.477 498.44 217.257C498.62 217.03 498.756 216.763 498.85 216.457C498.943 216.15 498.99 215.813 498.99 215.447V214.307C498.99 213.94 498.943 213.603 498.85 213.297C498.756 212.99 498.62 212.727 498.44 212.507C498.26 212.28 498.036 212.107 497.77 211.987C497.51 211.86 497.21 211.797 496.87 211.797C496.53 211.797 496.226 211.86 495.96 211.987C495.7 212.107 495.48 212.28 495.3 212.507C495.12 212.727 494.983 212.99 494.89 213.297C494.796 213.603 494.75 213.94 494.75 214.307V215.447C494.75 215.813 494.796 216.15 494.89 216.457C494.983 216.763 495.12 217.03 495.3 217.257C495.48 217.477 495.7 217.65 495.96 217.777C496.226 217.897 496.53 217.957 496.87 217.957ZM496.87 218.487C496.41 218.487 495.99 218.403 495.61 218.237C495.23 218.07 494.903 217.83 494.63 217.517C494.363 217.203 494.156 216.827 494.01 216.387C493.863 215.94 493.79 215.437 493.79 214.877C493.79 214.317 493.863 213.817 494.01 213.377C494.156 212.93 494.363 212.55 494.63 212.237C494.903 211.923 495.23 211.683 495.61 211.517C495.99 211.35 496.41 211.267 496.87 211.267C497.33 211.267 497.75 211.35 498.13 211.517C498.51 211.683 498.833 211.923 499.1 212.237C499.373 212.55 499.583 212.93 499.73 213.377C499.876 213.817 499.95 214.317 499.95 214.877C499.95 215.437 499.876 215.94 499.73 216.387C499.583 216.827 499.373 217.203 499.1 217.517C498.833 217.83 498.51 218.07 498.13 218.237C497.75 218.403 497.33 218.487 496.87 218.487ZM500.998 217.907H501.748V211.847H500.998V211.387H502.688L506.438 216.987H506.478V211.847H505.728V211.387H507.778V211.847H507.028V218.367H506.358L502.338 212.357H502.298V217.907H503.048V218.367H500.998V217.907ZM508.781 217.907H509.531V211.847H508.781V211.387H511.141V211.847H510.391V217.877H512.951V216.597H513.671V218.367H508.781V217.907ZM515.216 217.907H516.166V215.557L514.156 211.847H513.626V211.387H516.036V211.847H515.136L516.746 214.947H516.786L518.436 211.847H517.536V211.387H519.566V211.847H519.036L517.026 215.507V217.907H517.976V218.367H515.216V217.907ZM522.968 217.917H524.698V212.077L522.898 212.907L522.748 212.477L524.788 211.387H525.558V217.917H527.228V218.367H522.968V217.917Z" fill="#767677"/>
<rect width="20" height="20" transform="translate(463.319 241.867)" fill="#F5F1E8"/>
<circle cx="473.319" cy="251.867" r="9.5" stroke="#5F5F61"/>
<path d="M494.199 257.631H495.399V247.935H494.199V247.199H498.871C499.607 247.199 500.279 247.316 500.887 247.551C501.495 247.775 502.012 248.121 502.439 248.591C502.876 249.049 503.212 249.631 503.447 250.335C503.692 251.028 503.815 251.844 503.815 252.783C503.815 253.721 503.692 254.543 503.447 255.247C503.212 255.94 502.876 256.521 502.439 256.991C502.012 257.449 501.495 257.796 500.887 258.031C500.279 258.255 499.607 258.367 498.871 258.367H494.199V257.631ZM496.775 257.583H498.727C499.271 257.583 499.762 257.492 500.199 257.311C500.647 257.119 501.02 256.857 501.319 256.527C501.628 256.185 501.863 255.78 502.023 255.311C502.194 254.841 502.279 254.319 502.279 253.743V251.823C502.279 251.247 502.194 250.724 502.023 250.255C501.863 249.785 501.628 249.385 501.319 249.055C501.02 248.713 500.647 248.452 500.199 248.271C499.762 248.079 499.271 247.983 498.727 247.983H496.775V257.583ZM507.864 258.559C507.096 258.559 506.493 258.361 506.056 257.967C505.629 257.561 505.416 257.012 505.416 256.319C505.416 255.924 505.48 255.577 505.608 255.279C505.736 254.969 505.944 254.713 506.232 254.511C506.53 254.308 506.914 254.153 507.384 254.047C507.853 253.94 508.424 253.887 509.096 253.887H510.28V252.671C510.28 252.02 510.12 251.524 509.8 251.183C509.49 250.831 509.021 250.655 508.392 250.655C508.114 250.655 507.858 250.681 507.624 250.735C507.389 250.777 507.197 250.841 507.048 250.927V250.959C507.165 251.023 507.277 251.119 507.384 251.247C507.501 251.375 507.56 251.556 507.56 251.791C507.56 252.068 507.48 252.287 507.32 252.447C507.16 252.596 506.946 252.671 506.68 252.671C506.424 252.671 506.21 252.596 506.04 252.447C505.88 252.287 505.8 252.052 505.8 251.743C505.8 251.508 505.869 251.284 506.008 251.071C506.146 250.847 506.344 250.649 506.6 250.479C506.856 250.308 507.17 250.175 507.544 250.079C507.928 249.972 508.36 249.919 508.84 249.919C509.704 249.919 510.376 250.143 510.856 250.591C511.346 251.039 511.592 251.668 511.592 252.479V257.679H512.792V258.239C512.674 258.324 512.514 258.399 512.312 258.463C512.12 258.527 511.901 258.559 511.656 258.559C511.24 258.559 510.92 258.441 510.696 258.207C510.472 257.972 510.36 257.657 510.36 257.263V257.151H510.28C510.205 257.332 510.104 257.508 509.976 257.679C509.858 257.849 509.704 257.999 509.512 258.127C509.32 258.255 509.085 258.356 508.808 258.431C508.541 258.516 508.226 258.559 507.864 258.559ZM508.424 257.679C508.936 257.679 509.373 257.551 509.736 257.295C510.098 257.028 510.28 256.623 510.28 256.079V254.527H509.24C508.781 254.527 508.397 254.564 508.088 254.639C507.778 254.703 507.533 254.804 507.352 254.943C507.17 255.071 507.037 255.231 506.952 255.423C506.877 255.615 506.84 255.839 506.84 256.095V256.431C506.84 256.836 506.978 257.145 507.256 257.359C507.533 257.572 507.922 257.679 508.424 257.679ZM515.162 261.759C514.618 261.759 514.223 261.641 513.978 261.407C513.733 261.183 513.61 260.884 513.61 260.511C513.61 260.233 513.685 260.009 513.834 259.839C513.983 259.668 514.197 259.583 514.474 259.583C514.719 259.583 514.906 259.652 515.034 259.791C515.173 259.94 515.242 260.137 515.242 260.383C515.242 260.564 515.194 260.708 515.098 260.815C515.013 260.932 514.917 261.007 514.81 261.039V261.087C514.927 261.129 515.066 261.151 515.226 261.151C515.503 261.151 515.775 261.028 516.042 260.783C516.309 260.548 516.549 260.159 516.762 259.615L517.098 258.703L514.058 250.847H513.226V250.111H516.65V250.847H515.498L517.722 256.895H517.786L519.946 250.847H518.794V250.111H521.706V250.847H520.874L517.45 259.743C517.226 260.329 516.922 260.809 516.538 261.183C516.165 261.567 515.706 261.759 515.162 261.759Z" fill="#313134"/>
<rect width="20" height="20" transform="translate(463.319 282.867)" fill="#F5F1E8"/>
<circle cx="473.319" cy="292.867" r="9.5" stroke="#5F5F61"/>
<path d="M494.199 298.631H495.399V288.935H494.199V288.199H496.903L502.903 297.159H502.967V288.935H501.767V288.199H505.047V288.935H503.847V299.367H502.775L496.343 289.751H496.279V298.631H497.479V299.367H494.199V298.631ZM508.412 289.207C508.135 289.207 507.921 289.127 507.772 288.967C507.633 288.796 507.564 288.593 507.564 288.359V288.279C507.564 288.044 507.633 287.847 507.772 287.687C507.921 287.516 508.135 287.431 508.412 287.431C508.689 287.431 508.903 287.516 509.052 287.687C509.201 287.847 509.276 288.044 509.276 288.279V288.359C509.276 288.593 509.201 288.796 509.052 288.967C508.903 289.127 508.689 289.207 508.412 289.207ZM506.572 298.631H507.756V292.151L506.572 291.943V291.399L509.068 290.919V298.631H510.252V299.367H506.572V298.631ZM515.011 302.759C514.371 302.759 513.827 302.711 513.379 302.615C512.931 302.519 512.568 302.385 512.291 302.215C512.014 302.044 511.811 301.836 511.683 301.591C511.566 301.345 511.507 301.073 511.507 300.775C511.507 300.561 511.555 300.364 511.651 300.183C511.747 300.001 511.875 299.841 512.035 299.703C512.195 299.564 512.376 299.447 512.579 299.351C512.782 299.244 512.99 299.164 513.203 299.111V299.047C512.531 298.812 512.195 298.359 512.195 297.687C512.195 297.26 512.328 296.924 512.595 296.679C512.872 296.433 513.192 296.263 513.555 296.167V296.087C513.054 295.873 512.654 295.559 512.355 295.143C512.067 294.727 511.923 294.225 511.923 293.639C511.923 293.223 511.998 292.849 512.147 292.519C512.307 292.177 512.526 291.889 512.803 291.655C513.091 291.42 513.427 291.239 513.811 291.111C514.195 290.983 514.616 290.919 515.075 290.919C515.576 290.919 516.003 290.988 516.355 291.127C516.718 291.255 517.022 291.415 517.267 291.607C517.278 290.988 517.395 290.567 517.619 290.343C517.854 290.119 518.126 290.007 518.435 290.007C518.67 290.007 518.862 290.076 519.011 290.215C519.171 290.353 519.251 290.54 519.251 290.775C519.251 290.999 519.176 291.185 519.027 291.335C518.888 291.473 518.691 291.543 518.435 291.543C518.136 291.543 517.907 291.436 517.747 291.223H517.699V292.023C517.816 292.183 517.939 292.391 518.067 292.647C518.195 292.903 518.259 293.233 518.259 293.639C518.259 294.055 518.179 294.433 518.019 294.775C517.859 295.116 517.635 295.404 517.347 295.639C517.07 295.873 516.734 296.055 516.339 296.183C515.955 296.311 515.534 296.375 515.075 296.375C514.776 296.375 514.494 296.343 514.227 296.279C513.95 296.332 513.699 296.449 513.475 296.631C513.251 296.801 513.139 297.009 513.139 297.255C513.139 297.521 513.24 297.708 513.443 297.815C513.646 297.921 513.987 297.975 514.467 297.975H516.355C517.294 297.975 517.987 298.167 518.435 298.551C518.894 298.924 519.123 299.463 519.123 300.167C519.123 300.956 518.776 301.585 518.083 302.055C517.39 302.524 516.366 302.759 515.011 302.759ZM515.091 295.687C515.678 295.687 516.115 295.532 516.403 295.223C516.702 294.913 516.851 294.492 516.851 293.959V293.335C516.851 292.801 516.702 292.38 516.403 292.071C516.115 291.761 515.678 291.607 515.091 291.607C514.504 291.607 514.062 291.761 513.763 292.071C513.475 292.38 513.331 292.801 513.331 293.335V293.959C513.331 294.492 513.475 294.913 513.763 295.223C514.062 295.532 514.504 295.687 515.091 295.687ZM512.675 300.695C512.675 301.121 512.856 301.441 513.219 301.655C513.592 301.868 514.088 301.975 514.707 301.975H515.459C516.259 301.975 516.883 301.841 517.331 301.575C517.79 301.308 518.019 300.951 518.019 300.503C518.019 300.097 517.88 299.788 517.603 299.575C517.326 299.372 516.84 299.271 516.147 299.271H513.651C513.31 299.42 513.059 299.617 512.899 299.863C512.75 300.108 512.675 300.385 512.675 300.695ZM520.082 298.631H521.266V288.439L520.082 288.231V287.671L522.578 287.207V292.343H522.642C522.706 292.183 522.802 292.017 522.93 291.847C523.058 291.676 523.218 291.521 523.41 291.383C523.613 291.244 523.842 291.132 524.098 291.047C524.365 290.961 524.663 290.919 524.994 290.919C525.986 290.919 526.695 291.18 527.122 291.703C527.549 292.215 527.762 292.988 527.762 294.023V298.631H528.946V299.367H525.266V298.631H526.45V294.135C526.45 293.356 526.295 292.78 525.986 292.407C525.677 292.023 525.186 291.831 524.514 291.831C524.279 291.831 524.045 291.863 523.81 291.927C523.586 291.991 523.378 292.092 523.186 292.231C523.005 292.369 522.855 292.54 522.738 292.743C522.631 292.945 522.578 293.185 522.578 293.463V298.631H523.762V299.367H520.082V298.631ZM532.738 299.463C532.173 299.463 531.784 299.351 531.57 299.127C531.357 298.892 531.25 298.497 531.25 297.943V291.895H530.194V291.111H530.338C530.562 291.111 530.738 291.095 530.866 291.063C531.005 291.031 531.112 290.988 531.186 290.935C531.272 290.871 531.33 290.796 531.362 290.711C531.405 290.615 531.442 290.508 531.474 290.391L531.842 288.967H532.562V291.111H534.69V291.895H532.562V298.583H534.69V299.111C534.594 299.164 534.472 299.212 534.322 299.255C534.184 299.297 534.024 299.335 533.842 299.367C533.672 299.399 533.49 299.42 533.298 299.431C533.106 299.452 532.92 299.463 532.738 299.463Z" fill="#313134"/>
<path d="M518.319 342.867L556.319 342.867C561.566 342.867 565.819 347.12 565.819 352.367L565.819 363.367C565.819 368.613 561.566 372.867 556.319 372.867L518.319 372.867C513.072 372.867 508.819 368.613 508.819 363.367L508.819 352.367C508.819 347.12 513.072 342.867 518.319 342.867Z" fill="#F5F1E8"/>
<path d="M518.319 342.867L556.319 342.867C561.566 342.867 565.819 347.12 565.819 352.367L565.819 363.367C565.819 368.613 561.566 372.867 556.319 372.867L518.319 372.867C513.072 372.867 508.819 368.613 508.819 363.367L508.819 352.367C508.819 347.12 513.072 342.867 518.319 342.867Z" stroke="#767677"/>
<path d="M519.199 363.631H520.399V353.935H519.199V353.199H524.543C525.482 353.199 526.212 353.439 526.735 353.919C527.268 354.399 527.535 355.039 527.535 355.839C527.535 356.233 527.476 356.585 527.359 356.895C527.242 357.204 527.082 357.471 526.879 357.695C526.687 357.919 526.463 358.1 526.207 358.239C525.962 358.377 525.706 358.468 525.439 358.511V358.559C525.716 358.58 526.004 358.649 526.303 358.767C526.602 358.884 526.874 359.055 527.119 359.279C527.364 359.503 527.567 359.78 527.727 360.111C527.887 360.441 527.967 360.825 527.967 361.263C527.967 361.732 527.892 362.159 527.743 362.543C527.604 362.927 527.402 363.257 527.135 363.535C526.879 363.801 526.57 364.009 526.207 364.159C525.844 364.297 525.45 364.367 525.023 364.367H519.199V363.631ZM521.775 363.583H524.527C525.146 363.583 525.626 363.401 525.967 363.039C526.319 362.676 526.495 362.207 526.495 361.631V360.927C526.495 360.361 526.319 359.897 525.967 359.535C525.626 359.172 525.146 358.991 524.527 358.991H521.775V363.583ZM521.775 358.207H524.271C524.847 358.207 525.29 358.041 525.599 357.711C525.908 357.38 526.063 356.959 526.063 356.447V355.743C526.063 355.231 525.908 354.809 525.599 354.479C525.29 354.148 524.847 353.983 524.271 353.983H521.775V358.207ZM532.286 364.559C531.518 364.559 530.915 364.361 530.478 363.967C530.051 363.561 529.838 363.012 529.838 362.319C529.838 361.924 529.902 361.577 530.03 361.279C530.158 360.969 530.366 360.713 530.654 360.511C530.952 360.308 531.336 360.153 531.806 360.047C532.275 359.94 532.846 359.887 533.518 359.887H534.702V358.671C534.702 358.02 534.542 357.524 534.222 357.183C533.912 356.831 533.443 356.655 532.814 356.655C532.536 356.655 532.28 356.681 532.046 356.735C531.811 356.777 531.619 356.841 531.47 356.927V356.959C531.587 357.023 531.699 357.119 531.806 357.247C531.923 357.375 531.982 357.556 531.982 357.791C531.982 358.068 531.902 358.287 531.742 358.447C531.582 358.596 531.368 358.671 531.102 358.671C530.846 358.671 530.632 358.596 530.462 358.447C530.302 358.287 530.222 358.052 530.222 357.743C530.222 357.508 530.291 357.284 530.43 357.071C530.568 356.847 530.766 356.649 531.022 356.479C531.278 356.308 531.592 356.175 531.966 356.079C532.35 355.972 532.782 355.919 533.262 355.919C534.126 355.919 534.798 356.143 535.278 356.591C535.768 357.039 536.014 357.668 536.014 358.479V363.679H537.214V364.239C537.096 364.324 536.936 364.399 536.734 364.463C536.542 364.527 536.323 364.559 536.078 364.559C535.662 364.559 535.342 364.441 535.118 364.207C534.894 363.972 534.782 363.657 534.782 363.263V363.151H534.702C534.627 363.332 534.526 363.508 534.398 363.679C534.28 363.849 534.126 363.999 533.934 364.127C533.742 364.255 533.507 364.356 533.23 364.431C532.963 364.516 532.648 364.559 532.286 364.559ZM532.846 363.679C533.358 363.679 533.795 363.551 534.158 363.295C534.52 363.028 534.702 362.623 534.702 362.079V360.527H533.662C533.203 360.527 532.819 360.564 532.51 360.639C532.2 360.703 531.955 360.804 531.774 360.943C531.592 361.071 531.459 361.231 531.374 361.423C531.299 361.615 531.262 361.839 531.262 362.095V362.431C531.262 362.836 531.4 363.145 531.678 363.359C531.955 363.572 532.344 363.679 532.846 363.679ZM542.252 364.559C541.655 364.559 541.121 364.457 540.652 364.255C540.193 364.041 539.804 363.748 539.484 363.375C539.164 362.991 538.919 362.537 538.748 362.015C538.577 361.481 538.492 360.889 538.492 360.239C538.492 359.577 538.583 358.98 538.764 358.447C538.956 357.913 539.223 357.46 539.564 357.087C539.905 356.713 540.311 356.425 540.78 356.223C541.26 356.02 541.788 355.919 542.364 355.919C543.228 355.919 543.911 356.105 544.412 356.479C544.924 356.841 545.18 357.305 545.18 357.871C545.18 358.212 545.089 358.479 544.908 358.671C544.737 358.863 544.497 358.959 544.188 358.959C543.857 358.959 543.612 358.863 543.452 358.671C543.292 358.479 543.212 358.249 543.212 357.983C543.212 357.748 543.271 357.545 543.388 357.375C543.505 357.204 543.671 357.071 543.884 356.975V356.927C543.745 356.841 543.564 356.777 543.34 356.735C543.127 356.692 542.849 356.671 542.508 356.671C542.135 356.671 541.788 356.74 541.468 356.879C541.159 357.017 540.892 357.215 540.668 357.471C540.444 357.716 540.268 358.009 540.14 358.351C540.012 358.681 539.948 359.044 539.948 359.439V360.623C539.948 361.06 540.007 361.46 540.124 361.823C540.241 362.175 540.407 362.479 540.62 362.735C540.844 362.991 541.105 363.188 541.404 363.327C541.713 363.465 542.06 363.535 542.444 363.535C543.095 363.535 543.607 363.401 543.98 363.135C544.353 362.857 544.652 362.5 544.876 362.063L545.388 362.399C545.292 362.676 545.153 362.948 544.972 363.215C544.791 363.471 544.572 363.7 544.316 363.903C544.06 364.095 543.756 364.249 543.404 364.367C543.063 364.495 542.679 364.559 542.252 364.559ZM546.582 363.631H547.766V353.439L546.582 353.231V352.671L549.078 352.207V360.575H549.158L550.502 359.071L552.518 356.847H551.43V356.111H554.854V356.847H553.686L551.366 359.263L554.262 363.631H555.174V364.367H551.766V363.631H552.79L550.47 360.143L549.078 361.599V363.631H550.262V364.367H546.582V363.631Z" fill="#5F5F61"/>
<path d="M576.319 352.367C576.319 346.844 580.796 342.367 586.319 342.367L622.319 342.367C627.842 342.367 632.319 346.844 632.319 352.367L632.319 363.367C632.319 368.89 627.842 373.367 622.319 373.367L586.319 373.367C580.796 373.367 576.319 368.89 576.319 363.367L576.319 352.367Z" fill="#313134"/>
<path d="M587.199 363.631H588.399V353.935H587.199V353.199H589.903L595.903 362.159H595.967V353.935H594.767V353.199H598.047V353.935H596.847V364.367H595.775L589.343 354.751H589.279V363.631H590.479V364.367H587.199V363.631ZM603.158 364.559C602.571 364.559 602.043 364.457 601.574 364.255C601.115 364.041 600.726 363.748 600.406 363.375C600.086 363.001 599.841 362.548 599.67 362.015C599.499 361.481 599.414 360.889 599.414 360.239C599.414 359.599 599.505 359.017 599.686 358.495C599.878 357.961 600.134 357.503 600.454 357.119C600.785 356.735 601.174 356.441 601.622 356.239C602.07 356.025 602.561 355.919 603.094 355.919C603.638 355.919 604.123 356.015 604.55 356.207C604.977 356.399 605.334 356.671 605.622 357.023C605.921 357.364 606.15 357.775 606.31 358.255C606.47 358.735 606.55 359.257 606.55 359.823V360.191H600.87V360.607C600.87 361.513 601.094 362.228 601.542 362.751C602.001 363.273 602.609 363.535 603.366 363.535C604.027 363.535 604.55 363.401 604.934 363.135C605.329 362.857 605.638 362.5 605.862 362.063L606.39 362.399C606.283 362.676 606.134 362.948 605.942 363.215C605.761 363.471 605.537 363.7 605.27 363.903C605.003 364.095 604.694 364.249 604.342 364.367C603.99 364.495 603.595 364.559 603.158 364.559ZM600.87 359.455H605.174V359.295C605.174 358.921 605.131 358.575 605.046 358.255C604.971 357.935 604.849 357.657 604.678 357.423C604.507 357.188 604.289 357.007 604.022 356.879C603.766 356.74 603.457 356.671 603.094 356.671C602.731 356.671 602.411 356.735 602.134 356.863C601.857 356.991 601.622 357.172 601.43 357.407C601.249 357.641 601.11 357.919 601.014 358.239C600.918 358.548 600.87 358.889 600.87 359.263V359.455ZM607.612 363.631H608.524L610.94 360.335L608.492 356.847H607.66V356.111H611.02V356.847H610.076L611.868 359.471H611.932L613.628 356.847H612.636V356.111H615.532V356.847H614.62L612.332 360.095L614.78 363.631H615.612V364.367H612.236V363.631H613.18L611.404 360.959H611.34L609.516 363.631H610.508V364.367H607.612V363.631ZM619.316 364.463C618.751 364.463 618.362 364.351 618.148 364.127C617.935 363.892 617.828 363.497 617.828 362.943V356.895H616.772V356.111H616.916C617.14 356.111 617.316 356.095 617.444 356.063C617.583 356.031 617.69 355.988 617.764 355.935C617.85 355.871 617.908 355.796 617.94 355.711C617.983 355.615 618.02 355.508 618.052 355.391L618.42 353.967H619.14V356.111H621.268V356.895H619.14V363.583H621.268V364.111C621.172 364.164 621.05 364.212 620.9 364.255C620.762 364.297 620.602 364.335 620.42 364.367C620.25 364.399 620.068 364.42 619.876 364.431C619.684 364.452 619.498 364.463 619.316 364.463Z" fill="#F5F1E8"/>
</g>
<defs>
<filter id="filter0_d_122_843" x="-1.68188" y="-1.68213" width="1052.89" height="485.071" filterUnits="userSpaceOnUse" color-interpolation-filters="sRGB">
<feFlood flood-opacity="0" result="BackgroundImageFix"/>
<feColorMatrix in="SourceAlpha" type="matrix" values="0 0 0 0 0 0 0 0 0 0 0 0 0 0 0 0 0 0 127 0" result="hardAlpha"/>
<feOffset dy="4"/>
<feGaussianBlur stdDeviation="10"/>
<feComposite in2="hardAlpha" operator="out"/>
<feColorMatrix type="matrix" values="0 0 0 0 0 0 0 0 0 0 0 0 0 0 0 0 0 0 0.1 0"/>
<feBlend mode="normal" in2="BackgroundImageFix" result="effect1_dropShadow_122_843"/>
<feBlend mode="normal" in="SourceGraphic" in2="effect1_dropShadow_122_843" result="shape"/>
</filter>
<filter id="filter1_d_122_843" x="17.6797" y="12.2593" width="1041.55" height="451.286" filterUnits="userSpaceOnUse" color-interpolation-filters="sRGB">
<feFlood flood-opacity="0" result="BackgroundImageFix"/>
<feColorMatrix in="SourceAlpha" type="matrix" values="0 0 0 0 0 0 0 0 0 0 0 0 0 0 0 0 0 0 127 0" result="hardAlpha"/>
<feOffset dy="4"/>
<feGaussianBlur stdDeviation="10"/>
<feComposite in2="hardAlpha" operator="out"/>
<feColorMatrix type="matrix" values="0 0 0 0 0 0 0 0 0 0 0 0 0 0 0 0 0 0 0.1 0"/>
<feBlend mode="normal" in2="BackgroundImageFix" result="effect1_dropShadow_122_843"/>
<feBlend mode="normal" in="SourceGraphic" in2="effect1_dropShadow_122_843" result="shape"/>
</filter>
<filter id="filter2_d_122_843" x="28.3188" y="29.3667" width="1029" height="417" filterUnits="userSpaceOnUse" color-interpolation-filters="sRGB">
<feFlood flood-opacity="0" result="BackgroundImageFix"/>
<feColorMatrix in="SourceAlpha" type="matrix" values="0 0 0 0 0 0 0 0 0 0 0 0 0 0 0 0 0 0 127 0" result="hardAlpha"/>
<feOffset dy="4"/>
<feGaussianBlur stdDeviation="10"/>
<feComposite in2="hardAlpha" operator="out"/>
<feColorMatrix type="matrix" values="0 0 0 0 0 0 0 0 0 0 0 0 0 0 0 0 0 0 0.1 0"/>
<feBlend mode="normal" in2="BackgroundImageFix" result="effect1_dropShadow_122_843"/>
<feBlend mode="normal" in="SourceGraphic" in2="effect1_dropShadow_122_843" result="shape"/>
</filter>
</defs>
</svg>
