<svg width="381" height="725" viewBox="0 0 381 725" fill="none" xmlns="http://www.w3.org/2000/svg">
<path d="M-195.609 517.095C-159.752 566.539 -107.86 602.021 -48.7752 617.495C10.3099 632.969 72.9326 627.477 128.422 601.955C183.912 576.434 228.836 532.461 255.54 477.53C282.243 422.599 289.074 360.108 274.868 300.705C260.663 241.303 226.299 188.663 177.633 151.756C128.967 114.849 69.0097 95.9586 7.97694 98.3026C-53.0559 100.647 -111.388 124.08 -157.08 164.611C-202.772 205.142 -232.997 260.262 -242.605 320.579L-201.553 327.118C-193.458 276.298 -167.992 229.858 -129.495 195.709C-90.9972 161.56 -41.8503 141.817 9.57224 139.842C60.9948 137.867 111.511 153.783 152.514 184.879C193.517 215.974 222.47 260.325 234.439 310.374C246.408 360.423 240.652 413.074 218.154 459.356C195.655 505.637 157.805 542.686 111.052 564.189C64.2999 585.692 11.5379 590.319 -38.2437 577.282C-88.0253 564.244 -131.746 534.349 -161.957 492.69L-195.609 517.095Z" fill="#5F5F61"/>
<circle cx="138" cy="156.171" r="45" fill="#F5F1E8" stroke="#5F5F61" stroke-width="10"/>
<path d="M127.6 168.987C128.496 168.987 129.253 168.816 129.872 168.475C130.512 168.112 131.024 167.6 131.408 166.939C131.813 166.278 132.101 165.478 132.272 164.539C132.464 163.579 132.56 162.512 132.56 161.339V156.667C132.56 155.494 132.464 154.438 132.272 153.499C132.101 152.539 131.813 151.728 131.408 151.067C131.024 150.406 130.512 149.904 129.872 149.563C129.253 149.2 128.496 149.019 127.6 149.019C126.704 149.019 125.936 149.2 125.296 149.563C124.677 149.904 124.165 150.406 123.76 151.067C123.376 151.728 123.088 152.539 122.896 153.499C122.725 154.438 122.64 155.494 122.64 156.667V161.339C122.64 162.512 122.725 163.579 122.896 164.539C123.088 165.478 123.376 166.278 123.76 166.939C124.165 167.6 124.677 168.112 125.296 168.475C125.936 168.816 126.704 168.987 127.6 168.987ZM127.6 170.555C125.04 170.555 123.067 169.574 121.68 167.611C120.315 165.648 119.632 162.779 119.632 159.003C119.632 155.227 120.315 152.358 121.68 150.395C123.067 148.432 125.04 147.451 127.6 147.451C130.16 147.451 132.123 148.432 133.488 150.395C134.875 152.358 135.568 155.227 135.568 159.003C135.568 162.779 134.875 165.648 133.488 167.611C132.123 169.574 130.16 170.555 127.6 170.555ZM140.004 168.731H145.54V150.043L139.78 152.699L139.299 151.323L145.828 147.835H148.292V168.731H153.635V170.171H140.004V168.731Z" fill="#767677"/>
<circle cx="138" cy="563.171" r="45" fill="#F5F1E8" stroke="#5F5F61" stroke-width="10"/>
<path d="M127.6 575.987C128.496 575.987 129.253 575.816 129.872 575.475C130.512 575.112 131.024 574.6 131.408 573.939C131.813 573.278 132.101 572.478 132.272 571.539C132.464 570.579 132.56 569.512 132.56 568.339V563.667C132.56 562.494 132.464 561.438 132.272 560.499C132.101 559.539 131.813 558.728 131.408 558.067C131.024 557.406 130.512 556.904 129.872 556.563C129.253 556.2 128.496 556.019 127.6 556.019C126.704 556.019 125.936 556.2 125.296 556.563C124.677 556.904 124.165 557.406 123.76 558.067C123.376 558.728 123.088 559.539 122.896 560.499C122.725 561.438 122.64 562.494 122.64 563.667V568.339C122.64 569.512 122.725 570.579 122.896 571.539C123.088 572.478 123.376 573.278 123.76 573.939C124.165 574.6 124.677 575.112 125.296 575.475C125.936 575.816 126.704 575.987 127.6 575.987ZM127.6 577.555C125.04 577.555 123.067 576.574 121.68 574.611C120.315 572.648 119.632 569.779 119.632 566.003C119.632 562.227 120.315 559.358 121.68 557.395C123.067 555.432 125.04 554.451 127.6 554.451C130.16 554.451 132.123 555.432 133.488 557.395C134.875 559.358 135.568 562.227 135.568 566.003C135.568 569.779 134.875 572.648 133.488 574.611C132.123 576.574 130.16 577.555 127.6 577.555ZM145.86 577.555C144.857 577.555 143.95 577.438 143.14 577.203C142.329 576.968 141.636 576.659 141.06 576.275C140.484 575.891 140.036 575.464 139.716 574.995C139.417 574.504 139.268 574.014 139.268 573.523C139.268 572.883 139.449 572.371 139.812 571.987C140.174 571.603 140.633 571.411 141.188 571.411C141.764 571.411 142.222 571.603 142.564 571.987C142.926 572.35 143.108 572.819 143.108 573.395C143.108 573.822 142.98 574.206 142.724 574.547C142.489 574.888 142.233 575.112 141.956 575.219V575.283C142.318 575.496 142.788 575.667 143.364 575.795C143.961 575.923 144.665 575.987 145.476 575.987C147.14 575.987 148.441 575.624 149.38 574.899C150.34 574.152 150.82 573.075 150.82 571.667V570.579C150.82 569.235 150.382 568.19 149.508 567.443C148.654 566.675 147.406 566.291 145.764 566.291H143.172V564.723H145.572C147.129 564.723 148.313 564.36 149.124 563.635C149.934 562.888 150.34 561.96 150.34 560.851V559.635C150.34 558.419 149.945 557.512 149.156 556.915C148.388 556.318 147.353 556.019 146.052 556.019C145.262 556.019 144.569 556.083 143.972 556.211C143.396 556.339 142.937 556.51 142.596 556.723V556.787C142.894 556.915 143.161 557.15 143.396 557.491C143.63 557.832 143.748 558.216 143.748 558.643C143.748 559.198 143.566 559.667 143.204 560.051C142.841 560.414 142.372 560.595 141.796 560.595C141.22 560.595 140.761 560.403 140.42 560.019C140.078 559.635 139.908 559.123 139.908 558.483C139.908 557.992 140.057 557.512 140.356 557.043C140.654 556.552 141.07 556.115 141.604 555.731C142.158 555.347 142.82 555.038 143.588 554.803C144.377 554.568 145.252 554.451 146.212 554.451C147.193 554.451 148.11 554.568 148.964 554.803C149.838 555.038 150.596 555.39 151.236 555.859C151.897 556.328 152.409 556.915 152.772 557.619C153.156 558.323 153.347 559.144 153.347 560.083C153.347 560.808 153.209 561.47 152.932 562.067C152.676 562.643 152.324 563.144 151.876 563.571C151.449 563.998 150.948 564.36 150.372 564.659C149.817 564.936 149.23 565.15 148.612 565.299V565.427C149.252 565.555 149.881 565.768 150.5 566.067C151.118 566.344 151.673 566.718 152.164 567.187C152.654 567.656 153.049 568.222 153.347 568.883C153.668 569.523 153.828 570.259 153.828 571.091C153.828 572.094 153.636 573 153.252 573.811C152.868 574.6 152.324 575.272 151.62 575.827C150.916 576.382 150.073 576.808 149.092 577.107C148.11 577.406 147.033 577.555 145.86 577.555Z" fill="#767677"/>
<circle cx="263" cy="363.171" r="45" fill="#F5F1E8" stroke="#5F5F61" stroke-width="10"/>
<path d="M252.6 375.987C253.496 375.987 254.253 375.816 254.872 375.475C255.512 375.112 256.024 374.6 256.408 373.939C256.813 373.278 257.101 372.478 257.272 371.539C257.464 370.579 257.56 369.512 257.56 368.339V363.667C257.56 362.494 257.464 361.438 257.272 360.499C257.101 359.539 256.813 358.728 256.408 358.067C256.024 357.406 255.512 356.904 254.872 356.563C254.253 356.2 253.496 356.019 252.6 356.019C251.704 356.019 250.936 356.2 250.296 356.563C249.677 356.904 249.165 357.406 248.76 358.067C248.376 358.728 248.088 359.539 247.896 360.499C247.725 361.438 247.64 362.494 247.64 363.667V368.339C247.64 369.512 247.725 370.579 247.896 371.539C248.088 372.478 248.376 373.278 248.76 373.939C249.165 374.6 249.677 375.112 250.296 375.475C250.936 375.816 251.704 375.987 252.6 375.987ZM252.6 377.555C250.04 377.555 248.067 376.574 246.68 374.611C245.315 372.648 244.632 369.779 244.632 366.003C244.632 362.227 245.315 359.358 246.68 357.395C248.067 355.432 250.04 354.451 252.6 354.451C255.16 354.451 257.123 355.432 258.488 357.395C259.875 359.358 260.568 362.227 260.568 366.003C260.568 369.779 259.875 372.648 258.488 374.611C257.123 376.574 255.16 377.555 252.6 377.555ZM264.14 375.091L271.404 367.763C272.47 366.696 273.292 365.63 273.868 364.563C274.444 363.496 274.732 362.323 274.732 361.043V360.339C274.732 358.995 274.337 357.939 273.548 357.171C272.78 356.382 271.702 355.987 270.316 355.987C269.569 355.987 268.918 356.062 268.364 356.211C267.83 356.36 267.404 356.531 267.084 356.723V356.787C267.361 356.894 267.617 357.118 267.852 357.459C268.108 357.779 268.236 358.174 268.236 358.643C268.236 359.198 268.054 359.667 267.692 360.051C267.329 360.414 266.87 360.595 266.316 360.595C265.718 360.595 265.249 360.403 264.908 360.019C264.566 359.635 264.396 359.123 264.396 358.483C264.396 357.95 264.556 357.438 264.876 356.947C265.217 356.456 265.665 356.03 266.22 355.667C266.796 355.304 267.468 355.016 268.236 354.803C269.025 354.568 269.868 354.451 270.764 354.451C272.918 354.451 274.614 354.995 275.852 356.083C277.11 357.15 277.74 358.643 277.74 360.563C277.74 361.523 277.601 362.398 277.324 363.187C277.046 363.976 276.673 364.723 276.204 365.427C275.734 366.11 275.18 366.76 274.54 367.379C273.921 367.998 273.26 368.616 272.556 369.235L266.508 374.579V374.707H277.068V371.603H278.668V377.171H264.14V375.091Z" fill="#767677"/>
</svg>
