<svg width="1348" height="64" viewBox="0 0 1348 64" fill="none" xmlns="http://www.w3.org/2000/svg">







<path d="M1102.77 38.112C1102.03 38.112 1101.37 37.984 1100.78 37.728C1100.21 37.4613 1099.75 37.0987 1099.42 36.64C1099.09 36.1707 1098.92 35.632 1098.91 35.024H1100.46C1100.52 35.5467 1100.73 35.9893 1101.1 36.352C1101.49 36.704 1102.04 36.88 1102.77 36.88C1103.46 36.88 1104.01 36.7093 1104.4 36.368C1104.81 36.016 1105.01 35.568 1105.01 35.024C1105.01 34.5973 1104.89 34.2507 1104.66 33.984C1104.42 33.7173 1104.13 33.5147 1103.78 33.376C1103.42 33.2373 1102.95 33.088 1102.35 32.928C1101.62 32.736 1101.02 32.544 1100.58 32.352C1100.14 32.16 1099.76 31.8613 1099.44 31.456C1099.13 31.04 1098.98 30.4853 1098.98 29.792C1098.98 29.184 1099.13 28.6453 1099.44 28.176C1099.75 27.7067 1100.18 27.344 1100.74 27.088C1101.3 26.832 1101.95 26.704 1102.67 26.704C1103.72 26.704 1104.57 26.9653 1105.23 27.488C1105.9 28.0107 1106.28 28.704 1106.37 29.568H1104.77C1104.71 29.1413 1104.49 28.768 1104.1 28.448C1103.7 28.1173 1103.18 27.952 1102.53 27.952C1101.92 27.952 1101.42 28.112 1101.04 28.432C1100.66 28.7413 1100.46 29.1787 1100.46 29.744C1100.46 30.1493 1100.58 30.48 1100.8 30.736C1101.03 30.992 1101.32 31.1893 1101.65 31.328C1101.99 31.456 1102.46 31.6053 1103.07 31.776C1103.81 31.9787 1104.4 32.1813 1104.85 32.384C1105.3 32.576 1105.68 32.88 1106 33.296C1106.32 33.7013 1106.48 34.256 1106.48 34.96C1106.48 35.504 1106.34 36.016 1106.05 36.496C1105.76 36.976 1105.33 37.3653 1104.77 37.664C1104.2 37.9627 1103.54 38.112 1102.77 38.112ZM1116.62 33.28C1116.62 33.5573 1116.61 33.8507 1116.57 34.16H1109.57C1109.62 35.024 1109.91 35.7013 1110.45 36.192C1110.99 36.672 1111.65 36.912 1112.41 36.912C1113.04 36.912 1113.57 36.768 1113.98 36.48C1114.41 36.1813 1114.71 35.7867 1114.88 35.296H1116.45C1116.21 36.1387 1115.74 36.8267 1115.04 37.36C1114.33 37.8827 1113.46 38.144 1112.41 38.144C1111.58 38.144 1110.84 37.9573 1110.17 37.584C1109.52 37.2107 1109.01 36.6827 1108.64 36C1108.27 35.3067 1108.08 34.5067 1108.08 33.6C1108.08 32.6933 1108.26 31.8987 1108.62 31.216C1108.99 30.5333 1109.49 30.0107 1110.14 29.648C1110.8 29.2747 1111.56 29.088 1112.41 29.088C1113.25 29.088 1113.98 29.2693 1114.62 29.632C1115.26 29.9947 1115.75 30.496 1116.09 31.136C1116.45 31.7653 1116.62 32.48 1116.62 33.28ZM1115.12 32.976C1115.12 32.4213 1115 31.9467 1114.75 31.552C1114.51 31.1467 1114.17 30.8427 1113.74 30.64C1113.33 30.4267 1112.86 30.32 1112.35 30.32C1111.61 30.32 1110.99 30.5547 1110.46 31.024C1109.95 31.4933 1109.66 32.144 1109.58 32.976H1115.12ZM1118 33.584C1118 32.688 1118.18 31.904 1118.54 31.232C1118.91 30.5493 1119.4 30.0213 1120.03 29.648C1120.67 29.2747 1121.38 29.088 1122.16 29.088C1122.93 29.088 1123.6 29.2533 1124.16 29.584C1124.73 29.9147 1125.15 30.3307 1125.42 30.832V29.232H1126.9V38H1125.42V36.368C1125.14 36.88 1124.7 37.3067 1124.13 37.648C1123.56 37.9787 1122.9 38.144 1122.14 38.144C1121.37 38.144 1120.66 37.952 1120.03 37.568C1119.4 37.184 1118.91 36.6453 1118.54 35.952C1118.18 35.2587 1118 34.4693 1118 33.584ZM1125.42 33.6C1125.42 32.9387 1125.29 32.3627 1125.02 31.872C1124.76 31.3813 1124.4 31.008 1123.94 30.752C1123.49 30.4853 1122.99 30.352 1122.45 30.352C1121.9 30.352 1121.41 30.48 1120.96 30.736C1120.51 30.992 1120.16 31.3653 1119.89 31.856C1119.62 32.3467 1119.49 32.9227 1119.49 33.584C1119.49 34.256 1119.62 34.8427 1119.89 35.344C1120.16 35.8347 1120.51 36.2133 1120.96 36.48C1121.41 36.736 1121.9 36.864 1122.45 36.864C1122.99 36.864 1123.49 36.736 1123.94 36.48C1124.4 36.2133 1124.76 35.8347 1125.02 35.344C1125.29 34.8427 1125.42 34.2613 1125.42 33.6ZM1130.81 30.656C1131.07 30.1547 1131.43 29.7653 1131.9 29.488C1132.38 29.2107 1132.96 29.072 1133.65 29.072V30.576H1133.26C1131.63 30.576 1130.81 31.4613 1130.81 33.232V38H1129.36V29.232H1130.81V30.656ZM1134.78 33.6C1134.78 32.6933 1134.96 31.904 1135.33 31.232C1135.69 30.5493 1136.19 30.0213 1136.83 29.648C1137.48 29.2747 1138.22 29.088 1139.05 29.088C1140.13 29.088 1141.02 29.3493 1141.71 29.872C1142.41 30.3947 1142.88 31.12 1143.1 32.048H1141.53C1141.38 31.5147 1141.09 31.0933 1140.65 30.784C1140.23 30.4747 1139.69 30.32 1139.05 30.32C1138.22 30.32 1137.55 30.608 1137.04 31.184C1136.53 31.7493 1136.27 32.5547 1136.27 33.6C1136.27 34.656 1136.53 35.472 1137.04 36.048C1137.55 36.624 1138.22 36.912 1139.05 36.912C1139.69 36.912 1140.23 36.7627 1140.65 36.464C1141.08 36.1653 1141.37 35.7387 1141.53 35.184H1143.1C1142.87 36.08 1142.4 36.8 1141.69 37.344C1140.99 37.8773 1140.11 38.144 1139.05 38.144C1138.22 38.144 1137.48 37.9573 1136.83 37.584C1136.19 37.2107 1135.69 36.6827 1135.33 36C1134.96 35.3173 1134.78 34.5173 1134.78 33.6ZM1149.4 29.072C1150.06 29.072 1150.66 29.216 1151.19 29.504C1151.72 29.7813 1152.14 30.2027 1152.44 30.768C1152.75 31.3333 1152.9 32.0213 1152.9 32.832V38H1151.46V33.04C1151.46 32.1653 1151.24 31.4987 1150.8 31.04C1150.37 30.5707 1149.77 30.336 1149.01 30.336C1148.24 30.336 1147.63 30.576 1147.17 31.056C1146.72 31.536 1146.5 32.2347 1146.5 33.152V38H1145.04V26.16H1146.5V30.48C1146.79 30.032 1147.18 29.6853 1147.68 29.44C1148.2 29.1947 1148.77 29.072 1149.4 29.072Z" fill="#767677"/>
<rect x="1056" y="14" width="140" height="37" rx="18.5" fill="#D9D9D9" fill-opacity="0.2"/>
</svg>
