<svg width="1134" height="321" viewBox="0 0 1134 321" fill="none" xmlns="http://www.w3.org/2000/svg">
<rect x="0.5" y="0.5" width="349" height="249" rx="9.5" fill="#F5F1E8" stroke="#5F5F61"/>
<path d="M170 106V134M156 120H184" stroke="#5F5F61" stroke-width="4" stroke-linecap="round" stroke-linejoin="round"/>
<path d="M10 265.5H340C345.247 265.5 349.5 269.753 349.5 275V311C349.5 316.247 345.247 320.5 340 320.5H10C4.7533 320.5 0.5 316.247 0.5 311V275C0.5 269.753 4.7533 265.5 10 265.5Z" fill="#F5F1E8"/>
<path d="M10 265.5H340C345.247 265.5 349.5 269.753 349.5 275V311C349.5 316.247 345.247 320.5 340 320.5H10C4.7533 320.5 0.5 316.247 0.5 311V275C0.5 269.753 4.7533 265.5 10 265.5Z" stroke="#313134"/>
<path d="M100.32 300.08H101.38L105.92 287.04H107.82L112.34 300.08H113.4V301H108.68V300.08H110.48L109.24 296.46H103.8L102.56 300.08H104.36V301H100.32V300.08ZM104.08 295.5H108.94L106.6 288.5H106.48L104.08 295.5ZM118.833 301.24C117.553 301.24 116.527 300.78 115.753 299.86C114.993 298.927 114.613 297.587 114.613 295.84C114.613 294.093 114.993 292.76 115.753 291.84C116.527 290.907 117.553 290.44 118.833 290.44C119.633 290.44 120.28 290.613 120.773 290.96C121.28 291.307 121.647 291.727 121.873 292.22H121.953V287.34L120.453 287.08V286.38L123.593 285.8V299.7L125.073 299.96V300.64L121.953 301.24V299.44H121.873C121.647 299.933 121.287 300.36 120.793 300.72C120.3 301.067 119.647 301.24 118.833 301.24ZM119.313 300.1C119.633 300.1 119.953 300.053 120.273 299.96C120.593 299.867 120.873 299.733 121.113 299.56C121.367 299.387 121.567 299.173 121.713 298.92C121.873 298.653 121.953 298.36 121.953 298.04V293.64C121.953 293.32 121.873 293.033 121.713 292.78C121.567 292.513 121.367 292.293 121.113 292.12C120.873 291.947 120.593 291.813 120.273 291.72C119.953 291.627 119.633 291.58 119.313 291.58C118.393 291.58 117.673 291.893 117.153 292.52C116.647 293.133 116.393 293.96 116.393 295V296.68C116.393 297.72 116.647 298.553 117.153 299.18C117.673 299.793 118.393 300.1 119.313 300.1ZM131.001 301.24C129.721 301.24 128.695 300.78 127.921 299.86C127.161 298.927 126.781 297.587 126.781 295.84C126.781 294.093 127.161 292.76 127.921 291.84C128.695 290.907 129.721 290.44 131.001 290.44C131.801 290.44 132.448 290.613 132.941 290.96C133.448 291.307 133.815 291.727 134.041 292.22H134.121V287.34L132.621 287.08V286.38L135.761 285.8V299.7L137.241 299.96V300.64L134.121 301.24V299.44H134.041C133.815 299.933 133.455 300.36 132.961 300.72C132.468 301.067 131.815 301.24 131.001 301.24ZM131.481 300.1C131.801 300.1 132.121 300.053 132.441 299.96C132.761 299.867 133.041 299.733 133.281 299.56C133.535 299.387 133.735 299.173 133.881 298.92C134.041 298.653 134.121 298.36 134.121 298.04V293.64C134.121 293.32 134.041 293.033 133.881 292.78C133.735 292.513 133.535 292.293 133.281 292.12C133.041 291.947 132.761 291.813 132.441 291.72C132.121 291.627 131.801 291.58 131.481 291.58C130.561 291.58 129.841 291.893 129.321 292.52C128.815 293.133 128.561 293.96 128.561 295V296.68C128.561 297.72 128.815 298.553 129.321 299.18C129.841 299.793 130.561 300.1 131.481 300.1ZM146.638 301.12C145.931 301.12 145.444 300.98 145.178 300.7C144.911 300.407 144.778 299.913 144.778 299.22V291.66H143.458V290.68H143.638C143.918 290.68 144.138 290.66 144.298 290.62C144.471 290.58 144.604 290.527 144.698 290.46C144.804 290.38 144.878 290.287 144.918 290.18C144.971 290.06 145.018 289.927 145.058 289.78L145.518 288H146.418V290.68H149.078V291.66H146.418V300.02H149.078V300.68C148.958 300.747 148.804 300.807 148.618 300.86C148.444 300.913 148.244 300.96 148.018 301C147.804 301.04 147.578 301.067 147.338 301.08C147.098 301.107 146.864 301.12 146.638 301.12ZM155.288 300.26C155.782 300.26 156.208 300.18 156.568 300.02C156.942 299.847 157.242 299.613 157.468 299.32C157.708 299.013 157.882 298.66 157.988 298.26C158.108 297.847 158.168 297.4 158.168 296.92V294.76C158.168 294.28 158.108 293.84 157.988 293.44C157.882 293.027 157.708 292.673 157.468 292.38C157.242 292.073 156.942 291.84 156.568 291.68C156.208 291.507 155.782 291.42 155.288 291.42C154.782 291.42 154.348 291.507 153.988 291.68C153.628 291.84 153.328 292.073 153.088 292.38C152.862 292.673 152.688 293.027 152.568 293.44C152.462 293.84 152.408 294.28 152.408 294.76V296.92C152.408 297.4 152.462 297.847 152.568 298.26C152.688 298.66 152.862 299.013 153.088 299.32C153.328 299.613 153.628 299.847 153.988 300.02C154.348 300.18 154.782 300.26 155.288 300.26ZM155.288 301.24C154.582 301.24 153.935 301.113 153.348 300.86C152.762 300.607 152.262 300.247 151.848 299.78C151.435 299.3 151.115 298.733 150.888 298.08C150.662 297.413 150.548 296.667 150.548 295.84C150.548 295.027 150.662 294.287 150.888 293.62C151.115 292.953 151.435 292.387 151.848 291.92C152.262 291.44 152.762 291.073 153.348 290.82C153.935 290.567 154.582 290.44 155.288 290.44C155.995 290.44 156.642 290.567 157.228 290.82C157.815 291.073 158.315 291.44 158.728 291.92C159.142 292.387 159.462 292.953 159.688 293.62C159.915 294.287 160.028 295.027 160.028 295.84C160.028 296.667 159.915 297.413 159.688 298.08C159.462 298.733 159.142 299.3 158.728 299.78C158.315 300.247 157.815 300.607 157.228 300.86C156.642 301.113 155.995 301.24 155.288 301.24ZM171.186 301.24C170.439 301.24 169.773 301.113 169.186 300.86C168.613 300.593 168.126 300.227 167.726 299.76C167.326 299.28 167.019 298.713 166.806 298.06C166.593 297.393 166.486 296.653 166.486 295.84C166.486 295.013 166.599 294.267 166.826 293.6C167.066 292.933 167.399 292.367 167.826 291.9C168.253 291.433 168.759 291.073 169.346 290.82C169.946 290.567 170.606 290.44 171.326 290.44C172.406 290.44 173.259 290.673 173.886 291.14C174.526 291.593 174.846 292.173 174.846 292.88C174.846 293.307 174.733 293.64 174.506 293.88C174.293 294.12 173.993 294.24 173.606 294.24C173.193 294.24 172.886 294.12 172.686 293.88C172.486 293.64 172.386 293.353 172.386 293.02C172.386 292.727 172.459 292.473 172.606 292.26C172.753 292.047 172.959 291.88 173.226 291.76V291.7C173.053 291.593 172.826 291.513 172.546 291.46C172.279 291.407 171.933 291.38 171.506 291.38C171.039 291.38 170.606 291.467 170.206 291.64C169.819 291.813 169.486 292.06 169.206 292.38C168.926 292.687 168.706 293.053 168.546 293.48C168.386 293.893 168.306 294.347 168.306 294.84V296.32C168.306 296.867 168.379 297.367 168.526 297.82C168.673 298.26 168.879 298.64 169.146 298.96C169.426 299.28 169.753 299.527 170.126 299.7C170.513 299.873 170.946 299.96 171.426 299.96C172.239 299.96 172.879 299.793 173.346 299.46C173.813 299.113 174.186 298.667 174.466 298.12L175.106 298.54C174.986 298.887 174.813 299.227 174.586 299.56C174.359 299.88 174.086 300.167 173.766 300.42C173.446 300.66 173.066 300.853 172.626 301C172.199 301.16 171.719 301.24 171.186 301.24ZM181.343 300.26C181.836 300.26 182.263 300.18 182.623 300.02C182.996 299.847 183.296 299.613 183.523 299.32C183.763 299.013 183.936 298.66 184.043 298.26C184.163 297.847 184.223 297.4 184.223 296.92V294.76C184.223 294.28 184.163 293.84 184.043 293.44C183.936 293.027 183.763 292.673 183.523 292.38C183.296 292.073 182.996 291.84 182.623 291.68C182.263 291.507 181.836 291.42 181.343 291.42C180.836 291.42 180.403 291.507 180.043 291.68C179.683 291.84 179.383 292.073 179.143 292.38C178.916 292.673 178.743 293.027 178.623 293.44C178.516 293.84 178.463 294.28 178.463 294.76V296.92C178.463 297.4 178.516 297.847 178.623 298.26C178.743 298.66 178.916 299.013 179.143 299.32C179.383 299.613 179.683 299.847 180.043 300.02C180.403 300.18 180.836 300.26 181.343 300.26ZM181.343 301.24C180.636 301.24 179.99 301.113 179.403 300.86C178.816 300.607 178.316 300.247 177.903 299.78C177.49 299.3 177.17 298.733 176.943 298.08C176.716 297.413 176.603 296.667 176.603 295.84C176.603 295.027 176.716 294.287 176.943 293.62C177.17 292.953 177.49 292.387 177.903 291.92C178.316 291.44 178.816 291.073 179.403 290.82C179.99 290.567 180.636 290.44 181.343 290.44C182.05 290.44 182.696 290.567 183.283 290.82C183.87 291.073 184.37 291.44 184.783 291.92C185.196 292.387 185.516 292.953 185.743 293.62C185.97 294.287 186.083 295.027 186.083 295.84C186.083 296.667 185.97 297.413 185.743 298.08C185.516 298.733 185.196 299.3 184.783 299.78C184.37 300.247 183.87 300.607 183.283 300.86C182.696 301.113 182.05 301.24 181.343 301.24ZM187.992 300.08H189.472V291.98L187.992 291.72V291.04L191.072 290.44V292.24H191.152C191.232 292.027 191.352 291.813 191.512 291.6C191.672 291.387 191.872 291.193 192.112 291.02C192.366 290.847 192.652 290.707 192.972 290.6C193.292 290.493 193.652 290.44 194.052 290.44C194.932 290.44 195.632 290.607 196.152 290.94C196.672 291.273 197.032 291.787 197.232 292.48H197.292C197.399 292.24 197.539 292 197.712 291.76C197.886 291.52 198.099 291.3 198.352 291.1C198.606 290.9 198.899 290.74 199.232 290.62C199.579 290.5 199.979 290.44 200.432 290.44C201.672 290.44 202.552 290.767 203.072 291.42C203.606 292.073 203.872 293.047 203.872 294.34V300.08H205.352V301H200.752V300.08H202.232V294.46C202.232 292.54 201.439 291.58 199.852 291.58C199.559 291.58 199.266 291.627 198.972 291.72C198.692 291.8 198.439 291.927 198.212 292.1C197.999 292.26 197.826 292.473 197.692 292.74C197.559 292.993 197.492 293.293 197.492 293.64V300.08H198.972V301H194.372V300.08H195.852V294.46C195.852 292.54 195.066 291.58 193.492 291.58C193.186 291.58 192.892 291.627 192.612 291.72C192.332 291.8 192.079 291.927 191.852 292.1C191.626 292.26 191.446 292.473 191.312 292.74C191.179 292.993 191.112 293.293 191.112 293.64V300.08H192.592V301H187.992V300.08ZM206.855 304.08H208.335V291.98L206.855 291.72V291.04L209.975 290.44V292.24H210.055C210.281 291.747 210.641 291.327 211.135 290.98C211.628 290.62 212.281 290.44 213.095 290.44C214.375 290.44 215.395 290.907 216.155 291.84C216.928 292.76 217.315 294.093 217.315 295.84C217.315 297.587 216.928 298.927 216.155 299.86C215.395 300.78 214.375 301.24 213.095 301.24C212.295 301.24 211.641 301.067 211.135 300.72C210.641 300.373 210.281 299.953 210.055 299.46H209.975V304.08H211.855V305H206.855V304.08ZM212.615 300.1C213.535 300.1 214.248 299.793 214.755 299.18C215.275 298.553 215.535 297.72 215.535 296.68V295C215.535 293.96 215.275 293.133 214.755 292.52C214.248 291.893 213.535 291.58 212.615 291.58C212.295 291.58 211.975 291.627 211.655 291.72C211.335 291.813 211.048 291.947 210.795 292.12C210.555 292.293 210.355 292.513 210.195 292.78C210.048 293.033 209.975 293.32 209.975 293.64V298.04C209.975 298.36 210.048 298.653 210.195 298.92C210.355 299.173 210.555 299.387 210.795 299.56C211.048 299.733 211.335 299.867 211.655 299.96C211.975 300.053 212.295 300.1 212.615 300.1ZM222.576 301.24C221.616 301.24 220.862 300.993 220.316 300.5C219.782 299.993 219.516 299.307 219.516 298.44C219.516 297.947 219.596 297.513 219.756 297.14C219.916 296.753 220.176 296.433 220.536 296.18C220.909 295.927 221.389 295.733 221.976 295.6C222.562 295.467 223.276 295.4 224.116 295.4H225.596V293.88C225.596 293.067 225.396 292.447 224.996 292.02C224.609 291.58 224.022 291.36 223.236 291.36C222.889 291.36 222.569 291.393 222.276 291.46C221.982 291.513 221.742 291.593 221.556 291.7V291.74C221.702 291.82 221.842 291.94 221.976 292.1C222.122 292.26 222.196 292.487 222.196 292.78C222.196 293.127 222.096 293.4 221.896 293.6C221.696 293.787 221.429 293.88 221.096 293.88C220.776 293.88 220.509 293.787 220.296 293.6C220.096 293.4 219.996 293.107 219.996 292.72C219.996 292.427 220.082 292.147 220.256 291.88C220.429 291.6 220.676 291.353 220.996 291.14C221.316 290.927 221.709 290.76 222.176 290.64C222.656 290.507 223.196 290.44 223.796 290.44C224.876 290.44 225.716 290.72 226.316 291.28C226.929 291.84 227.236 292.627 227.236 293.64V300.14H228.736V300.84C228.589 300.947 228.389 301.04 228.136 301.12C227.896 301.2 227.622 301.24 227.316 301.24C226.796 301.24 226.396 301.093 226.116 300.8C225.836 300.507 225.696 300.113 225.696 299.62V299.48H225.596C225.502 299.707 225.376 299.927 225.216 300.14C225.069 300.353 224.876 300.54 224.636 300.7C224.396 300.86 224.102 300.987 223.756 301.08C223.422 301.187 223.029 301.24 222.576 301.24ZM223.276 300.14C223.916 300.14 224.462 299.98 224.916 299.66C225.369 299.327 225.596 298.82 225.596 298.14V296.2H224.296C223.722 296.2 223.242 296.247 222.856 296.34C222.469 296.42 222.162 296.547 221.936 296.72C221.709 296.88 221.542 297.08 221.436 297.32C221.342 297.56 221.296 297.84 221.296 298.16V298.58C221.296 299.087 221.469 299.473 221.816 299.74C222.162 300.007 222.649 300.14 223.276 300.14ZM230.434 300.08H231.914V291.98L230.434 291.72V291.04L233.514 290.44V292.24H233.614C233.707 292.027 233.82 291.813 233.954 291.6C234.1 291.387 234.274 291.193 234.474 291.02C234.687 290.847 234.927 290.707 235.194 290.6C235.474 290.493 235.794 290.44 236.154 290.44C236.74 290.44 237.207 290.58 237.554 290.86C237.914 291.14 238.094 291.547 238.094 292.08C238.094 292.48 237.994 292.793 237.794 293.02C237.594 293.247 237.334 293.36 237.014 293.36C236.654 293.36 236.367 293.267 236.154 293.08C235.94 292.88 235.834 292.627 235.834 292.32C235.834 292.053 235.887 291.84 235.994 291.68C236.114 291.507 236.247 291.407 236.394 291.38V291.34C236.34 291.327 236.274 291.32 236.194 291.32C236.114 291.307 236.014 291.3 235.894 291.3C235.614 291.3 235.334 291.373 235.054 291.52C234.774 291.653 234.52 291.833 234.294 292.06C234.08 292.273 233.9 292.52 233.754 292.8C233.62 293.08 233.554 293.36 233.554 293.64V300.08H235.434V301H230.434V300.08ZM243.881 301.24C243.147 301.24 242.487 301.113 241.901 300.86C241.327 300.593 240.841 300.227 240.441 299.76C240.041 299.293 239.734 298.727 239.521 298.06C239.307 297.393 239.201 296.653 239.201 295.84C239.201 295.04 239.314 294.313 239.541 293.66C239.781 292.993 240.101 292.42 240.501 291.94C240.914 291.46 241.401 291.093 241.961 290.84C242.521 290.573 243.134 290.44 243.801 290.44C244.481 290.44 245.087 290.56 245.621 290.8C246.154 291.04 246.601 291.38 246.961 291.82C247.334 292.247 247.621 292.76 247.821 293.36C248.021 293.96 248.121 294.613 248.121 295.32V295.78H241.021V296.3C241.021 297.433 241.301 298.327 241.861 298.98C242.434 299.633 243.194 299.96 244.141 299.96C244.967 299.96 245.621 299.793 246.101 299.46C246.594 299.113 246.981 298.667 247.261 298.12L247.921 298.54C247.787 298.887 247.601 299.227 247.361 299.56C247.134 299.88 246.854 300.167 246.521 300.42C246.187 300.66 245.801 300.853 245.361 301C244.921 301.16 244.427 301.24 243.881 301.24ZM241.021 294.86H246.401V294.66C246.401 294.193 246.347 293.76 246.241 293.36C246.147 292.96 245.994 292.613 245.781 292.32C245.567 292.027 245.294 291.8 244.961 291.64C244.641 291.467 244.254 291.38 243.801 291.38C243.347 291.38 242.947 291.46 242.601 291.62C242.254 291.78 241.961 292.007 241.721 292.3C241.494 292.593 241.321 292.94 241.201 293.34C241.081 293.727 241.021 294.153 241.021 294.62V294.86Z" fill="#313134"/>
<rect x="390.5" y="0.5" width="349" height="249" rx="9.5" fill="#F5F1E8" stroke="#5F5F61"/>
<path d="M560 106V134M546 120H574" stroke="#5F5F61" stroke-width="4" stroke-linecap="round" stroke-linejoin="round"/>
<path d="M400 265.5H730C735.247 265.5 739.5 269.753 739.5 275V311C739.5 316.247 735.247 320.5 730 320.5H400C394.753 320.5 390.5 316.247 390.5 311V275C390.5 269.753 394.753 265.5 400 265.5Z" fill="#F5F1E8"/>
<path d="M400 265.5H730C735.247 265.5 739.5 269.753 739.5 275V311C739.5 316.247 735.247 320.5 730 320.5H400C394.753 320.5 390.5 316.247 390.5 311V275C390.5 269.753 394.753 265.5 400 265.5Z" stroke="#313134"/>
<path d="M490.32 300.08H491.38L495.92 287.04H497.82L502.34 300.08H503.4V301H498.68V300.08H500.48L499.24 296.46H493.8L492.56 300.08H494.36V301H490.32V300.08ZM494.08 295.5H498.94L496.6 288.5H496.48L494.08 295.5ZM508.833 301.24C507.553 301.24 506.527 300.78 505.753 299.86C504.993 298.927 504.613 297.587 504.613 295.84C504.613 294.093 504.993 292.76 505.753 291.84C506.527 290.907 507.553 290.44 508.833 290.44C509.633 290.44 510.28 290.613 510.773 290.96C511.28 291.307 511.647 291.727 511.873 292.22H511.953V287.34L510.453 287.08V286.38L513.593 285.8V299.7L515.073 299.96V300.64L511.953 301.24V299.44H511.873C511.647 299.933 511.287 300.36 510.793 300.72C510.3 301.067 509.647 301.24 508.833 301.24ZM509.313 300.1C509.633 300.1 509.953 300.053 510.273 299.96C510.593 299.867 510.873 299.733 511.113 299.56C511.367 299.387 511.567 299.173 511.713 298.92C511.873 298.653 511.953 298.36 511.953 298.04V293.64C511.953 293.32 511.873 293.033 511.713 292.78C511.567 292.513 511.367 292.293 511.113 292.12C510.873 291.947 510.593 291.813 510.273 291.72C509.953 291.627 509.633 291.58 509.313 291.58C508.393 291.58 507.673 291.893 507.153 292.52C506.647 293.133 506.393 293.96 506.393 295V296.68C506.393 297.72 506.647 298.553 507.153 299.18C507.673 299.793 508.393 300.1 509.313 300.1ZM521.001 301.24C519.721 301.24 518.695 300.78 517.921 299.86C517.161 298.927 516.781 297.587 516.781 295.84C516.781 294.093 517.161 292.76 517.921 291.84C518.695 290.907 519.721 290.44 521.001 290.44C521.801 290.44 522.448 290.613 522.941 290.96C523.448 291.307 523.815 291.727 524.041 292.22H524.121V287.34L522.621 287.08V286.38L525.761 285.8V299.7L527.241 299.96V300.64L524.121 301.24V299.44H524.041C523.815 299.933 523.455 300.36 522.961 300.72C522.468 301.067 521.815 301.24 521.001 301.24ZM521.481 300.1C521.801 300.1 522.121 300.053 522.441 299.96C522.761 299.867 523.041 299.733 523.281 299.56C523.535 299.387 523.735 299.173 523.881 298.92C524.041 298.653 524.121 298.36 524.121 298.04V293.64C524.121 293.32 524.041 293.033 523.881 292.78C523.735 292.513 523.535 292.293 523.281 292.12C523.041 291.947 522.761 291.813 522.441 291.72C522.121 291.627 521.801 291.58 521.481 291.58C520.561 291.58 519.841 291.893 519.321 292.52C518.815 293.133 518.561 293.96 518.561 295V296.68C518.561 297.72 518.815 298.553 519.321 299.18C519.841 299.793 520.561 300.1 521.481 300.1ZM536.638 301.12C535.931 301.12 535.444 300.98 535.178 300.7C534.911 300.407 534.778 299.913 534.778 299.22V291.66H533.458V290.68H533.638C533.918 290.68 534.138 290.66 534.298 290.62C534.471 290.58 534.604 290.527 534.698 290.46C534.804 290.38 534.878 290.287 534.918 290.18C534.971 290.06 535.018 289.927 535.058 289.78L535.518 288H536.418V290.68H539.078V291.66H536.418V300.02H539.078V300.68C538.958 300.747 538.804 300.807 538.618 300.86C538.444 300.913 538.244 300.96 538.018 301C537.804 301.04 537.578 301.067 537.338 301.08C537.098 301.107 536.864 301.12 536.638 301.12ZM545.288 300.26C545.782 300.26 546.208 300.18 546.568 300.02C546.942 299.847 547.242 299.613 547.468 299.32C547.708 299.013 547.882 298.66 547.988 298.26C548.108 297.847 548.168 297.4 548.168 296.92V294.76C548.168 294.28 548.108 293.84 547.988 293.44C547.882 293.027 547.708 292.673 547.468 292.38C547.242 292.073 546.942 291.84 546.568 291.68C546.208 291.507 545.782 291.42 545.288 291.42C544.782 291.42 544.348 291.507 543.988 291.68C543.628 291.84 543.328 292.073 543.088 292.38C542.862 292.673 542.688 293.027 542.568 293.44C542.462 293.84 542.408 294.28 542.408 294.76V296.92C542.408 297.4 542.462 297.847 542.568 298.26C542.688 298.66 542.862 299.013 543.088 299.32C543.328 299.613 543.628 299.847 543.988 300.02C544.348 300.18 544.782 300.26 545.288 300.26ZM545.288 301.24C544.582 301.24 543.935 301.113 543.348 300.86C542.762 300.607 542.262 300.247 541.848 299.78C541.435 299.3 541.115 298.733 540.888 298.08C540.662 297.413 540.548 296.667 540.548 295.84C540.548 295.027 540.662 294.287 540.888 293.62C541.115 292.953 541.435 292.387 541.848 291.92C542.262 291.44 542.762 291.073 543.348 290.82C543.935 290.567 544.582 290.44 545.288 290.44C545.995 290.44 546.642 290.567 547.228 290.82C547.815 291.073 548.315 291.44 548.728 291.92C549.142 292.387 549.462 292.953 549.688 293.62C549.915 294.287 550.028 295.027 550.028 295.84C550.028 296.667 549.915 297.413 549.688 298.08C549.462 298.733 549.142 299.3 548.728 299.78C548.315 300.247 547.815 300.607 547.228 300.86C546.642 301.113 545.995 301.24 545.288 301.24ZM561.186 301.24C560.439 301.24 559.773 301.113 559.186 300.86C558.613 300.593 558.126 300.227 557.726 299.76C557.326 299.28 557.019 298.713 556.806 298.06C556.593 297.393 556.486 296.653 556.486 295.84C556.486 295.013 556.599 294.267 556.826 293.6C557.066 292.933 557.399 292.367 557.826 291.9C558.253 291.433 558.759 291.073 559.346 290.82C559.946 290.567 560.606 290.44 561.326 290.44C562.406 290.44 563.259 290.673 563.886 291.14C564.526 291.593 564.846 292.173 564.846 292.88C564.846 293.307 564.733 293.64 564.506 293.88C564.293 294.12 563.993 294.24 563.606 294.24C563.193 294.24 562.886 294.12 562.686 293.88C562.486 293.64 562.386 293.353 562.386 293.02C562.386 292.727 562.459 292.473 562.606 292.26C562.753 292.047 562.959 291.88 563.226 291.76V291.7C563.053 291.593 562.826 291.513 562.546 291.46C562.279 291.407 561.933 291.38 561.506 291.38C561.039 291.38 560.606 291.467 560.206 291.64C559.819 291.813 559.486 292.06 559.206 292.38C558.926 292.687 558.706 293.053 558.546 293.48C558.386 293.893 558.306 294.347 558.306 294.84V296.32C558.306 296.867 558.379 297.367 558.526 297.82C558.673 298.26 558.879 298.64 559.146 298.96C559.426 299.28 559.753 299.527 560.126 299.7C560.513 299.873 560.946 299.96 561.426 299.96C562.239 299.96 562.879 299.793 563.346 299.46C563.813 299.113 564.186 298.667 564.466 298.12L565.106 298.54C564.986 298.887 564.813 299.227 564.586 299.56C564.359 299.88 564.086 300.167 563.766 300.42C563.446 300.66 563.066 300.853 562.626 301C562.199 301.16 561.719 301.24 561.186 301.24ZM571.343 300.26C571.836 300.26 572.263 300.18 572.623 300.02C572.996 299.847 573.296 299.613 573.523 299.32C573.763 299.013 573.936 298.66 574.043 298.26C574.163 297.847 574.223 297.4 574.223 296.92V294.76C574.223 294.28 574.163 293.84 574.043 293.44C573.936 293.027 573.763 292.673 573.523 292.38C573.296 292.073 572.996 291.84 572.623 291.68C572.263 291.507 571.836 291.42 571.343 291.42C570.836 291.42 570.403 291.507 570.043 291.68C569.683 291.84 569.383 292.073 569.143 292.38C568.916 292.673 568.743 293.027 568.623 293.44C568.516 293.84 568.463 294.28 568.463 294.76V296.92C568.463 297.4 568.516 297.847 568.623 298.26C568.743 298.66 568.916 299.013 569.143 299.32C569.383 299.613 569.683 299.847 570.043 300.02C570.403 300.18 570.836 300.26 571.343 300.26ZM571.343 301.24C570.636 301.24 569.99 301.113 569.403 300.86C568.816 300.607 568.316 300.247 567.903 299.78C567.49 299.3 567.17 298.733 566.943 298.08C566.716 297.413 566.603 296.667 566.603 295.84C566.603 295.027 566.716 294.287 566.943 293.62C567.17 292.953 567.49 292.387 567.903 291.92C568.316 291.44 568.816 291.073 569.403 290.82C569.99 290.567 570.636 290.44 571.343 290.44C572.05 290.44 572.696 290.567 573.283 290.82C573.87 291.073 574.37 291.44 574.783 291.92C575.196 292.387 575.516 292.953 575.743 293.62C575.97 294.287 576.083 295.027 576.083 295.84C576.083 296.667 575.97 297.413 575.743 298.08C575.516 298.733 575.196 299.3 574.783 299.78C574.37 300.247 573.87 300.607 573.283 300.86C572.696 301.113 572.05 301.24 571.343 301.24ZM577.992 300.08H579.472V291.98L577.992 291.72V291.04L581.072 290.44V292.24H581.152C581.232 292.027 581.352 291.813 581.512 291.6C581.672 291.387 581.872 291.193 582.112 291.02C582.366 290.847 582.652 290.707 582.972 290.6C583.292 290.493 583.652 290.44 584.052 290.44C584.932 290.44 585.632 290.607 586.152 290.94C586.672 291.273 587.032 291.787 587.232 292.48H587.292C587.399 292.24 587.539 292 587.712 291.76C587.886 291.52 588.099 291.3 588.352 291.1C588.606 290.9 588.899 290.74 589.232 290.62C589.579 290.5 589.979 290.44 590.432 290.44C591.672 290.44 592.552 290.767 593.072 291.42C593.606 292.073 593.872 293.047 593.872 294.34V300.08H595.352V301H590.752V300.08H592.232V294.46C592.232 292.54 591.439 291.58 589.852 291.58C589.559 291.58 589.266 291.627 588.972 291.72C588.692 291.8 588.439 291.927 588.212 292.1C587.999 292.26 587.826 292.473 587.692 292.74C587.559 292.993 587.492 293.293 587.492 293.64V300.08H588.972V301H584.372V300.08H585.852V294.46C585.852 292.54 585.066 291.58 583.492 291.58C583.186 291.58 582.892 291.627 582.612 291.72C582.332 291.8 582.079 291.927 581.852 292.1C581.626 292.26 581.446 292.473 581.312 292.74C581.179 292.993 581.112 293.293 581.112 293.64V300.08H582.592V301H577.992V300.08ZM596.855 304.08H598.335V291.98L596.855 291.72V291.04L599.975 290.44V292.24H600.055C600.281 291.747 600.641 291.327 601.135 290.98C601.628 290.62 602.281 290.44 603.095 290.44C604.375 290.44 605.395 290.907 606.155 291.84C606.928 292.76 607.315 294.093 607.315 295.84C607.315 297.587 606.928 298.927 606.155 299.86C605.395 300.78 604.375 301.24 603.095 301.24C602.295 301.24 601.641 301.067 601.135 300.72C600.641 300.373 600.281 299.953 600.055 299.46H599.975V304.08H601.855V305H596.855V304.08ZM602.615 300.1C603.535 300.1 604.248 299.793 604.755 299.18C605.275 298.553 605.535 297.72 605.535 296.68V295C605.535 293.96 605.275 293.133 604.755 292.52C604.248 291.893 603.535 291.58 602.615 291.58C602.295 291.58 601.975 291.627 601.655 291.72C601.335 291.813 601.048 291.947 600.795 292.12C600.555 292.293 600.355 292.513 600.195 292.78C600.048 293.033 599.975 293.32 599.975 293.64V298.04C599.975 298.36 600.048 298.653 600.195 298.92C600.355 299.173 600.555 299.387 600.795 299.56C601.048 299.733 601.335 299.867 601.655 299.96C601.975 300.053 602.295 300.1 602.615 300.1ZM612.576 301.24C611.616 301.24 610.862 300.993 610.316 300.5C609.782 299.993 609.516 299.307 609.516 298.44C609.516 297.947 609.596 297.513 609.756 297.14C609.916 296.753 610.176 296.433 610.536 296.18C610.909 295.927 611.389 295.733 611.976 295.6C612.562 295.467 613.276 295.4 614.116 295.4H615.596V293.88C615.596 293.067 615.396 292.447 614.996 292.02C614.609 291.58 614.022 291.36 613.236 291.36C612.889 291.36 612.569 291.393 612.276 291.46C611.982 291.513 611.742 291.593 611.556 291.7V291.74C611.702 291.82 611.842 291.94 611.976 292.1C612.122 292.26 612.196 292.487 612.196 292.78C612.196 293.127 612.096 293.4 611.896 293.6C611.696 293.787 611.429 293.88 611.096 293.88C610.776 293.88 610.509 293.787 610.296 293.6C610.096 293.4 609.996 293.107 609.996 292.72C609.996 292.427 610.082 292.147 610.256 291.88C610.429 291.6 610.676 291.353 610.996 291.14C611.316 290.927 611.709 290.76 612.176 290.64C612.656 290.507 613.196 290.44 613.796 290.44C614.876 290.44 615.716 290.72 616.316 291.28C616.929 291.84 617.236 292.627 617.236 293.64V300.14H618.736V300.84C618.589 300.947 618.389 301.04 618.136 301.12C617.896 301.2 617.622 301.24 617.316 301.24C616.796 301.24 616.396 301.093 616.116 300.8C615.836 300.507 615.696 300.113 615.696 299.62V299.48H615.596C615.502 299.707 615.376 299.927 615.216 300.14C615.069 300.353 614.876 300.54 614.636 300.7C614.396 300.86 614.102 300.987 613.756 301.08C613.422 301.187 613.029 301.24 612.576 301.24ZM613.276 300.14C613.916 300.14 614.462 299.98 614.916 299.66C615.369 299.327 615.596 298.82 615.596 298.14V296.2H614.296C613.722 296.2 613.242 296.247 612.856 296.34C612.469 296.42 612.162 296.547 611.936 296.72C611.709 296.88 611.542 297.08 611.436 297.32C611.342 297.56 611.296 297.84 611.296 298.16V298.58C611.296 299.087 611.469 299.473 611.816 299.74C612.162 300.007 612.649 300.14 613.276 300.14ZM620.434 300.08H621.914V291.98L620.434 291.72V291.04L623.514 290.44V292.24H623.614C623.707 292.027 623.82 291.813 623.954 291.6C624.1 291.387 624.274 291.193 624.474 291.02C624.687 290.847 624.927 290.707 625.194 290.6C625.474 290.493 625.794 290.44 626.154 290.44C626.74 290.44 627.207 290.58 627.554 290.86C627.914 291.14 628.094 291.547 628.094 292.08C628.094 292.48 627.994 292.793 627.794 293.02C627.594 293.247 627.334 293.36 627.014 293.36C626.654 293.36 626.367 293.267 626.154 293.08C625.94 292.88 625.834 292.627 625.834 292.32C625.834 292.053 625.887 291.84 625.994 291.68C626.114 291.507 626.247 291.407 626.394 291.38V291.34C626.34 291.327 626.274 291.32 626.194 291.32C626.114 291.307 626.014 291.3 625.894 291.3C625.614 291.3 625.334 291.373 625.054 291.52C624.774 291.653 624.52 291.833 624.294 292.06C624.08 292.273 623.9 292.52 623.754 292.8C623.62 293.08 623.554 293.36 623.554 293.64V300.08H625.434V301H620.434V300.08ZM633.881 301.24C633.147 301.24 632.487 301.113 631.901 300.86C631.327 300.593 630.841 300.227 630.441 299.76C630.041 299.293 629.734 298.727 629.521 298.06C629.307 297.393 629.201 296.653 629.201 295.84C629.201 295.04 629.314 294.313 629.541 293.66C629.781 292.993 630.101 292.42 630.501 291.94C630.914 291.46 631.401 291.093 631.961 290.84C632.521 290.573 633.134 290.44 633.801 290.44C634.481 290.44 635.087 290.56 635.621 290.8C636.154 291.04 636.601 291.38 636.961 291.82C637.334 292.247 637.621 292.76 637.821 293.36C638.021 293.96 638.121 294.613 638.121 295.32V295.78H631.021V296.3C631.021 297.433 631.301 298.327 631.861 298.98C632.434 299.633 633.194 299.96 634.141 299.96C634.967 299.96 635.621 299.793 636.101 299.46C636.594 299.113 636.981 298.667 637.261 298.12L637.921 298.54C637.787 298.887 637.601 299.227 637.361 299.56C637.134 299.88 636.854 300.167 636.521 300.42C636.187 300.66 635.801 300.853 635.361 301C634.921 301.16 634.427 301.24 633.881 301.24ZM631.021 294.86H636.401V294.66C636.401 294.193 636.347 293.76 636.241 293.36C636.147 292.96 635.994 292.613 635.781 292.32C635.567 292.027 635.294 291.8 634.961 291.64C634.641 291.467 634.254 291.38 633.801 291.38C633.347 291.38 632.947 291.46 632.601 291.62C632.254 291.78 631.961 292.007 631.721 292.3C631.494 292.593 631.321 292.94 631.201 293.34C631.081 293.727 631.021 294.153 631.021 294.62V294.86Z" fill="#313134"/>
<rect x="780.5" y="0.5" width="349" height="249" rx="9.5" fill="#F5F1E8" stroke="#5F5F61"/>
<path d="M950 106V134M936 120H964" stroke="#5F5F61" stroke-width="4" stroke-linecap="round" stroke-linejoin="round"/>
<path d="M790 265.5H1124C1129.25 265.5 1133.5 269.753 1133.5 275V311C1133.5 316.247 1129.25 320.5 1124 320.5H790C784.753 320.5 780.5 316.247 780.5 311V275C780.5 269.753 784.753 265.5 790 265.5Z" fill="#F5F1E8"/>
<path d="M790 265.5H1124C1129.25 265.5 1133.5 269.753 1133.5 275V311C1133.5 316.247 1129.25 320.5 1124 320.5H790C784.753 320.5 780.5 316.247 780.5 311V275C780.5 269.753 784.753 265.5 790 265.5Z" stroke="#313134"/>
<path d="M882.32 300.08H883.38L887.92 287.04H889.82L894.34 300.08H895.4V301H890.68V300.08H892.48L891.24 296.46H885.8L884.56 300.08H886.36V301H882.32V300.08ZM886.08 295.5H890.94L888.6 288.5H888.48L886.08 295.5ZM900.833 301.24C899.553 301.24 898.527 300.78 897.753 299.86C896.993 298.927 896.613 297.587 896.613 295.84C896.613 294.093 896.993 292.76 897.753 291.84C898.527 290.907 899.553 290.44 900.833 290.44C901.633 290.44 902.28 290.613 902.773 290.96C903.28 291.307 903.647 291.727 903.873 292.22H903.953V287.34L902.453 287.08V286.38L905.593 285.8V299.7L907.073 299.96V300.64L903.953 301.24V299.44H903.873C903.647 299.933 903.287 300.36 902.793 300.72C902.3 301.067 901.647 301.24 900.833 301.24ZM901.313 300.1C901.633 300.1 901.953 300.053 902.273 299.96C902.593 299.867 902.873 299.733 903.113 299.56C903.367 299.387 903.567 299.173 903.713 298.92C903.873 298.653 903.953 298.36 903.953 298.04V293.64C903.953 293.32 903.873 293.033 903.713 292.78C903.567 292.513 903.367 292.293 903.113 292.12C902.873 291.947 902.593 291.813 902.273 291.72C901.953 291.627 901.633 291.58 901.313 291.58C900.393 291.58 899.673 291.893 899.153 292.52C898.647 293.133 898.393 293.96 898.393 295V296.68C898.393 297.72 898.647 298.553 899.153 299.18C899.673 299.793 900.393 300.1 901.313 300.1ZM913.001 301.24C911.721 301.24 910.695 300.78 909.921 299.86C909.161 298.927 908.781 297.587 908.781 295.84C908.781 294.093 909.161 292.76 909.921 291.84C910.695 290.907 911.721 290.44 913.001 290.44C913.801 290.44 914.448 290.613 914.941 290.96C915.448 291.307 915.815 291.727 916.041 292.22H916.121V287.34L914.621 287.08V286.38L917.761 285.8V299.7L919.241 299.96V300.64L916.121 301.24V299.44H916.041C915.815 299.933 915.455 300.36 914.961 300.72C914.468 301.067 913.815 301.24 913.001 301.24ZM913.481 300.1C913.801 300.1 914.121 300.053 914.441 299.96C914.761 299.867 915.041 299.733 915.281 299.56C915.535 299.387 915.735 299.173 915.881 298.92C916.041 298.653 916.121 298.36 916.121 298.04V293.64C916.121 293.32 916.041 293.033 915.881 292.78C915.735 292.513 915.535 292.293 915.281 292.12C915.041 291.947 914.761 291.813 914.441 291.72C914.121 291.627 913.801 291.58 913.481 291.58C912.561 291.58 911.841 291.893 911.321 292.52C910.815 293.133 910.561 293.96 910.561 295V296.68C910.561 297.72 910.815 298.553 911.321 299.18C911.841 299.793 912.561 300.1 913.481 300.1ZM928.638 301.12C927.931 301.12 927.444 300.98 927.178 300.7C926.911 300.407 926.778 299.913 926.778 299.22V291.66H925.458V290.68H925.638C925.918 290.68 926.138 290.66 926.298 290.62C926.471 290.58 926.604 290.527 926.698 290.46C926.804 290.38 926.878 290.287 926.918 290.18C926.971 290.06 927.018 289.927 927.058 289.78L927.518 288H928.418V290.68H931.078V291.66H928.418V300.02H931.078V300.68C930.958 300.747 930.804 300.807 930.618 300.86C930.444 300.913 930.244 300.96 930.018 301C929.804 301.04 929.578 301.067 929.338 301.08C929.098 301.107 928.864 301.12 928.638 301.12ZM937.288 300.26C937.782 300.26 938.208 300.18 938.568 300.02C938.942 299.847 939.242 299.613 939.468 299.32C939.708 299.013 939.882 298.66 939.988 298.26C940.108 297.847 940.168 297.4 940.168 296.92V294.76C940.168 294.28 940.108 293.84 939.988 293.44C939.882 293.027 939.708 292.673 939.468 292.38C939.242 292.073 938.942 291.84 938.568 291.68C938.208 291.507 937.782 291.42 937.288 291.42C936.782 291.42 936.348 291.507 935.988 291.68C935.628 291.84 935.328 292.073 935.088 292.38C934.862 292.673 934.688 293.027 934.568 293.44C934.462 293.84 934.408 294.28 934.408 294.76V296.92C934.408 297.4 934.462 297.847 934.568 298.26C934.688 298.66 934.862 299.013 935.088 299.32C935.328 299.613 935.628 299.847 935.988 300.02C936.348 300.18 936.782 300.26 937.288 300.26ZM937.288 301.24C936.582 301.24 935.935 301.113 935.348 300.86C934.762 300.607 934.262 300.247 933.848 299.78C933.435 299.3 933.115 298.733 932.888 298.08C932.662 297.413 932.548 296.667 932.548 295.84C932.548 295.027 932.662 294.287 932.888 293.62C933.115 292.953 933.435 292.387 933.848 291.92C934.262 291.44 934.762 291.073 935.348 290.82C935.935 290.567 936.582 290.44 937.288 290.44C937.995 290.44 938.642 290.567 939.228 290.82C939.815 291.073 940.315 291.44 940.728 291.92C941.142 292.387 941.462 292.953 941.688 293.62C941.915 294.287 942.028 295.027 942.028 295.84C942.028 296.667 941.915 297.413 941.688 298.08C941.462 298.733 941.142 299.3 940.728 299.78C940.315 300.247 939.815 300.607 939.228 300.86C938.642 301.113 937.995 301.24 937.288 301.24ZM953.186 301.24C952.439 301.24 951.773 301.113 951.186 300.86C950.613 300.593 950.126 300.227 949.726 299.76C949.326 299.28 949.019 298.713 948.806 298.06C948.593 297.393 948.486 296.653 948.486 295.84C948.486 295.013 948.599 294.267 948.826 293.6C949.066 292.933 949.399 292.367 949.826 291.9C950.253 291.433 950.759 291.073 951.346 290.82C951.946 290.567 952.606 290.44 953.326 290.44C954.406 290.44 955.259 290.673 955.886 291.14C956.526 291.593 956.846 292.173 956.846 292.88C956.846 293.307 956.733 293.64 956.506 293.88C956.293 294.12 955.993 294.24 955.606 294.24C955.193 294.24 954.886 294.12 954.686 293.88C954.486 293.64 954.386 293.353 954.386 293.02C954.386 292.727 954.459 292.473 954.606 292.26C954.753 292.047 954.959 291.88 955.226 291.76V291.7C955.053 291.593 954.826 291.513 954.546 291.46C954.279 291.407 953.933 291.38 953.506 291.38C953.039 291.38 952.606 291.467 952.206 291.64C951.819 291.813 951.486 292.06 951.206 292.38C950.926 292.687 950.706 293.053 950.546 293.48C950.386 293.893 950.306 294.347 950.306 294.84V296.32C950.306 296.867 950.379 297.367 950.526 297.82C950.673 298.26 950.879 298.64 951.146 298.96C951.426 299.28 951.753 299.527 952.126 299.7C952.513 299.873 952.946 299.96 953.426 299.96C954.239 299.96 954.879 299.793 955.346 299.46C955.813 299.113 956.186 298.667 956.466 298.12L957.106 298.54C956.986 298.887 956.813 299.227 956.586 299.56C956.359 299.88 956.086 300.167 955.766 300.42C955.446 300.66 955.066 300.853 954.626 301C954.199 301.16 953.719 301.24 953.186 301.24ZM963.343 300.26C963.836 300.26 964.263 300.18 964.623 300.02C964.996 299.847 965.296 299.613 965.523 299.32C965.763 299.013 965.936 298.66 966.043 298.26C966.163 297.847 966.223 297.4 966.223 296.92V294.76C966.223 294.28 966.163 293.84 966.043 293.44C965.936 293.027 965.763 292.673 965.523 292.38C965.296 292.073 964.996 291.84 964.623 291.68C964.263 291.507 963.836 291.42 963.343 291.42C962.836 291.42 962.403 291.507 962.043 291.68C961.683 291.84 961.383 292.073 961.143 292.38C960.916 292.673 960.743 293.027 960.623 293.44C960.516 293.84 960.463 294.28 960.463 294.76V296.92C960.463 297.4 960.516 297.847 960.623 298.26C960.743 298.66 960.916 299.013 961.143 299.32C961.383 299.613 961.683 299.847 962.043 300.02C962.403 300.18 962.836 300.26 963.343 300.26ZM963.343 301.24C962.636 301.24 961.99 301.113 961.403 300.86C960.816 300.607 960.316 300.247 959.903 299.78C959.49 299.3 959.17 298.733 958.943 298.08C958.716 297.413 958.603 296.667 958.603 295.84C958.603 295.027 958.716 294.287 958.943 293.62C959.17 292.953 959.49 292.387 959.903 291.92C960.316 291.44 960.816 291.073 961.403 290.82C961.99 290.567 962.636 290.44 963.343 290.44C964.05 290.44 964.696 290.567 965.283 290.82C965.87 291.073 966.37 291.44 966.783 291.92C967.196 292.387 967.516 292.953 967.743 293.62C967.97 294.287 968.083 295.027 968.083 295.84C968.083 296.667 967.97 297.413 967.743 298.08C967.516 298.733 967.196 299.3 966.783 299.78C966.37 300.247 965.87 300.607 965.283 300.86C964.696 301.113 964.05 301.24 963.343 301.24ZM969.992 300.08H971.472V291.98L969.992 291.72V291.04L973.072 290.44V292.24H973.152C973.232 292.027 973.352 291.813 973.512 291.6C973.672 291.387 973.872 291.193 974.112 291.02C974.366 290.847 974.652 290.707 974.972 290.6C975.292 290.493 975.652 290.44 976.052 290.44C976.932 290.44 977.632 290.607 978.152 290.94C978.672 291.273 979.032 291.787 979.232 292.48H979.292C979.399 292.24 979.539 292 979.712 291.76C979.886 291.52 980.099 291.3 980.352 291.1C980.606 290.9 980.899 290.74 981.232 290.62C981.579 290.5 981.979 290.44 982.432 290.44C983.672 290.44 984.552 290.767 985.072 291.42C985.606 292.073 985.872 293.047 985.872 294.34V300.08H987.352V301H982.752V300.08H984.232V294.46C984.232 292.54 983.439 291.58 981.852 291.58C981.559 291.58 981.266 291.627 980.972 291.72C980.692 291.8 980.439 291.927 980.212 292.1C979.999 292.26 979.826 292.473 979.692 292.74C979.559 292.993 979.492 293.293 979.492 293.64V300.08H980.972V301H976.372V300.08H977.852V294.46C977.852 292.54 977.066 291.58 975.492 291.58C975.186 291.58 974.892 291.627 974.612 291.72C974.332 291.8 974.079 291.927 973.852 292.1C973.626 292.26 973.446 292.473 973.312 292.74C973.179 292.993 973.112 293.293 973.112 293.64V300.08H974.592V301H969.992V300.08ZM988.855 304.08H990.335V291.98L988.855 291.72V291.04L991.975 290.44V292.24H992.055C992.281 291.747 992.641 291.327 993.135 290.98C993.628 290.62 994.281 290.44 995.095 290.44C996.375 290.44 997.395 290.907 998.155 291.84C998.928 292.76 999.315 294.093 999.315 295.84C999.315 297.587 998.928 298.927 998.155 299.86C997.395 300.78 996.375 301.24 995.095 301.24C994.295 301.24 993.641 301.067 993.135 300.72C992.641 300.373 992.281 299.953 992.055 299.46H991.975V304.08H993.855V305H988.855V304.08ZM994.615 300.1C995.535 300.1 996.248 299.793 996.755 299.18C997.275 298.553 997.535 297.72 997.535 296.68V295C997.535 293.96 997.275 293.133 996.755 292.52C996.248 291.893 995.535 291.58 994.615 291.58C994.295 291.58 993.975 291.627 993.655 291.72C993.335 291.813 993.048 291.947 992.795 292.12C992.555 292.293 992.355 292.513 992.195 292.78C992.048 293.033 991.975 293.32 991.975 293.64V298.04C991.975 298.36 992.048 298.653 992.195 298.92C992.355 299.173 992.555 299.387 992.795 299.56C993.048 299.733 993.335 299.867 993.655 299.96C993.975 300.053 994.295 300.1 994.615 300.1ZM1004.58 301.24C1003.62 301.24 1002.86 300.993 1002.32 300.5C1001.78 299.993 1001.52 299.307 1001.52 298.44C1001.52 297.947 1001.6 297.513 1001.76 297.14C1001.92 296.753 1002.18 296.433 1002.54 296.18C1002.91 295.927 1003.39 295.733 1003.98 295.6C1004.56 295.467 1005.28 295.4 1006.12 295.4H1007.6V293.88C1007.6 293.067 1007.4 292.447 1007 292.02C1006.61 291.58 1006.02 291.36 1005.24 291.36C1004.89 291.36 1004.57 291.393 1004.28 291.46C1003.98 291.513 1003.74 291.593 1003.56 291.7V291.74C1003.7 291.82 1003.84 291.94 1003.98 292.1C1004.12 292.26 1004.2 292.487 1004.2 292.78C1004.2 293.127 1004.1 293.4 1003.9 293.6C1003.7 293.787 1003.43 293.88 1003.1 293.88C1002.78 293.88 1002.51 293.787 1002.3 293.6C1002.1 293.4 1002 293.107 1002 292.72C1002 292.427 1002.08 292.147 1002.26 291.88C1002.43 291.6 1002.68 291.353 1003 291.14C1003.32 290.927 1003.71 290.76 1004.18 290.64C1004.66 290.507 1005.2 290.44 1005.8 290.44C1006.88 290.44 1007.72 290.72 1008.32 291.28C1008.93 291.84 1009.24 292.627 1009.24 293.64V300.14H1010.74V300.84C1010.59 300.947 1010.39 301.04 1010.14 301.12C1009.9 301.2 1009.62 301.24 1009.32 301.24C1008.8 301.24 1008.4 301.093 1008.12 300.8C1007.84 300.507 1007.7 300.113 1007.7 299.62V299.48H1007.6C1007.5 299.707 1007.38 299.927 1007.22 300.14C1007.07 300.353 1006.88 300.54 1006.64 300.7C1006.4 300.86 1006.1 300.987 1005.76 301.08C1005.42 301.187 1005.03 301.24 1004.58 301.24ZM1005.28 300.14C1005.92 300.14 1006.46 299.98 1006.92 299.66C1007.37 299.327 1007.6 298.82 1007.6 298.14V296.2H1006.3C1005.72 296.2 1005.24 296.247 1004.86 296.34C1004.47 296.42 1004.16 296.547 1003.94 296.72C1003.71 296.88 1003.54 297.08 1003.44 297.32C1003.34 297.56 1003.3 297.84 1003.3 298.16V298.58C1003.3 299.087 1003.47 299.473 1003.82 299.74C1004.16 300.007 1004.65 300.14 1005.28 300.14ZM1012.43 300.08H1013.91V291.98L1012.43 291.72V291.04L1015.51 290.44V292.24H1015.61C1015.71 292.027 1015.82 291.813 1015.95 291.6C1016.1 291.387 1016.27 291.193 1016.47 291.02C1016.69 290.847 1016.93 290.707 1017.19 290.6C1017.47 290.493 1017.79 290.44 1018.15 290.44C1018.74 290.44 1019.21 290.58 1019.55 290.86C1019.91 291.14 1020.09 291.547 1020.09 292.08C1020.09 292.48 1019.99 292.793 1019.79 293.02C1019.59 293.247 1019.33 293.36 1019.01 293.36C1018.65 293.36 1018.37 293.267 1018.15 293.08C1017.94 292.88 1017.83 292.627 1017.83 292.32C1017.83 292.053 1017.89 291.84 1017.99 291.68C1018.11 291.507 1018.25 291.407 1018.39 291.38V291.34C1018.34 291.327 1018.27 291.32 1018.19 291.32C1018.11 291.307 1018.01 291.3 1017.89 291.3C1017.61 291.3 1017.33 291.373 1017.05 291.52C1016.77 291.653 1016.52 291.833 1016.29 292.06C1016.08 292.273 1015.9 292.52 1015.75 292.8C1015.62 293.08 1015.55 293.36 1015.55 293.64V300.08H1017.43V301H1012.43V300.08ZM1025.88 301.24C1025.15 301.24 1024.49 301.113 1023.9 300.86C1023.33 300.593 1022.84 300.227 1022.44 299.76C1022.04 299.293 1021.73 298.727 1021.52 298.06C1021.31 297.393 1021.2 296.653 1021.2 295.84C1021.2 295.04 1021.31 294.313 1021.54 293.66C1021.78 292.993 1022.1 292.42 1022.5 291.94C1022.91 291.46 1023.4 291.093 1023.96 290.84C1024.52 290.573 1025.13 290.44 1025.8 290.44C1026.48 290.44 1027.09 290.56 1027.62 290.8C1028.15 291.04 1028.6 291.38 1028.96 291.82C1029.33 292.247 1029.62 292.76 1029.82 293.36C1030.02 293.96 1030.12 294.613 1030.12 295.32V295.78H1023.02V296.3C1023.02 297.433 1023.3 298.327 1023.86 298.98C1024.43 299.633 1025.19 299.96 1026.14 299.96C1026.97 299.96 1027.62 299.793 1028.1 299.46C1028.59 299.113 1028.98 298.667 1029.26 298.12L1029.92 298.54C1029.79 298.887 1029.6 299.227 1029.36 299.56C1029.13 299.88 1028.85 300.167 1028.52 300.42C1028.19 300.66 1027.8 300.853 1027.36 301C1026.92 301.16 1026.43 301.24 1025.88 301.24ZM1023.02 294.86H1028.4V294.66C1028.4 294.193 1028.35 293.76 1028.24 293.36C1028.15 292.96 1027.99 292.613 1027.78 292.32C1027.57 292.027 1027.29 291.8 1026.96 291.64C1026.64 291.467 1026.25 291.38 1025.8 291.38C1025.35 291.38 1024.95 291.46 1024.6 291.62C1024.25 291.78 1023.96 292.007 1023.72 292.3C1023.49 292.593 1023.32 292.94 1023.2 293.34C1023.08 293.727 1023.02 294.153 1023.02 294.62V294.86Z" fill="#313134"/>
</svg>
